<?xml version="1.0" encoding="UTF-8"?>
<!-- Generator: Adobe Illustrator 23.0.3, SVG Export Plug-In . SVG Version: 6.00 Build 0)  -->
<svg version="1.1" id="レイヤー_1" xmlns="http://www.w3.org/2000/svg" xmlns:xlink="http://www.w3.org/1999/xlink" x="0px" y="0px" width="366.7px" height="90.2px" viewBox="0 0 366.7 90.2" style="enable-background:new 0 0 366.7 90.2;" xml:space="preserve">
<style type="text/css">
	.st0{fill:#231815;}
	.st1{fill:none;stroke:#231815;stroke-width:2.9123;stroke-miterlimit:10;}
	.st2{fill:#8DC21F;}
	.st3{fill:none;stroke:#231815;stroke-width:2.9123;stroke-linejoin:round;stroke-miterlimit:10;}
	.st4{fill:#FFFFFF;stroke:#231815;stroke-width:2.9123;stroke-linejoin:round;stroke-miterlimit:10;}
	.st5{fill:#8FC31F;}
</style>
<g>
	<g>
		<g>
			<path class="st0" d="M131.8,84.2l1.2,0.3c-0.3,1-0.7,1.8-1.4,2.3s-1.5,0.8-2.5,0.8c-1,0-1.8-0.2-2.4-0.6c-0.6-0.4-1.1-1-1.4-1.8     s-0.5-1.6-0.5-2.5c0-1,0.2-1.8,0.6-2.5c0.4-0.7,0.9-1.3,1.6-1.6c0.7-0.4,1.4-0.6,2.3-0.6c0.9,0,1.7,0.2,2.3,0.7     c0.6,0.5,1.1,1.1,1.3,2l-1.2,0.3c-0.2-0.7-0.5-1.2-0.9-1.5c-0.4-0.3-0.9-0.5-1.5-0.5c-0.7,0-1.3,0.2-1.8,0.5s-0.8,0.8-1,1.4     c-0.2,0.6-0.3,1.2-0.3,1.8c0,0.8,0.1,1.5,0.3,2.1c0.2,0.6,0.6,1,1.1,1.3s1,0.4,1.6,0.4c0.7,0,1.3-0.2,1.8-0.6     C131.3,85.6,131.6,85,131.8,84.2z"/>
			<path class="st0" d="M134,84.1c0-1.2,0.3-2.2,1-2.8c0.6-0.5,1.3-0.7,2.1-0.7c0.9,0,1.7,0.3,2.3,0.9s0.9,1.4,0.9,2.5     c0,0.9-0.1,1.5-0.4,2c-0.3,0.5-0.6,0.9-1.1,1.2c-0.5,0.3-1,0.4-1.6,0.4c-0.9,0-1.7-0.3-2.3-0.9C134.3,86.1,134,85.3,134,84.1z      M135.1,84.1c0,0.9,0.2,1.5,0.6,1.9c0.4,0.4,0.9,0.6,1.4,0.6c0.6,0,1-0.2,1.4-0.6c0.4-0.4,0.6-1.1,0.6-2c0-0.8-0.2-1.5-0.6-1.9     c-0.4-0.4-0.8-0.6-1.4-0.6c-0.6,0-1,0.2-1.4,0.6C135.3,82.6,135.1,83.3,135.1,84.1z"/>
			<path class="st0" d="M141.6,90.1v-9.3h1v0.9c0.2-0.3,0.5-0.6,0.8-0.8c0.3-0.2,0.7-0.3,1.1-0.3c0.6,0,1.1,0.1,1.5,0.4     c0.4,0.3,0.8,0.7,1,1.3c0.2,0.5,0.3,1.1,0.3,1.8c0,0.7-0.1,1.3-0.4,1.9c-0.2,0.6-0.6,1-1.1,1.3c-0.5,0.3-1,0.4-1.5,0.4     c-0.4,0-0.7-0.1-1-0.2c-0.3-0.2-0.6-0.4-0.7-0.6v3.3H141.6z M142.7,84.2c0,0.9,0.2,1.5,0.5,1.9c0.4,0.4,0.8,0.6,1.3,0.6     c0.5,0,0.9-0.2,1.3-0.6c0.4-0.4,0.5-1.1,0.5-2c0-0.9-0.2-1.5-0.5-1.9c-0.4-0.4-0.8-0.6-1.3-0.6c-0.5,0-0.9,0.2-1.3,0.7     C142.8,82.6,142.7,83.3,142.7,84.2z"/>
			<path class="st0" d="M148.8,90.1l-0.1-1.1c0.2,0.1,0.5,0.1,0.7,0.1c0.3,0,0.5,0,0.6-0.1c0.2-0.1,0.3-0.2,0.4-0.4     c0.1-0.1,0.2-0.4,0.3-0.9c0-0.1,0.1-0.2,0.1-0.3l-2.6-6.8h1.2l1.4,3.9c0.2,0.5,0.3,1,0.5,1.6c0.1-0.5,0.3-1,0.5-1.5l1.4-3.9h1.1     l-2.6,6.9c-0.3,0.7-0.5,1.3-0.6,1.5c-0.2,0.4-0.4,0.7-0.7,0.8c-0.3,0.2-0.6,0.3-0.9,0.3C149.3,90.2,149.1,90.2,148.8,90.1z"/>
			<path class="st0" d="M155.3,87.5v-6.7h1v1c0.3-0.5,0.5-0.8,0.7-0.9c0.2-0.2,0.5-0.2,0.7-0.2c0.4,0,0.8,0.1,1.2,0.4l-0.4,1.1     c-0.3-0.2-0.6-0.2-0.8-0.2c-0.3,0-0.5,0.1-0.7,0.2s-0.3,0.4-0.4,0.6c-0.1,0.4-0.2,0.9-0.2,1.3v3.5H155.3z"/>
			<path class="st0" d="M159.7,79.5v-1.3h1.1v1.3H159.7z M159.7,87.5v-6.7h1.1v6.7H159.7z"/>
			<path class="st0" d="M162.4,88.1l1.1,0.2c0,0.3,0.2,0.6,0.4,0.7c0.3,0.2,0.7,0.3,1.2,0.3c0.5,0,0.9-0.1,1.2-0.3     c0.3-0.2,0.5-0.5,0.6-0.9c0.1-0.2,0.1-0.7,0.1-1.5c-0.5,0.6-1.1,0.9-1.9,0.9c-0.9,0-1.6-0.3-2.2-1c-0.5-0.7-0.8-1.5-0.8-2.4     c0-0.6,0.1-1.2,0.3-1.8c0.2-0.5,0.6-1,1-1.3c0.4-0.3,1-0.4,1.6-0.4c0.8,0,1.5,0.3,2,1v-0.8h1.1v5.8c0,1-0.1,1.8-0.3,2.2     c-0.2,0.4-0.6,0.8-1,1c-0.5,0.3-1,0.4-1.7,0.4c-0.8,0-1.5-0.2-1.9-0.5C162.6,89.3,162.3,88.8,162.4,88.1z M163.3,84     c0,0.9,0.2,1.5,0.5,1.9s0.8,0.6,1.3,0.6c0.5,0,1-0.2,1.3-0.6s0.5-1,0.5-1.9c0-0.8-0.2-1.4-0.5-1.9c-0.4-0.4-0.8-0.6-1.3-0.6     c-0.5,0-0.9,0.2-1.3,0.6C163.5,82.6,163.3,83.2,163.3,84z"/>
			<path class="st0" d="M169.8,87.5v-9.3h1.1v3.3c0.5-0.6,1.2-0.9,2-0.9c0.5,0,0.9,0.1,1.3,0.3c0.4,0.2,0.6,0.5,0.8,0.8     c0.2,0.3,0.2,0.9,0.2,1.5v4.3h-1.1v-4.3c0-0.6-0.1-1-0.4-1.2c-0.2-0.3-0.6-0.4-1.1-0.4c-0.3,0-0.7,0.1-1,0.3     c-0.3,0.2-0.5,0.4-0.6,0.7c-0.1,0.3-0.2,0.7-0.2,1.2v3.7H169.8z"/>
			<path class="st0" d="M179.5,86.5l0.2,1c-0.3,0.1-0.6,0.1-0.9,0.1c-0.4,0-0.7-0.1-1-0.2c-0.2-0.1-0.4-0.3-0.5-0.5     c-0.1-0.2-0.1-0.7-0.1-1.3v-3.9h-0.8v-0.9h0.8v-1.7l1.1-0.7v2.4h1.1v0.9h-1.1v3.9c0,0.3,0,0.5,0.1,0.6c0,0.1,0.1,0.2,0.2,0.2     c0.1,0.1,0.2,0.1,0.4,0.1C179.2,86.5,179.3,86.5,179.5,86.5z"/>
			<path class="st0" d="M184.4,87.5v-9.3h1.2V82h4.8v-3.8h1.2v9.3h-1.2v-4.4h-4.8v4.4H184.4z"/>
			<path class="st0" d="M198,86.7c-0.4,0.4-0.8,0.6-1.2,0.8c-0.4,0.1-0.8,0.2-1.3,0.2c-0.7,0-1.3-0.2-1.7-0.5     c-0.4-0.4-0.6-0.8-0.6-1.4c0-0.3,0.1-0.6,0.2-0.9c0.2-0.3,0.3-0.5,0.6-0.7c0.2-0.2,0.5-0.3,0.8-0.4c0.2-0.1,0.6-0.1,1-0.2     c0.9-0.1,1.6-0.2,2-0.4c0-0.2,0-0.3,0-0.3c0-0.5-0.1-0.8-0.3-1c-0.3-0.3-0.7-0.4-1.3-0.4c-0.5,0-0.9,0.1-1.2,0.3s-0.4,0.5-0.6,1     l-1.1-0.2c0.1-0.5,0.3-0.9,0.5-1.2c0.2-0.3,0.6-0.5,1-0.7c0.4-0.2,0.9-0.2,1.5-0.2c0.6,0,1,0.1,1.4,0.2c0.4,0.1,0.6,0.3,0.8,0.5     c0.2,0.2,0.3,0.5,0.4,0.8c0,0.2,0.1,0.5,0.1,1.1v1.5c0,1.1,0,1.7,0.1,2c0,0.3,0.1,0.6,0.3,0.8h-1.2C198.2,87.3,198.1,87,198,86.7     z M197.9,84.1c-0.4,0.2-1,0.3-1.9,0.4c-0.5,0.1-0.8,0.1-1,0.2c-0.2,0.1-0.3,0.2-0.5,0.4s-0.2,0.3-0.2,0.5c0,0.3,0.1,0.6,0.3,0.8     s0.6,0.3,1,0.3c0.4,0,0.8-0.1,1.2-0.3c0.3-0.2,0.6-0.5,0.8-0.8c0.1-0.3,0.2-0.6,0.2-1.1V84.1z"/>
			<path class="st0" d="M200.9,87.5v-6.7h1v1c0.5-0.7,1.2-1.1,2.1-1.1c0.4,0,0.8,0.1,1.1,0.2c0.3,0.1,0.6,0.3,0.8,0.6     c0.2,0.2,0.3,0.5,0.4,0.8c0,0.2,0.1,0.6,0.1,1.1v4.1h-1.1v-4.1c0-0.5,0-0.8-0.1-1c-0.1-0.2-0.2-0.4-0.5-0.6     c-0.2-0.1-0.5-0.2-0.8-0.2c-0.5,0-0.9,0.2-1.3,0.5c-0.4,0.3-0.5,0.9-0.5,1.8v3.7H200.9z"/>
			<path class="st0" d="M208.1,79.5v-1.3h1.1v1.3H208.1z M208.1,87.5v-6.7h1.1v6.7H208.1z"/>
			<path class="st0" d="M212.2,87.5l-2.1-6.7h1.2l1.1,3.9l0.4,1.4c0-0.1,0.1-0.5,0.3-1.4l1.1-3.9h1.2l1,3.9l0.3,1.3l0.4-1.3l1.2-3.9     h1.1l-2.1,6.7h-1.2l-1.1-4l-0.3-1.1l-1.4,5.2H212.2z"/>
			<path class="st0" d="M224.8,86.7c-0.4,0.4-0.8,0.6-1.2,0.8c-0.4,0.1-0.8,0.2-1.3,0.2c-0.7,0-1.3-0.2-1.7-0.5     c-0.4-0.4-0.6-0.8-0.6-1.4c0-0.3,0.1-0.6,0.2-0.9c0.2-0.3,0.3-0.5,0.6-0.7c0.2-0.2,0.5-0.3,0.8-0.4c0.2-0.1,0.6-0.1,1-0.2     c0.9-0.1,1.6-0.2,2-0.4c0-0.2,0-0.3,0-0.3c0-0.5-0.1-0.8-0.3-1c-0.3-0.3-0.7-0.4-1.3-0.4c-0.5,0-0.9,0.1-1.2,0.3s-0.4,0.5-0.6,1     l-1.1-0.2c0.1-0.5,0.3-0.9,0.5-1.2c0.2-0.3,0.6-0.5,1-0.7c0.4-0.2,0.9-0.2,1.5-0.2c0.6,0,1,0.1,1.4,0.2c0.4,0.1,0.6,0.3,0.8,0.5     c0.2,0.2,0.3,0.5,0.4,0.8c0,0.2,0.1,0.5,0.1,1.1v1.5c0,1.1,0,1.7,0.1,2c0,0.3,0.1,0.6,0.3,0.8H225     C224.9,87.3,224.8,87,224.8,86.7z M224.7,84.1c-0.4,0.2-1,0.3-1.9,0.4c-0.5,0.1-0.8,0.1-1,0.2c-0.2,0.1-0.3,0.2-0.5,0.4     s-0.2,0.3-0.2,0.5c0,0.3,0.1,0.6,0.3,0.8s0.6,0.3,1,0.3c0.4,0,0.8-0.1,1.2-0.3c0.3-0.2,0.6-0.5,0.8-0.8c0.1-0.3,0.2-0.6,0.2-1.1     V84.1z"/>
		</g>
	</g>
	<g>
		<path class="st1" d="M37.4,58.1"/>
		<path class="st1" d="M37.4,58"/>
		<g>
			<path class="st2" d="M31.1,30.2c0,1.4-1.6,2.5-3.6,2.5c-2,0-3.6-1.1-3.6-2.5c0-1.4,1.6-2.5,3.6-2.5     C29.5,27.7,31.1,28.8,31.1,30.2z"/>
			<path class="st3" d="M31.2,8.2v22.7c0,0,0.2,3.3-6.1,2.4c0,0-2.4-0.3-2.3-3.3c0,0,0-2.8,3.2-2.8h10.3"/>
			<line class="st3" x1="19.4" y1="15.1" x2="36" y2="15.1"/>
			<line class="st4" x1="48.3" y1="14" x2="48.3" y2="37.9"/>
			<path class="st3" d="M41.8,19.3h9.6l-6.6,13.9c0,0,24.3-6.5,20.1,10.1c0,0-2,7.4-11.9,14"/>
			<path class="st3" d="M26.7,44.6c0,0,10.9,9.3,23.5,0"/>
			<path class="st1" d="M55.6,55.3"/>
			<path class="st1" d="M55.6,55.3c-5.1,3.9-11.4,6.2-18.2,6.2c-16.6,0-30-13.4-30-30c0-16.6,13.4-30,30-30c16.6,0,30,13.4,30,30"/>
		</g>
		<g>
			<path class="st0" d="M0,81.8v-7.9h1.6V77h3.1v-3.1h1.6v7.9H4.7v-3.4H1.6v3.4H0z"/>
			<path class="st0" d="M9,77.8l-1.4-0.2c0.2-0.6,0.4-1,0.8-1.2c0.4-0.3,0.9-0.4,1.7-0.4c0.7,0,1.2,0.1,1.5,0.2     c0.3,0.2,0.6,0.4,0.7,0.6c0.1,0.2,0.2,0.7,0.2,1.3l0,1.8c0,0.5,0,0.9,0.1,1.1c0,0.2,0.1,0.5,0.3,0.8h-1.5c0-0.1-0.1-0.2-0.1-0.4     c0-0.1,0-0.1-0.1-0.2c-0.3,0.3-0.5,0.4-0.8,0.6s-0.6,0.2-0.9,0.2c-0.6,0-1-0.2-1.4-0.5c-0.3-0.3-0.5-0.7-0.5-1.2     c0-0.3,0.1-0.6,0.2-0.9c0.2-0.3,0.4-0.4,0.6-0.6c0.3-0.1,0.7-0.3,1.2-0.4c0.7-0.1,1.2-0.3,1.5-0.4v-0.2c0-0.3-0.1-0.5-0.2-0.6     c-0.1-0.1-0.4-0.2-0.8-0.2c-0.3,0-0.5,0.1-0.6,0.2C9.3,77.4,9.1,77.6,9,77.8z M11.1,79.1c-0.2,0.1-0.5,0.1-0.9,0.2     c-0.4,0.1-0.7,0.2-0.8,0.3C9.1,79.7,9,79.9,9,80.1c0,0.2,0.1,0.4,0.2,0.5c0.2,0.2,0.4,0.2,0.6,0.2c0.3,0,0.5-0.1,0.8-0.3     c0.2-0.1,0.3-0.3,0.4-0.5c0-0.1,0.1-0.4,0.1-0.7V79.1z"/>
			<path class="st0" d="M19.2,81.8h-1.5v-2.9c0-0.6,0-1-0.1-1.2c-0.1-0.2-0.2-0.3-0.3-0.4c-0.1-0.1-0.3-0.2-0.5-0.2     c-0.3,0-0.5,0.1-0.7,0.2c-0.2,0.1-0.3,0.3-0.4,0.6c-0.1,0.2-0.1,0.7-0.1,1.3v2.6H14v-5.7h1.4v0.8c0.5-0.6,1.1-1,1.9-1     c0.3,0,0.6,0.1,0.9,0.2c0.3,0.1,0.5,0.3,0.6,0.5c0.1,0.2,0.2,0.4,0.3,0.6c0.1,0.2,0.1,0.6,0.1,1V81.8z"/>
			<path class="st0" d="M20.7,75.3v-1.4h1.5v1.4H20.7z M20.7,81.8v-5.7h1.5v5.7H20.7z"/>
			<path class="st0" d="M24.8,81.8L23,76.1h1.5l1.1,3.7l1-3.7H28l0.9,3.7l1.1-3.7h1.5l-1.8,5.7h-1.4l-1-3.7l-1,3.7H24.8z"/>
			<path class="st0" d="M33.4,77.8l-1.4-0.2c0.2-0.6,0.4-1,0.8-1.2c0.4-0.3,0.9-0.4,1.7-0.4c0.7,0,1.2,0.1,1.5,0.2     c0.3,0.2,0.6,0.4,0.7,0.6c0.1,0.2,0.2,0.7,0.2,1.3l0,1.8c0,0.5,0,0.9,0.1,1.1c0,0.2,0.1,0.5,0.3,0.8h-1.5c0-0.1-0.1-0.2-0.1-0.4     c0-0.1,0-0.1-0.1-0.2c-0.3,0.3-0.5,0.4-0.8,0.6s-0.6,0.2-0.9,0.2c-0.6,0-1-0.2-1.4-0.5c-0.3-0.3-0.5-0.7-0.5-1.2     c0-0.3,0.1-0.6,0.2-0.9c0.2-0.3,0.4-0.4,0.6-0.6c0.3-0.1,0.7-0.3,1.2-0.4c0.7-0.1,1.2-0.3,1.5-0.4v-0.2c0-0.3-0.1-0.5-0.2-0.6     c-0.1-0.1-0.4-0.2-0.8-0.2c-0.3,0-0.5,0.1-0.6,0.2C33.6,77.4,33.5,77.6,33.4,77.8z M35.5,79.1c-0.2,0.1-0.5,0.1-0.9,0.2     c-0.4,0.1-0.7,0.2-0.8,0.3c-0.2,0.1-0.3,0.3-0.3,0.5c0,0.2,0.1,0.4,0.2,0.5c0.2,0.2,0.4,0.2,0.6,0.2c0.3,0,0.5-0.1,0.8-0.3     c0.2-0.1,0.3-0.3,0.4-0.5c0-0.1,0.1-0.4,0.1-0.7V79.1z"/>
			<path class="st0" d="M41.5,73.9h3.1c0.6,0,1.1,0,1.4,0.1s0.6,0.2,0.8,0.3s0.4,0.4,0.6,0.7c0.2,0.3,0.2,0.6,0.2,0.9     c0,0.4-0.1,0.7-0.3,1s-0.5,0.5-0.8,0.7c0.5,0.1,0.8,0.4,1.1,0.7s0.4,0.7,0.4,1.2c0,0.4-0.1,0.7-0.2,1c-0.2,0.3-0.4,0.6-0.7,0.8     c-0.3,0.2-0.6,0.3-1.1,0.4c-0.3,0-0.9,0-1.9,0.1h-2.7V73.9z M43.1,75.2v1.8h1c0.6,0,1,0,1.2,0c0.3,0,0.5-0.1,0.6-0.3     c0.2-0.2,0.2-0.4,0.2-0.6c0-0.2-0.1-0.4-0.2-0.6c-0.1-0.2-0.3-0.2-0.6-0.3c-0.2,0-0.6,0-1.4,0H43.1z M43.1,78.4v2.1h1.5     c0.6,0,0.9,0,1.1,0c0.2,0,0.4-0.1,0.6-0.3c0.1-0.2,0.2-0.4,0.2-0.7c0-0.2-0.1-0.4-0.2-0.6c-0.1-0.2-0.3-0.3-0.5-0.4     s-0.7-0.1-1.4-0.1H43.1z"/>
			<path class="st0" d="M49,78.9c0-0.5,0.1-1,0.4-1.5c0.2-0.5,0.6-0.8,1-1.1c0.5-0.2,1-0.4,1.5-0.4c0.9,0,1.6,0.3,2.1,0.8     s0.8,1.3,0.8,2.1c0,0.9-0.3,1.6-0.8,2.1s-1.3,0.8-2.1,0.8c-0.5,0-1-0.1-1.5-0.4c-0.5-0.2-0.8-0.6-1.1-1     C49.2,80.1,49,79.5,49,78.9z M50.6,79c0,0.6,0.1,1,0.4,1.3c0.3,0.3,0.6,0.5,1,0.5s0.7-0.2,1-0.5c0.3-0.3,0.4-0.7,0.4-1.3     c0-0.6-0.1-1-0.4-1.3s-0.6-0.5-1-0.5s-0.7,0.2-1,0.5S50.6,78.4,50.6,79z"/>
			<path class="st0" d="M61.3,81.8h-1.5v-2.9c0-0.6,0-1-0.1-1.2c-0.1-0.2-0.2-0.3-0.3-0.4c-0.1-0.1-0.3-0.2-0.5-0.2     c-0.3,0-0.5,0.1-0.7,0.2c-0.2,0.1-0.3,0.3-0.4,0.6c-0.1,0.2-0.1,0.7-0.1,1.3v2.6h-1.5v-5.7h1.4v0.8c0.5-0.6,1.1-1,1.9-1     c0.3,0,0.6,0.1,0.9,0.2c0.3,0.1,0.5,0.3,0.6,0.5c0.1,0.2,0.2,0.4,0.3,0.6c0.1,0.2,0.1,0.6,0.1,1V81.8z"/>
			<path class="st0" d="M62.3,80.2l1.5-0.2c0.1,0.3,0.2,0.5,0.4,0.7c0.2,0.2,0.5,0.2,0.8,0.2c0.4,0,0.7-0.1,0.9-0.2     c0.1-0.1,0.2-0.2,0.2-0.4c0-0.1,0-0.2-0.1-0.3c-0.1-0.1-0.2-0.1-0.5-0.2c-1.2-0.3-2-0.5-2.3-0.7c-0.5-0.3-0.7-0.7-0.7-1.3     c0-0.5,0.2-0.9,0.6-1.2c0.4-0.3,1-0.5,1.8-0.5c0.8,0,1.4,0.1,1.7,0.4c0.4,0.3,0.6,0.6,0.8,1.1L66,77.7c-0.1-0.2-0.2-0.4-0.3-0.5     c-0.2-0.1-0.4-0.2-0.7-0.2c-0.4,0-0.7,0.1-0.9,0.2c-0.1,0.1-0.2,0.2-0.2,0.3c0,0.1,0,0.2,0.1,0.3c0.1,0.1,0.6,0.2,1.4,0.4     c0.8,0.2,1.4,0.4,1.7,0.7c0.3,0.3,0.5,0.6,0.5,1.1c0,0.5-0.2,1-0.7,1.3s-1.1,0.6-1.9,0.6c-0.8,0-1.4-0.2-1.8-0.5     C62.7,81.1,62.4,80.7,62.3,80.2z"/>
			<path class="st0" d="M70,77.8l-1.4-0.2c0.2-0.6,0.4-1,0.8-1.2c0.4-0.3,0.9-0.4,1.7-0.4c0.7,0,1.2,0.1,1.5,0.2     c0.3,0.2,0.6,0.4,0.7,0.6c0.1,0.2,0.2,0.7,0.2,1.3l0,1.8c0,0.5,0,0.9,0.1,1.1c0,0.2,0.1,0.5,0.3,0.8h-1.5c0-0.1-0.1-0.2-0.1-0.4     c0-0.1,0-0.1-0.1-0.2c-0.3,0.3-0.5,0.4-0.8,0.6s-0.6,0.2-0.9,0.2c-0.6,0-1-0.2-1.4-0.5c-0.3-0.3-0.5-0.7-0.5-1.2     c0-0.3,0.1-0.6,0.2-0.9c0.2-0.3,0.4-0.4,0.6-0.6c0.3-0.1,0.7-0.3,1.2-0.4c0.7-0.1,1.2-0.3,1.5-0.4v-0.2c0-0.3-0.1-0.5-0.2-0.6     c-0.1-0.1-0.4-0.2-0.8-0.2c-0.3,0-0.5,0.1-0.6,0.2C70.2,77.4,70.1,77.6,70,77.8z M72,79.1c-0.2,0.1-0.5,0.1-0.9,0.2     c-0.4,0.1-0.7,0.2-0.8,0.3c-0.2,0.1-0.3,0.3-0.3,0.5c0,0.2,0.1,0.4,0.2,0.5c0.2,0.2,0.4,0.2,0.6,0.2c0.3,0,0.5-0.1,0.8-0.3     c0.2-0.1,0.3-0.3,0.4-0.5c0-0.1,0.1-0.4,0.1-0.7V79.1z"/>
			<path class="st0" d="M75,75.3v-1.4h1.5v1.4H75z M75,81.8v-5.7h1.5v5.7H75z"/>
		</g>
		<path class="st5" d="M41.3,38c0,1.8-1.4,3.2-3.2,3.2c-1.8,0-3.2-1.4-3.2-3.2c0-1.8,1.4-3.2,3.2-3.2C39.9,34.8,41.3,36.3,41.3,38z"/>
	</g>
	<g>
		<g>
			<path class="st0" d="M119.8,59.1V30.4h5.8v11.3h11.3V30.4h5.8v28.6h-5.8V46.5h-11.3v12.5H119.8z"/>
			<path class="st0" d="M179.3,59.1H173l-2.5-6.5H159l-2.4,6.5h-6.1l11.2-28.6h6.1L179.3,59.1z M168.6,47.7l-3.9-10.6l-3.9,10.6     H168.6z"/>
			<path class="st0" d="M187.2,59.1V30.4h5.6l11.7,19.1V30.4h5.4v28.6h-5.8l-11.5-18.7v18.7H187.2z"/>
			<path class="st0" d="M220.6,59.1V30.4h5.8v28.6H220.6z"/>
			<path class="st0" d="M240.8,59.1L234,30.4h5.9l4.3,19.7l5.2-19.7h6.9l5,20l4.4-20h5.8l-7,28.6h-6.1l-5.7-21.4l-5.7,21.4H240.8z"/>
			<path class="st0" d="M305.1,59.1h-6.3l-2.5-6.5h-11.4l-2.4,6.5h-6.1l11.2-28.6h6.1L305.1,59.1z M294.5,47.7l-3.9-10.6l-3.9,10.6     H294.5z"/>
		</g>
	</g>
	<g>
		<g>
			<path class="st0" d="M115.1,16.5v-10h3.8c0.8,0,1.4,0.1,1.8,0.3c0.5,0.2,0.8,0.5,1.1,0.9c0.3,0.4,0.4,0.9,0.4,1.3     c0,0.4-0.1,0.8-0.3,1.2s-0.6,0.7-1.1,0.9c0.6,0.2,1.1,0.5,1.4,0.9c0.3,0.4,0.5,0.9,0.5,1.5c0,0.5-0.1,0.9-0.3,1.3     c-0.2,0.4-0.4,0.7-0.7,0.9s-0.7,0.4-1.1,0.5c-0.4,0.1-1,0.2-1.6,0.2H115.1z M116.4,10.7h2.2c0.6,0,1,0,1.3-0.1     c0.3-0.1,0.6-0.3,0.8-0.5c0.2-0.2,0.3-0.5,0.3-0.9c0-0.3-0.1-0.6-0.2-0.9s-0.4-0.4-0.7-0.5s-0.8-0.1-1.5-0.1h-2V10.7z      M116.4,15.3h2.5c0.4,0,0.7,0,0.9,0c0.3-0.1,0.6-0.1,0.8-0.3s0.4-0.3,0.5-0.6s0.2-0.5,0.2-0.8c0-0.4-0.1-0.7-0.3-1     s-0.5-0.5-0.8-0.6c-0.3-0.1-0.8-0.2-1.5-0.2h-2.3V15.3z"/>
			<path class="st0" d="M124.1,11.6c0-1.7,0.4-3,1.3-3.9s2-1.4,3.5-1.4c0.9,0,1.8,0.2,2.5,0.7s1.3,1.1,1.7,1.8     c0.4,0.8,0.6,1.7,0.6,2.7c0,1-0.2,1.9-0.6,2.7s-1,1.4-1.7,1.8s-1.6,0.6-2.4,0.6c-0.9,0-1.8-0.2-2.5-0.7s-1.3-1.1-1.7-1.9     S124.1,12.5,124.1,11.6z M125.5,11.7c0,1.2,0.3,2.2,1,2.9c0.7,0.7,1.5,1,2.4,1c1,0,1.8-0.4,2.5-1.1c0.6-0.7,1-1.7,1-3     c0-0.8-0.1-1.5-0.4-2.1c-0.3-0.6-0.7-1.1-1.2-1.4c-0.5-0.3-1.1-0.5-1.8-0.5c-0.9,0-1.7,0.3-2.4,1     C125.8,9.1,125.5,10.1,125.5,11.7z"/>
			<path class="st0" d="M135.4,16.5v-10h1.4l5.3,7.9V6.5h1.3v10h-1.4l-5.3-7.9v7.9H135.4z"/>
			<path class="st0" d="M145,13.3l1.3-0.1c0.1,0.5,0.2,0.9,0.4,1.2c0.2,0.3,0.6,0.6,1,0.8s1,0.3,1.5,0.3c0.5,0,1-0.1,1.3-0.2     s0.7-0.4,0.9-0.6c0.2-0.3,0.3-0.5,0.3-0.9c0-0.3-0.1-0.6-0.3-0.8s-0.5-0.4-0.9-0.6c-0.3-0.1-0.9-0.3-1.8-0.5s-1.6-0.4-1.9-0.6     c-0.5-0.3-0.8-0.6-1.1-0.9c-0.2-0.4-0.4-0.8-0.4-1.2c0-0.5,0.1-1,0.4-1.4c0.3-0.4,0.7-0.8,1.3-1s1.2-0.3,1.8-0.3     c0.7,0,1.4,0.1,2,0.4c0.6,0.2,1,0.6,1.3,1.1c0.3,0.5,0.5,1,0.5,1.6l-1.3,0.1c-0.1-0.6-0.3-1.1-0.7-1.4c-0.4-0.3-1-0.5-1.7-0.5     c-0.8,0-1.4,0.1-1.8,0.4c-0.4,0.3-0.5,0.6-0.5,1.1c0,0.4,0.1,0.7,0.4,0.9c0.3,0.2,0.9,0.5,2,0.7c1.1,0.2,1.8,0.5,2.2,0.6     c0.6,0.3,1,0.6,1.3,1s0.4,0.9,0.4,1.4c0,0.5-0.2,1-0.5,1.5s-0.7,0.8-1.3,1.1c-0.6,0.3-1.2,0.4-1.9,0.4c-0.9,0-1.7-0.1-2.3-0.4     c-0.6-0.3-1.1-0.7-1.4-1.2C145.2,14.6,145.1,14,145,13.3z"/>
			<path class="st0" d="M153.7,16.5l3.8-10h1.4l4.1,10h-1.5l-1.2-3h-4.2l-1.1,3H153.7z M156.6,12.4h3.4l-1-2.8     c-0.3-0.8-0.6-1.5-0.7-2.1c-0.1,0.6-0.3,1.3-0.5,1.9L156.6,12.4z"/>
			<path class="st0" d="M164.4,16.5v-10h1.3v10H164.4z"/>
			<path class="st0" d="M176.5,15.6c-0.5,0.4-0.9,0.7-1.3,0.8c-0.4,0.2-0.9,0.2-1.4,0.2c-0.8,0-1.4-0.2-1.8-0.6     c-0.4-0.4-0.6-0.9-0.6-1.5c0-0.4,0.1-0.7,0.2-1c0.2-0.3,0.4-0.5,0.6-0.7s0.6-0.3,0.9-0.4c0.2-0.1,0.6-0.1,1.1-0.2     c1-0.1,1.7-0.3,2.2-0.4c0-0.2,0-0.3,0-0.3c0-0.5-0.1-0.9-0.3-1.1c-0.3-0.3-0.8-0.4-1.4-0.4c-0.6,0-1,0.1-1.3,0.3     s-0.5,0.6-0.6,1.1l-1.2-0.2c0.1-0.5,0.3-0.9,0.5-1.2c0.3-0.3,0.6-0.6,1.1-0.7c0.5-0.2,1-0.3,1.6-0.3c0.6,0,1.1,0.1,1.5,0.2     c0.4,0.1,0.7,0.3,0.9,0.6c0.2,0.2,0.3,0.5,0.4,0.8c0,0.2,0.1,0.6,0.1,1.1v1.6c0,1.1,0,1.9,0.1,2.2s0.2,0.6,0.3,0.9h-1.3     C176.6,16.3,176.6,16,176.5,15.6z M176.4,12.9c-0.4,0.2-1.1,0.3-2,0.5c-0.5,0.1-0.9,0.2-1.1,0.2c-0.2,0.1-0.4,0.2-0.5,0.4     c-0.1,0.2-0.2,0.4-0.2,0.6c0,0.3,0.1,0.6,0.4,0.8s0.6,0.3,1.1,0.3c0.5,0,0.9-0.1,1.3-0.3s0.6-0.5,0.8-0.9     c0.1-0.3,0.2-0.7,0.2-1.2V12.9z"/>
			<path class="st0" d="M179.6,16.5V9.3h1.1v1c0.5-0.8,1.3-1.2,2.3-1.2c0.4,0,0.8,0.1,1.2,0.2s0.6,0.4,0.8,0.6     c0.2,0.3,0.3,0.6,0.4,0.9c0,0.2,0.1,0.6,0.1,1.2v4.5h-1.2v-4.4c0-0.5,0-0.9-0.1-1.1s-0.3-0.4-0.5-0.6c-0.2-0.1-0.5-0.2-0.9-0.2     c-0.5,0-1,0.2-1.4,0.5c-0.4,0.3-0.6,1-0.6,1.9v4H179.6z"/>
			<path class="st0" d="M192.1,16.5v-0.9c-0.5,0.7-1.1,1.1-2,1.1c-0.6,0-1.1-0.2-1.6-0.5c-0.5-0.3-0.9-0.8-1.1-1.3     c-0.3-0.6-0.4-1.2-0.4-2c0-0.7,0.1-1.4,0.4-2c0.2-0.6,0.6-1,1.1-1.4c0.5-0.3,1-0.5,1.6-0.5c0.4,0,0.8,0.1,1.2,0.3     s0.6,0.4,0.8,0.7V6.5h1.2v10H192.1z M188.2,12.9c0,0.9,0.2,1.6,0.6,2.1c0.4,0.5,0.9,0.7,1.4,0.7c0.5,0,1-0.2,1.4-0.7     c0.4-0.4,0.6-1.1,0.6-2c0-1-0.2-1.7-0.6-2.2s-0.9-0.7-1.4-0.7c-0.5,0-1,0.2-1.4,0.7C188.4,11.2,188.2,11.9,188.2,12.9z"/>
			<path class="st0" d="M200.9,16.5l-2.7-10h1.4l1.5,6.6c0.2,0.7,0.3,1.4,0.4,2.1c0.3-1.1,0.4-1.7,0.5-1.9l1.9-6.8h1.6l1.4,5.1     c0.4,1.3,0.6,2.4,0.8,3.5c0.1-0.6,0.3-1.4,0.5-2.2l1.6-6.4h1.3l-2.7,10h-1.3L205,8.9c-0.2-0.6-0.3-1-0.3-1.2     c-0.1,0.5-0.2,0.9-0.3,1.2l-2.1,7.6H200.9z"/>
			<path class="st0" d="M212.6,16.5v-10h1.3v10H212.6z"/>
			<path class="st0" d="M216.2,16.5v-10h1.3v8.8h4.9v1.2H216.2z"/>
			<path class="st0" d="M224.1,16.5v-10h3.5c0.8,0,1.4,0,1.8,0.1c0.6,0.1,1.1,0.4,1.5,0.7c0.5,0.4,0.9,1,1.2,1.7     c0.3,0.7,0.4,1.5,0.4,2.4c0,0.8-0.1,1.4-0.3,2s-0.4,1.1-0.7,1.5c-0.3,0.4-0.6,0.7-0.9,0.9s-0.7,0.4-1.2,0.5     c-0.5,0.1-1,0.2-1.6,0.2H224.1z M225.4,15.3h2.1c0.7,0,1.2-0.1,1.6-0.2c0.4-0.1,0.7-0.3,0.9-0.5c0.3-0.3,0.6-0.7,0.7-1.3     s0.3-1.2,0.3-1.9c0-1-0.2-1.9-0.5-2.4c-0.3-0.6-0.8-0.9-1.3-1.1c-0.4-0.1-0.9-0.2-1.7-0.2h-2.1V15.3z"/>
			<path class="st0" d="M242.8,12.6v-1.2l4.2,0v3.7c-0.7,0.5-1.3,0.9-2,1.2c-0.7,0.3-1.4,0.4-2.1,0.4c-1,0-1.9-0.2-2.7-0.6     s-1.4-1-1.8-1.8s-0.6-1.7-0.6-2.7c0-1,0.2-1.9,0.6-2.7c0.4-0.8,1-1.5,1.8-1.9s1.6-0.6,2.6-0.6c0.7,0,1.4,0.1,2,0.4     c0.6,0.2,1,0.6,1.4,1c0.3,0.4,0.6,1,0.8,1.6l-1.2,0.3c-0.2-0.5-0.3-0.9-0.6-1.2c-0.2-0.3-0.5-0.5-1-0.7c-0.4-0.2-0.9-0.3-1.4-0.3     c-0.6,0-1.1,0.1-1.6,0.3c-0.4,0.2-0.8,0.4-1.1,0.7s-0.5,0.6-0.6,1c-0.3,0.6-0.4,1.3-0.4,2c0,0.9,0.2,1.6,0.5,2.2     c0.3,0.6,0.8,1,1.3,1.3s1.2,0.4,1.9,0.4c0.6,0,1.1-0.1,1.7-0.3s1-0.5,1.2-0.7v-1.9H242.8z"/>
			<path class="st0" d="M249,16.5v-10h4.4c0.9,0,1.6,0.1,2,0.3s0.8,0.5,1.1,1c0.3,0.5,0.4,1,0.4,1.5c0,0.7-0.2,1.3-0.7,1.8     c-0.5,0.5-1.2,0.8-2.1,0.9c0.4,0.2,0.6,0.3,0.8,0.5c0.4,0.4,0.8,0.8,1.1,1.3l1.7,2.7h-1.7l-1.3-2.1c-0.4-0.6-0.7-1.1-1-1.4     c-0.3-0.3-0.5-0.5-0.7-0.7c-0.2-0.1-0.4-0.2-0.6-0.3c-0.2,0-0.4,0-0.7,0h-1.5v4.5H249z M250.3,10.9h2.8c0.6,0,1.1-0.1,1.4-0.2     s0.6-0.3,0.8-0.6s0.3-0.6,0.3-0.9c0-0.5-0.2-0.9-0.5-1.2c-0.3-0.3-0.9-0.5-1.6-0.5h-3.2V10.9z"/>
			<path class="st0" d="M258,16.5l3.8-10h1.4l4.1,10h-1.5l-1.2-3h-4.2l-1.1,3H258z M260.9,12.4h3.4l-1-2.8c-0.3-0.8-0.6-1.5-0.7-2.1     c-0.1,0.6-0.3,1.3-0.5,1.9L260.9,12.4z"/>
			<path class="st0" d="M268,13.3l1.3-0.1c0.1,0.5,0.2,0.9,0.4,1.2s0.6,0.6,1,0.8c0.5,0.2,1,0.3,1.5,0.3c0.5,0,1-0.1,1.3-0.2     c0.4-0.2,0.7-0.4,0.9-0.6c0.2-0.3,0.3-0.5,0.3-0.9c0-0.3-0.1-0.6-0.3-0.8c-0.2-0.2-0.5-0.4-0.9-0.6c-0.3-0.1-0.9-0.3-1.8-0.5     c-0.9-0.2-1.6-0.4-1.9-0.6c-0.5-0.3-0.8-0.6-1.1-0.9s-0.4-0.8-0.4-1.2c0-0.5,0.1-1,0.4-1.4c0.3-0.4,0.7-0.8,1.3-1     c0.6-0.2,1.2-0.3,1.8-0.3c0.7,0,1.4,0.1,2,0.4c0.6,0.2,1,0.6,1.3,1.1c0.3,0.5,0.5,1,0.5,1.6l-1.3,0.1c-0.1-0.6-0.3-1.1-0.7-1.4     c-0.4-0.3-1-0.5-1.7-0.5c-0.8,0-1.4,0.1-1.8,0.4c-0.4,0.3-0.6,0.6-0.6,1.1c0,0.4,0.1,0.7,0.4,0.9c0.3,0.2,0.9,0.5,2,0.7     c1.1,0.2,1.8,0.5,2.2,0.6c0.6,0.3,1,0.6,1.3,1c0.3,0.4,0.4,0.9,0.4,1.4c0,0.5-0.2,1-0.5,1.5c-0.3,0.5-0.7,0.8-1.3,1.1     s-1.2,0.4-1.9,0.4c-0.9,0-1.7-0.1-2.3-0.4s-1.1-0.7-1.4-1.2C268.2,14.6,268,14,268,13.3z"/>
			<path class="st0" d="M277.3,13.3l1.3-0.1c0.1,0.5,0.2,0.9,0.4,1.2s0.6,0.6,1,0.8c0.5,0.2,1,0.3,1.5,0.3c0.5,0,1-0.1,1.3-0.2     c0.4-0.2,0.7-0.4,0.9-0.6c0.2-0.3,0.3-0.5,0.3-0.9c0-0.3-0.1-0.6-0.3-0.8c-0.2-0.2-0.5-0.4-0.9-0.6c-0.3-0.1-0.9-0.3-1.8-0.5     c-0.9-0.2-1.6-0.4-1.9-0.6c-0.5-0.3-0.8-0.6-1.1-0.9s-0.4-0.8-0.4-1.2c0-0.5,0.1-1,0.4-1.4c0.3-0.4,0.7-0.8,1.3-1     c0.6-0.2,1.2-0.3,1.8-0.3c0.7,0,1.4,0.1,2,0.4c0.6,0.2,1,0.6,1.3,1.1c0.3,0.5,0.5,1,0.5,1.6l-1.3,0.1c-0.1-0.6-0.3-1.1-0.7-1.4     c-0.4-0.3-1-0.5-1.7-0.5c-0.8,0-1.4,0.1-1.8,0.4C279.2,8.2,279,8.6,279,9c0,0.4,0.1,0.7,0.4,0.9c0.3,0.2,0.9,0.5,2,0.7     c1.1,0.2,1.8,0.5,2.2,0.6c0.6,0.3,1,0.6,1.3,1c0.3,0.4,0.4,0.9,0.4,1.4c0,0.5-0.2,1-0.5,1.5c-0.3,0.5-0.7,0.8-1.3,1.1     s-1.2,0.4-1.9,0.4c-0.9,0-1.7-0.1-2.3-0.4s-1.1-0.7-1.4-1.2C277.5,14.6,277.3,14,277.3,13.3z"/>
			<path class="st0" d="M287.1,16.5v-10h7.2v1.2h-5.9v3.1h5.5v1.2h-5.5v3.4h6.2v1.2H287.1z"/>
			<path class="st0" d="M296,13.3l1.3-0.1c0.1,0.5,0.2,0.9,0.4,1.2s0.6,0.6,1,0.8c0.5,0.2,1,0.3,1.5,0.3c0.5,0,1-0.1,1.3-0.2     c0.4-0.2,0.7-0.4,0.9-0.6c0.2-0.3,0.3-0.5,0.3-0.9c0-0.3-0.1-0.6-0.3-0.8c-0.2-0.2-0.5-0.4-0.9-0.6c-0.3-0.1-0.9-0.3-1.8-0.5     c-0.9-0.2-1.6-0.4-1.9-0.6c-0.5-0.3-0.8-0.6-1.1-0.9s-0.4-0.8-0.4-1.2c0-0.5,0.1-1,0.4-1.4c0.3-0.4,0.7-0.8,1.3-1     c0.6-0.2,1.2-0.3,1.8-0.3c0.7,0,1.4,0.1,2,0.4c0.6,0.2,1,0.6,1.3,1.1c0.3,0.5,0.5,1,0.5,1.6l-1.3,0.1c-0.1-0.6-0.3-1.1-0.7-1.4     c-0.4-0.3-1-0.5-1.7-0.5c-0.8,0-1.4,0.1-1.8,0.4c-0.4,0.3-0.6,0.6-0.6,1.1c0,0.4,0.1,0.7,0.4,0.9c0.3,0.2,0.9,0.5,2,0.7     c1.1,0.2,1.8,0.5,2.2,0.6c0.6,0.3,1,0.6,1.3,1c0.3,0.4,0.4,0.9,0.4,1.4c0,0.5-0.2,1-0.5,1.5c-0.3,0.5-0.7,0.8-1.3,1.1     s-1.2,0.4-1.9,0.4c-0.9,0-1.7-0.1-2.3-0.4s-1.1-0.7-1.4-1.2C296.2,14.6,296,14,296,13.3z"/>
			<path class="st0" d="M315.2,15.3c-0.4,0.5-0.8,0.8-1.3,1s-1,0.3-1.6,0.3c-1,0-1.8-0.3-2.4-1c-0.5-0.6-0.7-1.2-0.7-1.9     c0-0.6,0.2-1.2,0.6-1.7c0.4-0.5,1-0.9,1.8-1.3c-0.5-0.5-0.8-0.9-0.9-1.3s-0.2-0.6-0.2-0.9c0-0.6,0.2-1.1,0.7-1.6     c0.5-0.4,1.1-0.7,1.8-0.7c0.7,0,1.2,0.2,1.7,0.6c0.4,0.4,0.7,0.9,0.7,1.5c0,1-0.6,1.8-1.9,2.4l1.8,2.3c0.2-0.4,0.4-0.9,0.5-1.4     l1.3,0.3c-0.2,0.9-0.5,1.6-0.9,2.2c0.5,0.6,1,1.1,1.6,1.5l-0.8,1C316.3,16.4,315.8,16,315.2,15.3z M314.5,14.4l-2.3-2.8     c-0.7,0.4-1.1,0.8-1.3,1.1s-0.3,0.7-0.3,1c0,0.4,0.2,0.8,0.5,1.3c0.3,0.4,0.8,0.7,1.4,0.7c0.4,0,0.8-0.1,1.1-0.3     C313.9,15,314.2,14.7,314.5,14.4z M312.7,10.1c0.5-0.3,0.9-0.6,1-0.8c0.2-0.2,0.2-0.5,0.2-0.8c0-0.3-0.1-0.6-0.3-0.8     c-0.2-0.2-0.5-0.3-0.8-0.3c-0.3,0-0.6,0.1-0.8,0.3c-0.2,0.2-0.3,0.5-0.3,0.8c0,0.2,0,0.3,0.1,0.5s0.2,0.4,0.4,0.5L312.7,10.1z"/>
			<path class="st0" d="M322.9,16.5v-10h3.8c0.7,0,1.2,0,1.5,0.1c0.5,0.1,0.9,0.2,1.2,0.5c0.3,0.2,0.6,0.6,0.8,1     c0.2,0.4,0.3,0.9,0.3,1.4c0,0.9-0.3,1.6-0.8,2.2c-0.5,0.6-1.5,0.9-2.9,0.9h-2.6v4.1H322.9z M324.2,11.3h2.6     c0.9,0,1.5-0.2,1.8-0.5c0.4-0.3,0.5-0.8,0.5-1.3c0-0.4-0.1-0.8-0.3-1.1c-0.2-0.3-0.5-0.5-0.8-0.6c-0.2-0.1-0.6-0.1-1.2-0.1h-2.6     V11.3z"/>
			<path class="st0" d="M332.2,16.5v-10h1.3v8.8h4.9v1.2H332.2z"/>
			<path class="st0" d="M338.9,16.5l3.8-10h1.4l4.1,10h-1.5l-1.2-3h-4.2l-1.1,3H338.9z M341.8,12.4h3.4l-1-2.8     c-0.3-0.8-0.6-1.5-0.7-2.1c-0.1,0.6-0.3,1.3-0.5,1.9L341.8,12.4z"/>
			<path class="st0" d="M349.3,16.5v-10h1.4l5.3,7.9V6.5h1.3v10h-1.4l-5.3-7.9v7.9H349.3z"/>
			<path class="st0" d="M362,16.5V7.7h-3.3V6.5h7.9v1.2h-3.3v8.8H362z"/>
		</g>
	</g>
</g>
<g>
</g>
<g>
</g>
<g>
</g>
<g>
</g>
<g>
</g>
<g>
</g>
<g>
</g>
<g>
</g>
<g>
</g>
<g>
</g>
<g>
</g>
<g>
</g>
<g>
</g>
<g>
</g>
<g>
</g>
</svg>