<?xml version="1.0" encoding="UTF-8"?>
<!-- Generator: Adobe Illustrator 23.0.3, SVG Export Plug-In . SVG Version: 6.00 Build 0)  -->
<svg version="1.1" id="レイヤー_1" xmlns="http://www.w3.org/2000/svg" xmlns:xlink="http://www.w3.org/1999/xlink" x="0px" y="0px" width="40px" height="42px" viewBox="0 0 40 42" style="enable-background:new 0 0 40 42;" xml:space="preserve">
<style type="text/css">
	.st0{fill:#8FC31F;}
</style>
<g>
	<path class="st0" d="M20,2C9.5,2,1,10.5,1,21c0,10.5,8.5,19,19,19c10.5,0,19-8.5,19-19C39,10.5,30.5,2,20,2z M20,35.2   c-7.9,0-14.2-6.4-14.2-14.2c0-7.9,6.4-14.3,14.2-14.3S34.3,13.1,34.3,21C34.3,28.9,27.9,35.2,20,35.2z"/>
	<path class="st0" d="M28.4,12.6l-12.7,4l-4,12.7l12.7-4l2.5-8L28.4,12.6L28.4,12.6L28.4,12.6z M22.9,21.2l-0.7,2l-3.1-3.1l-1.4-1.4   l6.6-2.1L22.9,21.2z"/>
</g>
</svg>