<?xml version="1.0" encoding="UTF-8"?>
<!-- Generator: Adobe Illustrator 23.0.3, SVG Export Plug-In . SVG Version: 6.00 Build 0)  -->
<svg version="1.1" id="レイヤー_1" xmlns="http://www.w3.org/2000/svg" xmlns:xlink="http://www.w3.org/1999/xlink" x="0px" y="0px" width="40px" height="42px" viewBox="0 0 40 42" style="enable-background:new 0 0 40 42;" xml:space="preserve">
<style type="text/css">
	.st0{fill:#8FC31F;}
</style>
<g>
	<polygon class="st0" points="28.5,34.9 4,34.9 4,16.5 13.4,16.5 13.4,7.1 28.5,7.1 28.5,9.5 31,7.1 31,4.6 13.4,4.6 4,14.1    1.5,16.5 1.5,37.4 31,37.4 31,22.9 28.5,25.5  "/>
	<path class="st0" d="M38.3,11.1l-3.7-3.7c-0.3-0.3-0.9-0.3-1.2,0l-15.7,15c-0.1,0.1-0.2,0.2-0.2,0.3L15.6,29c-0.2,0.6,0.4,1.2,1,1   l6.4-2l15.2-15.8C38.6,11.9,38.6,11.4,38.3,11.1z M19.1,27.7l-1.2-1.3l0.8-2.8l2.1,1.1l1.1,2.1L19.1,27.7z M35.9,10.5L22.6,23.9   l-0.8-0.8L35.1,9.7L35.9,10.5C35.9,10.5,35.9,10.5,35.9,10.5z"/>
</g>
</svg>