<?xml version="1.0" encoding="UTF-8"?>
<!-- Generator: Adobe Illustrator 23.0.3, SVG Export Plug-In . SVG Version: 6.00 Build 0)  -->
<svg version="1.1" id="レイヤー_1" xmlns="http://www.w3.org/2000/svg" xmlns:xlink="http://www.w3.org/1999/xlink" x="0px" y="0px" width="40px" height="42px" viewBox="0 0 40 42" style="enable-background:new 0 0 40 42;" xml:space="preserve">
<style type="text/css">
	.st0{fill:#8FC31F;}
</style>
<g>
	<path class="st0" d="M38.8,10.9l-17.7-10c-0.7-0.4-1.5-0.4-2.1,0L2.3,10.3c-0.7,0.4-1.1,1.1-1.1,1.9l0,17.6c0,0.8,0.4,1.5,1.1,1.9   l16.6,9.4c0.7,0.4,1.5,0.4,2.1,0l16.6-9.4c0.7-0.4,1.1-1.1,1.1-1.9L38.8,10.9z M35.5,14.6v14.5L26,34.5l-4.7,2.7V22.7l5.1-2.9V25   l0,2.6l0,0v0l5.9-3.4v-7.8l2.2-1.2L35.5,14.6z M33.8,11.9l-3.1,1.8l-9.1-5.1l-4.8-2.7L20,4l9.1,5.1L33.8,11.9z M18.7,32.5l0,4.8   l-14.2-8V14.6l14.2,8V32.5z M6.2,11.9l4.8-2.7l9.1,5.2l4.7,2.7L20,19.7l-9.2-5.2L6.2,11.9z"/>
</g>
</svg>