<?xml version="1.0" encoding="UTF-8"?>
<!-- Generator: Adobe Illustrator 23.0.3, SVG Export Plug-In . SVG Version: 6.00 Build 0)  -->
<svg version="1.1" id="レイヤー_1" xmlns="http://www.w3.org/2000/svg" xmlns:xlink="http://www.w3.org/1999/xlink" x="0px" y="0px" width="1666.8px" height="469.4px" viewBox="0 0 1666.8 469.4" style="enable-background:new 0 0 1666.8 469.4;" xml:space="preserve">
<style type="text/css">
	.st0{fill:none;stroke:#CCE198;stroke-miterlimit:10;}
	.st1{fill:#CCE198;}
</style>
<g>
	<line class="st0" x1="0.1" y1="0.5" x2="1600.1" y2="429.2"/>
	<g>
		<path class="st1" d="M1627.7,469.3c1.2,0.3,2.5-0.2,3.4-1.3l14-19.3c12.1,3.2,20.8,4,21.7,0.7c0.9-3.3-7.1-7-19.1-10.2l-2.5-23.7    c-0.2-1.3-1.1-2.4-2.3-2.8l-2.8-0.9c-0.4-0.1-0.9,0-1.3,0.2c-0.4,0.3-0.6,0.7-0.7,1.2c0,0-2,17.5-2.6,22.9    c-9.2-2.2-14.3-3.4-14.3-3.4l-1.2-6.4c-0.1-0.7-0.6-1.4-1.3-1.5l-1.1-0.3c-0.5-0.1-1-0.1-1.4,0.2c-0.4,0.3-0.7,0.7-0.8,1.2    l-1.5,7.3c-1.7-0.2-3,0.2-3.3,1.1c-0.2,0.9,0.7,2,2.3,2.6l-2.3,7.1c-0.2,0.5-0.1,1,0.1,1.4c0.2,0.4,0.6,0.8,1.1,0.9l1.1,0.3    c0.7,0.2,1.5-0.1,1.9-0.7l4.2-5c0,0,5,1.6,14.1,4.2c-2.2,4.9-9.2,21.1-9.2,21.1c-0.2,0.5-0.2,1,0,1.4c0.2,0.4,0.5,0.7,1,0.8    L1627.7,469.3z"/>
	</g>
</g>
<g>
</g>
<g>
</g>
<g>
</g>
<g>
</g>
<g>
</g>
<g>
</g>
<g>
</g>
<g>
</g>
<g>
</g>
<g>
</g>
<g>
</g>
<g>
</g>
<g>
</g>
<g>
</g>
<g>
</g>
</svg>