<?xml version="1.0" encoding="UTF-8"?>
<!-- Generator: Adobe Illustrator 23.0.3, SVG Export Plug-In . SVG Version: 6.00 Build 0)  -->
<svg version="1.1" id="レイヤー_1" xmlns="http://www.w3.org/2000/svg" xmlns:xlink="http://www.w3.org/1999/xlink" x="0px" y="0px" width="40px" height="42px" viewBox="0 0 40 42" style="enable-background:new 0 0 40 42;" xml:space="preserve">
<style type="text/css">
	.st0{fill:#8FC31F;}
</style>
<g>
	<path class="st0" d="M37.4,11.2c-0.2-0.8-0.5-1.5-1-2.1c-0.1-0.1-0.2-0.2-0.3-0.4c-0.9-0.9-2.1-1.4-3.4-1.4H7.4   C6,7.3,4.8,7.8,3.9,8.7C3.8,8.8,3.7,8.9,3.6,9.1c-0.5,0.6-0.8,1.3-1,2.1c-0.1,0.3-0.1,0.6-0.1,0.9v17.7c0,0.7,0.1,1.3,0.4,1.9   c0.2,0.6,0.6,1.1,1,1.5c0.1,0.1,0.2,0.2,0.3,0.3c0.8,0.7,1.9,1.1,3.1,1.1h25.3c1.2,0,2.3-0.4,3.1-1.1c0.1-0.1,0.2-0.2,0.3-0.3   c0.4-0.4,0.8-0.9,1-1.5v0c0.3-0.6,0.4-1.2,0.4-1.9V12.1C37.5,11.8,37.4,11.5,37.4,11.2z M5.7,10.5c0.4-0.4,1-0.7,1.7-0.7h25.3   c0.7,0,1.2,0.3,1.7,0.7c0.1,0.1,0.1,0.2,0.2,0.2L21.3,22.2c-0.4,0.3-0.8,0.5-1.3,0.5c-0.5,0-0.9-0.2-1.3-0.5L5.5,10.7   C5.5,10.6,5.6,10.5,5.7,10.5z M5,29.9V13.3l9.6,8.4L5,30C5,29.9,5,29.9,5,29.9z M32.6,32.2H7.4c-0.4,0-0.8-0.1-1.2-0.3l10.1-8.8   l0.9,0.8c0.8,0.7,1.8,1,2.8,1c1,0,2-0.3,2.8-1l0.9-0.8l10.1,8.8C33.5,32.1,33.1,32.2,32.6,32.2z M35,29.9c0,0,0,0.1,0,0.1l-9.6-8.3   l9.6-8.4V29.9z"/>
</g>
</svg>