<?xml version="1.0" encoding="UTF-8"?>
<!-- Generator: Adobe Illustrator 23.0.3, SVG Export Plug-In . SVG Version: 6.00 Build 0)  -->
<svg version="1.1" id="レイヤー_1" xmlns="http://www.w3.org/2000/svg" xmlns:xlink="http://www.w3.org/1999/xlink" x="0px" y="0px" width="1666.8px" height="469.4px" viewBox="0 0 1666.8 469.4" style="enable-background:new 0 0 1666.8 469.4;" xml:space="preserve">
<style type="text/css">
	.st0{fill:none;stroke:#CCE198;stroke-miterlimit:10;}
	.st1{fill:#CCE198;}
</style>
<g>
	<line class="st0" x1="1667.1" y1="1.1" x2="67.1" y2="429.8"/>
	<g>
		<path class="st1" d="M38.8,469.3c-1.2,0.3-2.5-0.2-3.4-1.3l-14-19.3c-12.1,3.2-20.8,4-21.7,0.7c-0.9-3.3,7.1-7,19.1-10.2l2.5-23.7    c0.2-1.3,1.1-2.4,2.3-2.8l2.8-0.9c0.4-0.1,0.9,0,1.3,0.2c0.4,0.3,0.6,0.7,0.7,1.2c0,0,2,17.5,2.6,22.9c9.2-2.2,14.3-3.4,14.3-3.4    l1.2-6.4c0.1-0.7,0.6-1.4,1.3-1.5l1.1-0.3c0.5-0.1,1-0.1,1.4,0.2c0.4,0.3,0.7,0.7,0.8,1.2l1.5,7.3c1.7-0.2,3,0.2,3.3,1.1    c0.2,0.9-0.7,2-2.3,2.6L56,444c0.2,0.5,0.1,1-0.1,1.4c-0.2,0.4-0.6,0.8-1.1,0.9l-1.1,0.3c-0.7,0.2-1.5-0.1-1.9-0.7l-4.2-5    c0,0-5,1.6-14.1,4.2c2.2,4.9,9.2,21.1,9.2,21.1c0.2,0.5,0.2,1,0,1.4c-0.2,0.4-0.6,0.7-1,0.8L38.8,469.3z"/>
	</g>
</g>
<g>
</g>
<g>
</g>
<g>
</g>
<g>
</g>
<g>
</g>
<g>
</g>
<g>
</g>
<g>
</g>
<g>
</g>
<g>
</g>
<g>
</g>
<g>
</g>
<g>
</g>
<g>
</g>
<g>
</g>
</svg>