<?xml version="1.0" encoding="UTF-8"?>
<!-- Generator: Adobe Illustrator 23.0.3, SVG Export Plug-In . SVG Version: 6.00 Build 0)  -->
<svg version="1.1" id="レイヤー_1" xmlns="http://www.w3.org/2000/svg" xmlns:xlink="http://www.w3.org/1999/xlink" x="0px" y="0px" width="40px" height="42px" viewBox="0 0 40 42" style="enable-background:new 0 0 40 42;" xml:space="preserve">
<style type="text/css">
	.st0{fill:#8FC31F;}
</style>
<g>
	<path class="st0" d="M35.1,16.2c-0.3,0.2-0.6,0.5-0.9,0.7c-0.7,0.5-1.1,0.8-1.3,1c0.7,1.6,1.1,3.3,1.2,5.1h-5.1h-1.3h-7v-8.5h-1.3   H14c0.2-0.5,0.4-1,0.7-1.4c0.7-1.3,1.6-2.4,2.5-3.1c0.1-0.1,0.1-0.1,0.2-0.2c0.4-0.1,0.8-0.1,1.3-0.2c0-0.3,0-0.6,0-0.9   c0-0.6,0.1-1.3,0.2-1.9C14.6,7.2,10.9,9,8.1,11.8c-3,3-4.9,7.3-4.9,11.9c0,4.6,1.9,8.9,4.9,11.9c3,3,7.3,4.9,11.9,4.9   c4.6,0,8.9-1.9,11.9-4.9c3-3,4.9-7.3,4.9-11.9C36.8,21,36.2,18.5,35.1,16.2z M10,13.7c1.3-1.3,2.9-2.4,4.6-3.1   c-0.8,1.1-1.5,2.4-2.1,3.9H9.3C9.5,14.2,9.8,13.9,10,13.7z M8.2,15.8h3.8C11.4,18,11,20.4,10.9,23H5.9C6,20.3,6.9,17.9,8.2,15.8z    M7.7,30.6c-1.1-1.9-1.7-4-1.8-6.3h5.1c0.1,2.2,0.4,4.4,0.9,6.3H7.7z M10,33.7c-0.5-0.5-1-1.1-1.4-1.7h3.6c0.4,1.1,0.8,2.1,1.3,3   c0.4,0.7,0.8,1.3,1.2,1.8C12.9,36,11.3,35,10,33.7z M19.3,37.8c-0.7,0-1.3-0.1-2-0.2c-0.1,0-0.1-0.1-0.2-0.1   c-1.4-1.1-2.6-2.9-3.5-5.3c0,0,0-0.1,0-0.1h5.7V37.8z M19.3,30.6h-6.1c-0.5-1.9-0.9-4-0.9-6.3h7V30.6z M19.3,23h-7   c0.1-2.6,0.5-5.1,1.2-7.2h5.9V23z M20.7,24.3h7c-0.1,2.3-0.4,4.4-0.9,6.3h-6.1V24.3z M22.9,37.4c-0.1,0.1-0.1,0.1-0.2,0.1   c-0.6,0.1-1.3,0.2-2,0.2V32h5.7c-0.3,0.8-0.6,1.6-1,2.3C24.6,35.6,23.8,36.7,22.9,37.4z M30,33.7c-1.3,1.3-2.9,2.4-4.6,3.1   c0.9-1.2,1.6-2.6,2.2-4.2c0.1-0.2,0.1-0.4,0.2-0.6h3.6C31,32.6,30.5,33.1,30,33.7z M32.3,30.6h-4.1c0.5-1.9,0.8-4,0.9-6.3h5.1   C34,26.6,33.4,28.8,32.3,30.6z"/>
	<path class="st0" d="M24.4,14.7c1.7,1.2,2.1,1.5,2.7,2.7c0.5,0.9,1.2,2.5,1.2,2.5c0,0.1,0.1,0.1,0.2,0.1c0.1,0,0.2,0,0.2-0.1   c0,0,0.8-1.6,1.2-2.5c0.6-1.1,1-1.4,2.7-2.7c1.9-1.3,3.1-3.5,3.1-6c0-4-3.3-7.3-7.3-7.3c-4,0-7.3,3.3-7.3,7.3   C21.3,11.2,22.5,13.4,24.4,14.7z M28.5,5.7c1.7,0,3.1,1.4,3.1,3.1c0,1.7-1.4,3.1-3.1,3.1c-1.7,0-3.1-1.4-3.1-3.1   C25.5,7.1,26.8,5.7,28.5,5.7z"/>
</g>
</svg>