<?xml version="1.0" encoding="UTF-8"?>
<!-- Generator: Adobe Illustrator 23.0.3, SVG Export Plug-In . SVG Version: 6.00 Build 0)  -->
<svg version="1.1" id="レイヤー_1" xmlns="http://www.w3.org/2000/svg" xmlns:xlink="http://www.w3.org/1999/xlink" x="0px" y="0px" width="48.2px" height="37.8px" viewBox="0 0 48.2 37.8" style="enable-background:new 0 0 48.2 37.8;" xml:space="preserve">
<style type="text/css">
	.st0{fill:#C8C9CA;}
</style>
<g>
	<path class="st0" d="M48,5.4c-0.2-1.1-0.7-2.1-1.4-2.9c-0.1-0.2-0.3-0.3-0.5-0.5c-1.2-1.2-2.9-2-4.7-2H6.7C4.8,0,3.2,0.8,2,2   C1.8,2.1,1.6,2.3,1.5,2.5C0.8,3.3,0.3,4.3,0.1,5.4C0,5.8,0,6.2,0,6.7v24.4c0,0.9,0.2,1.8,0.6,2.7c0.3,0.8,0.8,1.5,1.4,2.1   c0.1,0.1,0.3,0.3,0.5,0.4c1.2,1,2.6,1.5,4.3,1.5h34.8c1.6,0,3.1-0.6,4.3-1.5c0.2-0.1,0.3-0.3,0.5-0.4c0.6-0.6,1.1-1.3,1.4-2.1v0   c0.4-0.8,0.5-1.7,0.5-2.6V6.7C48.2,6.2,48.1,5.8,48,5.4z M4.4,4.4c0.6-0.6,1.4-1,2.3-1h34.8c0.9,0,1.7,0.4,2.3,1   c0.1,0.1,0.2,0.2,0.3,0.3L25.8,20.6c-0.5,0.4-1.1,0.7-1.8,0.7c-0.6,0-1.2-0.2-1.8-0.7L4.1,4.7C4.2,4.6,4.3,4.5,4.4,4.4z M3.4,31.1   V8.2l13.2,11.5L3.4,31.3C3.4,31.2,3.4,31.2,3.4,31.1z M41.5,34.4H6.7c-0.6,0-1.1-0.2-1.6-0.4L19,21.8l1.3,1.1   c1.1,0.9,2.4,1.4,3.8,1.4c1.4,0,2.7-0.5,3.8-1.4l1.3-1.1L43.1,34C42.6,34.2,42.1,34.4,41.5,34.4z M44.7,31.1c0,0,0,0.1,0,0.1   L31.5,19.8L44.7,8.3V31.1z"/>
</g>
<g>
</g>
<g>
</g>
<g>
</g>
<g>
</g>
<g>
</g>
<g>
</g>
<g>
</g>
<g>
</g>
<g>
</g>
<g>
</g>
<g>
</g>
<g>
</g>
<g>
</g>
<g>
</g>
<g>
</g>
</svg>