<?xml version="1.0" encoding="UTF-8"?>
<!-- Generator: Adobe Illustrator 23.0.3, SVG Export Plug-In . SVG Version: 6.00 Build 0)  -->
<svg version="1.1" id="レイヤー_1" xmlns="http://www.w3.org/2000/svg" xmlns:xlink="http://www.w3.org/1999/xlink" x="0px" y="0px" width="35px" height="27.4px" viewBox="0 0 35 27.4" style="enable-background:new 0 0 35 27.4;" xml:space="preserve">
<style type="text/css">
	.st0{fill:#FFFFFF;}
</style>
<g>
	<path class="st0" d="M34.9,3.9c-0.2-0.8-0.5-1.5-1-2.1c-0.1-0.1-0.2-0.2-0.3-0.4C32.7,0.5,31.4,0,30.1,0H4.8C3.5,0,2.3,0.5,1.4,1.4   C1.3,1.5,1.2,1.7,1.1,1.8c-0.5,0.6-0.8,1.3-1,2.1C0,4.2,0,4.5,0,4.8v17.7c0,0.7,0.1,1.3,0.4,1.9c0.2,0.6,0.6,1.1,1,1.5   c0.1,0.1,0.2,0.2,0.3,0.3c0.8,0.7,1.9,1.1,3.1,1.1h25.3c1.2,0,2.3-0.4,3.1-1.1c0.1-0.1,0.2-0.2,0.3-0.3c0.4-0.4,0.8-0.9,1-1.5v0   c0.3-0.6,0.4-1.2,0.4-1.9V4.8C35,4.5,34.9,4.2,34.9,3.9z M3.2,3.2c0.4-0.4,1-0.7,1.7-0.7h25.3c0.7,0,1.2,0.3,1.7,0.7   c0.1,0.1,0.1,0.2,0.2,0.2L18.8,15c-0.4,0.3-0.8,0.5-1.3,0.5c-0.5,0-0.9-0.2-1.3-0.5L3,3.4C3,3.3,3.1,3.3,3.2,3.2z M2.5,22.6V6   l9.6,8.4l-9.6,8.4C2.5,22.7,2.5,22.6,2.5,22.6z M30.1,25H4.8c-0.4,0-0.8-0.1-1.2-0.3l10.1-8.8l0.9,0.8c0.8,0.7,1.8,1,2.8,1   c1,0,2-0.3,2.8-1l0.9-0.8l10.1,8.8C30.9,24.8,30.5,25,30.1,25z M32.5,22.6c0,0,0,0.1,0,0.1l-9.6-8.3L32.5,6V22.6z"/>
</g>
<g>
</g>
<g>
</g>
<g>
</g>
<g>
</g>
<g>
</g>
<g>
</g>
<g>
</g>
<g>
</g>
<g>
</g>
<g>
</g>
<g>
</g>
<g>
</g>
<g>
</g>
<g>
</g>
<g>
</g>
</svg>