<?xml version="1.0" encoding="UTF-8"?>
<!-- Generator: Adobe Illustrator 23.0.3, SVG Export Plug-In . SVG Version: 6.00 Build 0)  -->
<svg version="1.1" id="レイヤー_1" xmlns="http://www.w3.org/2000/svg" xmlns:xlink="http://www.w3.org/1999/xlink" x="0px" y="0px" width="351.1px" height="70.4px" viewBox="0 0 351.1 70.4" style="enable-background:new 0 0 351.1 70.4;" xml:space="preserve">
<style type="text/css">
	.st0{fill:#231815;}
	.st1{fill:none;stroke:#231815;stroke-width:2.5032;stroke-miterlimit:10;}
	.st2{fill:#8DC21F;}
	.st3{fill:none;stroke:#231815;stroke-width:2.5032;stroke-linejoin:round;stroke-miterlimit:10;}
	.st4{fill:#FFFFFF;stroke:#231815;stroke-width:2.5032;stroke-linejoin:round;stroke-miterlimit:10;}
	.st5{fill:#8FC31F;}
</style>
<g>
	<g>
		<g>
			<path class="st0" d="M98.5,63V34.4h5.8v11.3h11.3V34.4h5.8V63h-5.8V50.5h-11.3V63H98.5z"/>
			<path class="st0" d="M158,63h-6.3l-2.5-6.5h-11.4l-2.4,6.5h-6.1l11.2-28.6h6.1L158,63z M147.4,51.7L143.4,41l-3.9,10.6H147.4z"/>
			<path class="st0" d="M165.9,63V34.4h5.6l11.7,19.1V34.4h5.4V63h-5.8l-11.5-18.7V63H165.9z"/>
			<path class="st0" d="M199.4,63V34.4h5.8V63H199.4z"/>
			<path class="st0" d="M219.5,63l-6.8-28.6h5.9l4.3,19.7l5.2-19.7h6.9l5,20l4.4-20h5.8l-7,28.6h-6.1l-5.7-21.4L225.8,63H219.5z"/>
			<path class="st0" d="M283.9,63h-6.3l-2.5-6.5h-11.4l-2.4,6.5h-6.1l11.2-28.6h6.1L283.9,63z M273.2,51.7L269.3,41l-3.9,10.6H273.2     z"/>
		</g>
	</g>
	<g>
		<g>
			<path class="st0" d="M99.6,20.4v-10h3.8c0.8,0,1.4,0.1,1.8,0.3c0.5,0.2,0.8,0.5,1.1,0.9c0.3,0.4,0.4,0.9,0.4,1.3     c0,0.4-0.1,0.8-0.3,1.2s-0.6,0.7-1.1,0.9c0.6,0.2,1.1,0.5,1.4,0.9c0.3,0.4,0.5,0.9,0.5,1.5c0,0.5-0.1,0.9-0.3,1.3     c-0.2,0.4-0.4,0.7-0.7,0.9s-0.7,0.4-1.1,0.5c-0.4,0.1-1,0.2-1.6,0.2H99.6z M100.9,14.6h2.2c0.6,0,1,0,1.3-0.1     c0.3-0.1,0.6-0.3,0.8-0.5c0.2-0.2,0.3-0.5,0.3-0.9c0-0.3-0.1-0.6-0.2-0.9s-0.4-0.4-0.7-0.5s-0.8-0.1-1.5-0.1h-2V14.6z      M100.9,19.3h2.5c0.4,0,0.7,0,0.9,0c0.3-0.1,0.6-0.1,0.8-0.3s0.4-0.3,0.5-0.6s0.2-0.5,0.2-0.8c0-0.4-0.1-0.7-0.3-1     s-0.5-0.5-0.8-0.6c-0.3-0.1-0.8-0.2-1.5-0.2h-2.3V19.3z"/>
			<path class="st0" d="M108.6,15.6c0-1.7,0.4-3,1.3-3.9s2-1.4,3.5-1.4c0.9,0,1.8,0.2,2.5,0.7s1.3,1.1,1.7,1.8     c0.4,0.8,0.6,1.7,0.6,2.7c0,1-0.2,1.9-0.6,2.7s-1,1.4-1.7,1.8s-1.6,0.6-2.4,0.6c-0.9,0-1.8-0.2-2.5-0.7s-1.3-1.1-1.7-1.9     S108.6,16.4,108.6,15.6z M109.9,15.6c0,1.2,0.3,2.2,1,2.9c0.7,0.7,1.5,1,2.4,1c1,0,1.8-0.4,2.5-1.1c0.6-0.7,1-1.7,1-3     c0-0.8-0.1-1.5-0.4-2.1c-0.3-0.6-0.7-1.1-1.2-1.4c-0.5-0.3-1.1-0.5-1.8-0.5c-0.9,0-1.7,0.3-2.4,1C110.3,13,109.9,14.1,109.9,15.6     z"/>
			<path class="st0" d="M119.8,20.4v-10h1.4l5.3,7.9v-7.9h1.3v10h-1.4l-5.3-7.9v7.9H119.8z"/>
			<path class="st0" d="M129.5,17.2l1.3-0.1c0.1,0.5,0.2,0.9,0.4,1.2c0.2,0.3,0.6,0.6,1,0.8s1,0.3,1.5,0.3c0.5,0,1-0.1,1.3-0.2     s0.7-0.4,0.9-0.6c0.2-0.3,0.3-0.5,0.3-0.9c0-0.3-0.1-0.6-0.3-0.8s-0.5-0.4-0.9-0.6c-0.3-0.1-0.9-0.3-1.8-0.5s-1.6-0.4-1.9-0.6     c-0.5-0.3-0.8-0.6-1.1-0.9c-0.2-0.4-0.4-0.8-0.4-1.2c0-0.5,0.1-1,0.4-1.4s0.7-0.8,1.3-1s1.2-0.3,1.8-0.3c0.7,0,1.4,0.1,2,0.4     c0.6,0.2,1,0.6,1.3,1.1s0.5,1,0.5,1.6l-1.3,0.1c-0.1-0.6-0.3-1.1-0.7-1.4c-0.4-0.3-1-0.5-1.7-0.5c-0.8,0-1.4,0.1-1.8,0.4     c-0.4,0.3-0.5,0.6-0.5,1.1c0,0.4,0.1,0.7,0.4,0.9c0.3,0.2,0.9,0.5,2,0.7c1.1,0.2,1.8,0.5,2.2,0.6c0.6,0.3,1,0.6,1.3,1     s0.4,0.9,0.4,1.4c0,0.5-0.2,1-0.5,1.5s-0.7,0.8-1.3,1.1c-0.6,0.3-1.2,0.4-1.9,0.4c-0.9,0-1.7-0.1-2.3-0.4     c-0.6-0.3-1.1-0.7-1.4-1.2C129.7,18.5,129.5,17.9,129.5,17.2z"/>
			<path class="st0" d="M138.2,20.4l3.8-10h1.4l4.1,10h-1.5l-1.2-3h-4.2l-1.1,3H138.2z M141.1,16.3h3.4l-1-2.8     c-0.3-0.8-0.6-1.5-0.7-2.1c-0.1,0.6-0.3,1.3-0.5,1.9L141.1,16.3z"/>
			<path class="st0" d="M148.9,20.4v-10h1.3v10H148.9z"/>
			<path class="st0" d="M161,19.5c-0.5,0.4-0.9,0.7-1.3,0.8c-0.4,0.2-0.9,0.2-1.4,0.2c-0.8,0-1.4-0.2-1.8-0.6s-0.6-0.9-0.6-1.5     c0-0.4,0.1-0.7,0.2-1c0.2-0.3,0.4-0.5,0.6-0.7c0.3-0.2,0.6-0.3,0.9-0.4c0.2-0.1,0.6-0.1,1.1-0.2c1-0.1,1.7-0.3,2.2-0.4     c0-0.2,0-0.3,0-0.3c0-0.5-0.1-0.9-0.3-1.1c-0.3-0.3-0.8-0.4-1.4-0.4c-0.6,0-1,0.1-1.3,0.3c-0.3,0.2-0.5,0.6-0.6,1.1l-1.2-0.2     c0.1-0.5,0.3-0.9,0.5-1.2s0.6-0.6,1.1-0.7s1-0.3,1.6-0.3c0.6,0,1.1,0.1,1.5,0.2s0.7,0.3,0.9,0.6s0.3,0.5,0.4,0.8     c0,0.2,0.1,0.6,0.1,1.1v1.6c0,1.1,0,1.9,0.1,2.2c0.1,0.3,0.2,0.6,0.3,0.9h-1.3C161.1,20.2,161,19.9,161,19.5z M160.9,16.8     c-0.4,0.2-1.1,0.3-2,0.5c-0.5,0.1-0.9,0.2-1.1,0.2s-0.4,0.2-0.5,0.4s-0.2,0.4-0.2,0.6c0,0.3,0.1,0.6,0.4,0.8     c0.2,0.2,0.6,0.3,1.1,0.3c0.5,0,0.9-0.1,1.3-0.3s0.6-0.5,0.8-0.9c0.1-0.3,0.2-0.7,0.2-1.2V16.8z"/>
			<path class="st0" d="M164.1,20.4v-7.3h1.1v1c0.5-0.8,1.3-1.2,2.3-1.2c0.4,0,0.8,0.1,1.2,0.2c0.4,0.2,0.6,0.4,0.8,0.6     s0.3,0.6,0.4,0.9c0,0.2,0.1,0.6,0.1,1.2v4.5h-1.2V16c0-0.5,0-0.9-0.1-1.1s-0.3-0.4-0.5-0.6c-0.2-0.1-0.5-0.2-0.9-0.2     c-0.5,0-1,0.2-1.4,0.5c-0.4,0.3-0.6,1-0.6,1.9v4H164.1z"/>
			<path class="st0" d="M176.6,20.4v-0.9c-0.5,0.7-1.1,1.1-2,1.1c-0.6,0-1.1-0.2-1.6-0.5c-0.5-0.3-0.9-0.8-1.1-1.3     c-0.3-0.6-0.4-1.2-0.4-2c0-0.7,0.1-1.4,0.4-2s0.6-1,1.1-1.4s1-0.5,1.6-0.5c0.4,0,0.8,0.1,1.2,0.3s0.6,0.4,0.8,0.7v-3.6h1.2v10     H176.6z M172.7,16.8c0,0.9,0.2,1.6,0.6,2.1s0.9,0.7,1.4,0.7c0.5,0,1-0.2,1.4-0.7c0.4-0.4,0.6-1.1,0.6-2c0-1-0.2-1.7-0.6-2.2     s-0.9-0.7-1.4-0.7c-0.5,0-1,0.2-1.4,0.7C172.8,15.1,172.7,15.9,172.7,16.8z"/>
			<path class="st0" d="M185.4,20.4l-2.7-10h1.4l1.5,6.6c0.2,0.7,0.3,1.4,0.4,2.1c0.3-1.1,0.4-1.7,0.5-1.9l1.9-6.8h1.6l1.4,5.1     c0.4,1.3,0.6,2.4,0.8,3.5c0.1-0.6,0.3-1.4,0.5-2.2l1.6-6.4h1.3l-2.7,10h-1.3l-2.1-7.6c-0.2-0.6-0.3-1-0.3-1.2     c-0.1,0.5-0.2,0.9-0.3,1.2l-2.1,7.6H185.4z"/>
			<path class="st0" d="M197.1,20.4v-10h1.3v10H197.1z"/>
			<path class="st0" d="M200.7,20.4v-10h1.3v8.8h4.9v1.2H200.7z"/>
			<path class="st0" d="M208.6,20.4v-10h3.5c0.8,0,1.4,0,1.8,0.1c0.6,0.1,1.1,0.4,1.5,0.7c0.5,0.4,0.9,1,1.2,1.7     c0.3,0.7,0.4,1.5,0.4,2.4c0,0.8-0.1,1.4-0.3,2s-0.4,1.1-0.7,1.5s-0.6,0.7-0.9,0.9c-0.3,0.2-0.7,0.4-1.2,0.5     c-0.5,0.1-1,0.2-1.6,0.2H208.6z M209.9,19.3h2.1c0.7,0,1.2-0.1,1.6-0.2c0.4-0.1,0.7-0.3,0.9-0.5c0.3-0.3,0.6-0.7,0.7-1.3     c0.2-0.5,0.3-1.2,0.3-1.9c0-1-0.2-1.9-0.5-2.4c-0.3-0.6-0.8-0.9-1.3-1.1c-0.4-0.1-0.9-0.2-1.7-0.2h-2.1V19.3z"/>
			<path class="st0" d="M227.3,16.5v-1.2l4.2,0V19c-0.7,0.5-1.3,0.9-2,1.2s-1.4,0.4-2.1,0.4c-1,0-1.9-0.2-2.7-0.6     c-0.8-0.4-1.4-1-1.8-1.8s-0.6-1.7-0.6-2.7c0-1,0.2-1.9,0.6-2.7c0.4-0.8,1-1.5,1.8-1.9s1.6-0.6,2.6-0.6c0.7,0,1.4,0.1,2,0.4     c0.6,0.2,1,0.6,1.4,1s0.6,1,0.8,1.6l-1.2,0.3c-0.2-0.5-0.3-0.9-0.6-1.2s-0.5-0.5-1-0.7s-0.9-0.3-1.4-0.3c-0.6,0-1.1,0.1-1.6,0.3     s-0.8,0.4-1.1,0.7c-0.3,0.3-0.5,0.6-0.6,1c-0.3,0.6-0.4,1.3-0.4,2c0,0.9,0.2,1.6,0.5,2.2c0.3,0.6,0.8,1,1.3,1.3s1.2,0.4,1.9,0.4     c0.6,0,1.1-0.1,1.7-0.3s1-0.5,1.2-0.7v-1.9H227.3z"/>
			<path class="st0" d="M233.5,20.4v-10h4.4c0.9,0,1.6,0.1,2,0.3s0.8,0.5,1.1,1s0.4,1,0.4,1.5c0,0.7-0.2,1.3-0.7,1.8     s-1.2,0.8-2.1,0.9c0.4,0.2,0.6,0.3,0.8,0.5c0.4,0.4,0.8,0.8,1.1,1.3l1.7,2.7h-1.7l-1.3-2.1c-0.4-0.6-0.7-1.1-1-1.4     s-0.5-0.5-0.7-0.7c-0.2-0.1-0.4-0.2-0.6-0.3c-0.2,0-0.4,0-0.7,0h-1.5v4.5H233.5z M234.8,14.8h2.9c0.6,0,1.1-0.1,1.4-0.2     s0.6-0.3,0.8-0.6s0.3-0.6,0.3-0.9c0-0.5-0.2-0.9-0.5-1.2c-0.3-0.3-0.9-0.5-1.6-0.5h-3.2V14.8z"/>
			<path class="st0" d="M242.5,20.4l3.8-10h1.4l4.1,10h-1.5l-1.2-3H245l-1.1,3H242.5z M245.4,16.3h3.4l-1-2.8     c-0.3-0.8-0.6-1.5-0.7-2.1c-0.1,0.6-0.3,1.3-0.5,1.9L245.4,16.3z"/>
			<path class="st0" d="M252.5,17.2l1.3-0.1c0.1,0.5,0.2,0.9,0.4,1.2c0.2,0.3,0.6,0.6,1,0.8s1,0.3,1.5,0.3c0.5,0,1-0.1,1.3-0.2     s0.7-0.4,0.9-0.6c0.2-0.3,0.3-0.5,0.3-0.9c0-0.3-0.1-0.6-0.3-0.8s-0.5-0.4-0.9-0.6c-0.3-0.1-0.9-0.3-1.8-0.5s-1.6-0.4-1.9-0.6     c-0.5-0.3-0.8-0.6-1.1-0.9c-0.2-0.4-0.4-0.8-0.4-1.2c0-0.5,0.1-1,0.4-1.4s0.7-0.8,1.3-1s1.2-0.3,1.8-0.3c0.7,0,1.4,0.1,2,0.4     c0.6,0.2,1,0.6,1.3,1.1s0.5,1,0.5,1.6l-1.3,0.1c-0.1-0.6-0.3-1.1-0.7-1.4c-0.4-0.3-1-0.5-1.7-0.5c-0.8,0-1.4,0.1-1.8,0.4     c-0.4,0.3-0.5,0.6-0.5,1.1c0,0.4,0.1,0.7,0.4,0.9c0.3,0.2,0.9,0.5,2,0.7c1.1,0.2,1.8,0.5,2.2,0.6c0.6,0.3,1,0.6,1.3,1     s0.4,0.9,0.4,1.4c0,0.5-0.2,1-0.5,1.5s-0.7,0.8-1.3,1.1c-0.6,0.3-1.2,0.4-1.9,0.4c-0.9,0-1.7-0.1-2.3-0.4     c-0.6-0.3-1.1-0.7-1.4-1.2C252.7,18.5,252.5,17.9,252.5,17.2z"/>
			<path class="st0" d="M261.8,17.2l1.3-0.1c0.1,0.5,0.2,0.9,0.4,1.2c0.2,0.3,0.6,0.6,1,0.8s1,0.3,1.5,0.3c0.5,0,1-0.1,1.3-0.2     s0.7-0.4,0.9-0.6c0.2-0.3,0.3-0.5,0.3-0.9c0-0.3-0.1-0.6-0.3-0.8s-0.5-0.4-0.9-0.6c-0.3-0.1-0.9-0.3-1.8-0.5s-1.6-0.4-1.9-0.6     c-0.5-0.3-0.8-0.6-1.1-0.9c-0.2-0.4-0.4-0.8-0.4-1.2c0-0.5,0.1-1,0.4-1.4s0.7-0.8,1.3-1s1.2-0.3,1.8-0.3c0.7,0,1.4,0.1,2,0.4     c0.6,0.2,1,0.6,1.3,1.1s0.5,1,0.5,1.6l-1.3,0.1c-0.1-0.6-0.3-1.1-0.7-1.4c-0.4-0.3-1-0.5-1.7-0.5c-0.8,0-1.4,0.1-1.8,0.4     c-0.4,0.3-0.5,0.6-0.5,1.1c0,0.4,0.1,0.7,0.4,0.9c0.3,0.2,0.9,0.5,2,0.7c1.1,0.2,1.8,0.5,2.2,0.6c0.6,0.3,1,0.6,1.3,1     s0.4,0.9,0.4,1.4c0,0.5-0.2,1-0.5,1.5s-0.7,0.8-1.3,1.1c-0.6,0.3-1.2,0.4-1.9,0.4c-0.9,0-1.7-0.1-2.3-0.4     c-0.6-0.3-1.1-0.7-1.4-1.2C262,18.5,261.8,17.9,261.8,17.2z"/>
			<path class="st0" d="M271.6,20.4v-10h7.2v1.2h-5.9v3.1h5.5v1.2h-5.5v3.4h6.2v1.2H271.6z"/>
			<path class="st0" d="M280.5,17.2l1.3-0.1c0.1,0.5,0.2,0.9,0.4,1.2c0.2,0.3,0.6,0.6,1,0.8s1,0.3,1.5,0.3c0.5,0,1-0.1,1.3-0.2     s0.7-0.4,0.9-0.6c0.2-0.3,0.3-0.5,0.3-0.9c0-0.3-0.1-0.6-0.3-0.8s-0.5-0.4-0.9-0.6c-0.3-0.1-0.9-0.3-1.8-0.5s-1.6-0.4-1.9-0.6     c-0.5-0.3-0.8-0.6-1.1-0.9c-0.2-0.4-0.4-0.8-0.4-1.2c0-0.5,0.1-1,0.4-1.4s0.7-0.8,1.3-1s1.2-0.3,1.8-0.3c0.7,0,1.4,0.1,2,0.4     c0.6,0.2,1,0.6,1.3,1.1s0.5,1,0.5,1.6l-1.3,0.1c-0.1-0.6-0.3-1.1-0.7-1.4c-0.4-0.3-1-0.5-1.7-0.5c-0.8,0-1.4,0.1-1.8,0.4     c-0.4,0.3-0.5,0.6-0.5,1.1c0,0.4,0.1,0.7,0.4,0.9c0.3,0.2,0.9,0.5,2,0.7c1.1,0.2,1.8,0.5,2.2,0.6c0.6,0.3,1,0.6,1.3,1     s0.4,0.9,0.4,1.4c0,0.5-0.2,1-0.5,1.5s-0.7,0.8-1.3,1.1c-0.6,0.3-1.2,0.4-1.9,0.4c-0.9,0-1.7-0.1-2.3-0.4     c-0.6-0.3-1.1-0.7-1.4-1.2C280.7,18.5,280.5,17.9,280.5,17.2z"/>
			<path class="st0" d="M299.7,19.3c-0.4,0.5-0.8,0.8-1.3,1s-1,0.3-1.6,0.3c-1,0-1.8-0.3-2.4-1c-0.5-0.6-0.7-1.2-0.7-1.9     c0-0.6,0.2-1.2,0.6-1.7c0.4-0.5,1-0.9,1.8-1.3c-0.5-0.5-0.8-0.9-0.9-1.3s-0.2-0.6-0.2-0.9c0-0.6,0.2-1.1,0.7-1.6     c0.5-0.4,1.1-0.7,1.8-0.7c0.7,0,1.2,0.2,1.7,0.6c0.4,0.4,0.7,0.9,0.7,1.5c0,1-0.6,1.8-1.9,2.4l1.8,2.3c0.2-0.4,0.4-0.9,0.5-1.4     l1.3,0.3c-0.2,0.9-0.5,1.6-0.9,2.2c0.5,0.6,1,1.1,1.6,1.5l-0.8,1C300.8,20.4,300.2,19.9,299.7,19.3z M298.9,18.3l-2.3-2.8     c-0.7,0.4-1.1,0.8-1.3,1.1s-0.3,0.7-0.3,1c0,0.4,0.2,0.8,0.5,1.3s0.8,0.7,1.4,0.7c0.4,0,0.8-0.1,1.1-0.3     C298.4,18.9,298.7,18.6,298.9,18.3z M297.2,14c0.5-0.3,0.9-0.6,1-0.8c0.2-0.2,0.2-0.5,0.2-0.8c0-0.3-0.1-0.6-0.3-0.8     c-0.2-0.2-0.5-0.3-0.8-0.3c-0.3,0-0.6,0.1-0.8,0.3c-0.2,0.2-0.3,0.5-0.3,0.8c0,0.2,0,0.3,0.1,0.5c0.1,0.2,0.2,0.4,0.4,0.5     L297.2,14z"/>
			<path class="st0" d="M307.4,20.4v-10h3.8c0.7,0,1.2,0,1.5,0.1c0.5,0.1,0.9,0.2,1.2,0.5s0.6,0.6,0.8,1c0.2,0.4,0.3,0.9,0.3,1.4     c0,0.9-0.3,1.6-0.8,2.2s-1.5,0.9-2.9,0.9h-2.6v4.1H307.4z M308.7,15.2h2.6c0.9,0,1.5-0.2,1.8-0.5s0.5-0.8,0.5-1.3     c0-0.4-0.1-0.8-0.3-1.1c-0.2-0.3-0.5-0.5-0.8-0.6c-0.2-0.1-0.6-0.1-1.2-0.1h-2.6V15.2z"/>
			<path class="st0" d="M316.7,20.4v-10h1.3v8.8h4.9v1.2H316.7z"/>
			<path class="st0" d="M323.4,20.4l3.8-10h1.4l4.1,10h-1.5l-1.2-3h-4.2l-1.1,3H323.4z M326.3,16.3h3.4l-1-2.8     c-0.3-0.8-0.6-1.5-0.7-2.1c-0.1,0.6-0.3,1.3-0.5,1.9L326.3,16.3z"/>
			<path class="st0" d="M333.8,20.4v-10h1.4l5.3,7.9v-7.9h1.3v10h-1.4l-5.3-7.9v7.9H333.8z"/>
			<path class="st0" d="M346.5,20.4v-8.8h-3.3v-1.2h7.9v1.2h-3.3v8.8H346.5z"/>
		</g>
	</g>
	<g>
		<path class="st1" d="M32.1,49.9"/>
		<path class="st1" d="M32.1,49.9"/>
		<g>
			<path class="st2" d="M26.7,25.9c0,1.2-1.4,2.2-3.1,2.2c-1.7,0-3.1-1-3.1-2.2c0-1.2,1.4-2.2,3.1-2.2     C25.3,23.8,26.7,24.8,26.7,25.9z"/>
			<path class="st3" d="M26.9,7v19.5c0,0,0.2,2.8-5.3,2c0,0-2.1-0.3-2-2.9c0,0,0-2.4,2.7-2.4h8.9"/>
			<line class="st3" x1="16.7" y1="13" x2="30.9" y2="13"/>
			<line class="st4" x1="41.5" y1="12" x2="41.5" y2="32.6"/>
			<path class="st3" d="M35.9,16.6h8.3l-5.7,11.9c0,0,20.9-5.6,17.3,8.7c0,0-1.8,6.3-10.3,12"/>
			<path class="st3" d="M23,38.3c0,0,9.3,8,20.2,0"/>
			<path class="st1" d="M47.8,47.5"/>
			<path class="st1" d="M47.8,47.5c-4.3,3.3-9.8,5.3-15.7,5.3C17.9,52.8,6.3,41.3,6.3,27S17.9,1.3,32.1,1.3     c14.2,0,25.8,11.5,25.8,25.8"/>
		</g>
		<g>
			<path class="st0" d="M0,70.3v-6.8h1.4v2.7H4v-2.7h1.4v6.8H4v-3H1.4v3H0z"/>
			<path class="st0" d="M7.8,66.9l-1.2-0.2c0.1-0.5,0.4-0.8,0.7-1c0.3-0.2,0.8-0.3,1.4-0.3c0.6,0,1,0.1,1.3,0.2     c0.3,0.1,0.5,0.3,0.6,0.5c0.1,0.2,0.2,0.6,0.2,1.2l0,1.5c0,0.4,0,0.7,0.1,1c0,0.2,0.1,0.4,0.2,0.7H9.8c0-0.1-0.1-0.2-0.1-0.4     c0-0.1,0-0.1,0-0.2c-0.2,0.2-0.5,0.4-0.7,0.5c-0.3,0.1-0.5,0.2-0.8,0.2c-0.5,0-0.9-0.1-1.2-0.4c-0.3-0.3-0.4-0.6-0.4-1     c0-0.3,0.1-0.5,0.2-0.7C6.8,68,7,67.8,7.2,67.7c0.2-0.1,0.6-0.2,1-0.3c0.6-0.1,1-0.2,1.3-0.3V67c0-0.2-0.1-0.4-0.2-0.5     c-0.1-0.1-0.4-0.2-0.7-0.2c-0.2,0-0.4,0-0.5,0.1S7.8,66.7,7.8,66.9z M9.5,68c-0.2,0.1-0.4,0.1-0.8,0.2c-0.4,0.1-0.6,0.2-0.7,0.2     c-0.2,0.1-0.3,0.3-0.3,0.5c0,0.2,0.1,0.3,0.2,0.5c0.1,0.1,0.3,0.2,0.5,0.2c0.2,0,0.5-0.1,0.7-0.2c0.2-0.1,0.3-0.3,0.3-0.4     c0-0.1,0.1-0.3,0.1-0.6V68z"/>
			<path class="st0" d="M16.5,70.3h-1.3v-2.5c0-0.5,0-0.9-0.1-1c-0.1-0.2-0.1-0.3-0.3-0.4s-0.3-0.1-0.4-0.1c-0.2,0-0.4,0.1-0.6,0.2     c-0.2,0.1-0.3,0.3-0.4,0.5c-0.1,0.2-0.1,0.6-0.1,1.1v2.2H12v-4.9h1.2v0.7c0.4-0.6,1-0.8,1.6-0.8c0.3,0,0.5,0.1,0.8,0.2     c0.2,0.1,0.4,0.2,0.5,0.4c0.1,0.2,0.2,0.3,0.3,0.5s0.1,0.5,0.1,0.9V70.3z"/>
			<path class="st0" d="M17.8,64.8v-1.2h1.3v1.2H17.8z M17.8,70.3v-4.9h1.3v4.9H17.8z"/>
			<path class="st0" d="M21.3,70.3l-1.5-4.9h1.3l0.9,3.2l0.8-3.2h1.2l0.8,3.2l0.9-3.2h1.3l-1.6,4.9h-1.2l-0.8-3.1l-0.8,3.1H21.3z"/>
			<path class="st0" d="M28.7,66.9l-1.2-0.2c0.1-0.5,0.4-0.8,0.7-1c0.3-0.2,0.8-0.3,1.4-0.3c0.6,0,1,0.1,1.3,0.2     c0.3,0.1,0.5,0.3,0.6,0.5c0.1,0.2,0.2,0.6,0.2,1.2l0,1.5c0,0.4,0,0.7,0.1,1c0,0.2,0.1,0.4,0.2,0.7h-1.3c0-0.1-0.1-0.2-0.1-0.4     c0-0.1,0-0.1,0-0.2c-0.2,0.2-0.5,0.4-0.7,0.5c-0.3,0.1-0.5,0.2-0.8,0.2c-0.5,0-0.9-0.1-1.2-0.4c-0.3-0.3-0.4-0.6-0.4-1     c0-0.3,0.1-0.5,0.2-0.7c0.1-0.2,0.3-0.4,0.6-0.5c0.2-0.1,0.6-0.2,1-0.3c0.6-0.1,1-0.2,1.3-0.3V67c0-0.2-0.1-0.4-0.2-0.5     c-0.1-0.1-0.4-0.2-0.7-0.2c-0.2,0-0.4,0-0.5,0.1S28.8,66.7,28.7,66.9z M30.5,68c-0.2,0.1-0.4,0.1-0.8,0.2     c-0.4,0.1-0.6,0.2-0.7,0.2c-0.2,0.1-0.3,0.3-0.3,0.5c0,0.2,0.1,0.3,0.2,0.5c0.1,0.1,0.3,0.2,0.5,0.2c0.2,0,0.5-0.1,0.7-0.2     c0.2-0.1,0.3-0.3,0.3-0.4c0-0.1,0.1-0.3,0.1-0.6V68z"/>
			<path class="st0" d="M35.7,63.6h2.7c0.5,0,0.9,0,1.2,0.1c0.3,0,0.5,0.1,0.7,0.3c0.2,0.1,0.4,0.3,0.5,0.6S41,65,41,65.3     c0,0.3-0.1,0.6-0.3,0.9c-0.2,0.3-0.4,0.5-0.7,0.6c0.4,0.1,0.7,0.3,0.9,0.6c0.2,0.3,0.3,0.6,0.3,1c0,0.3-0.1,0.6-0.2,0.9     c-0.1,0.3-0.3,0.5-0.6,0.7c-0.2,0.2-0.6,0.3-0.9,0.3c-0.2,0-0.8,0-1.6,0h-2.3V63.6z M37,64.7v1.6h0.9c0.5,0,0.9,0,1,0     c0.2,0,0.4-0.1,0.6-0.2c0.1-0.1,0.2-0.3,0.2-0.5c0-0.2-0.1-0.4-0.2-0.5c-0.1-0.1-0.3-0.2-0.5-0.2c-0.1,0-0.5,0-1.2,0H37z      M37,67.4v1.8h1.3c0.5,0,0.8,0,0.9,0c0.2,0,0.4-0.1,0.5-0.3c0.1-0.1,0.2-0.3,0.2-0.6c0-0.2,0-0.4-0.1-0.5     c-0.1-0.1-0.2-0.2-0.4-0.3c-0.2-0.1-0.6-0.1-1.2-0.1H37z"/>
			<path class="st0" d="M42.2,67.8c0-0.4,0.1-0.8,0.3-1.2c0.2-0.4,0.5-0.7,0.9-0.9s0.8-0.3,1.3-0.3c0.7,0,1.3,0.2,1.8,0.7     c0.5,0.5,0.7,1.1,0.7,1.8c0,0.7-0.2,1.4-0.7,1.8c-0.5,0.5-1.1,0.7-1.8,0.7c-0.4,0-0.9-0.1-1.3-0.3c-0.4-0.2-0.7-0.5-0.9-0.9     S42.2,68.4,42.2,67.8z M43.5,67.9c0,0.5,0.1,0.9,0.3,1.1c0.2,0.3,0.5,0.4,0.9,0.4s0.6-0.1,0.9-0.4c0.2-0.3,0.3-0.6,0.3-1.1     c0-0.5-0.1-0.8-0.3-1.1c-0.2-0.3-0.5-0.4-0.9-0.4s-0.6,0.1-0.9,0.4C43.6,67,43.5,67.4,43.5,67.9z"/>
			<path class="st0" d="M52.7,70.3h-1.3v-2.5c0-0.5,0-0.9-0.1-1c-0.1-0.2-0.1-0.3-0.3-0.4s-0.3-0.1-0.4-0.1c-0.2,0-0.4,0.1-0.6,0.2     c-0.2,0.1-0.3,0.3-0.4,0.5c-0.1,0.2-0.1,0.6-0.1,1.1v2.2h-1.3v-4.9h1.2v0.7c0.4-0.6,1-0.8,1.6-0.8c0.3,0,0.5,0.1,0.8,0.2     c0.2,0.1,0.4,0.2,0.5,0.4c0.1,0.2,0.2,0.3,0.3,0.5s0.1,0.5,0.1,0.9V70.3z"/>
			<path class="st0" d="M53.5,68.9l1.3-0.2c0.1,0.3,0.2,0.4,0.3,0.6s0.4,0.2,0.7,0.2c0.3,0,0.6-0.1,0.8-0.2c0.1-0.1,0.2-0.2,0.2-0.3     c0-0.1,0-0.2-0.1-0.2c-0.1-0.1-0.2-0.1-0.4-0.2c-1-0.2-1.7-0.4-2-0.6c-0.4-0.3-0.6-0.6-0.6-1.1c0-0.4,0.2-0.8,0.5-1.1     c0.3-0.3,0.9-0.4,1.6-0.4c0.7,0,1.2,0.1,1.5,0.3c0.3,0.2,0.5,0.5,0.7,1l-1.2,0.2c-0.1-0.2-0.2-0.3-0.3-0.4s-0.4-0.2-0.6-0.2     c-0.3,0-0.6,0-0.7,0.1c-0.1,0.1-0.1,0.2-0.1,0.3c0,0.1,0,0.2,0.1,0.2c0.1,0.1,0.5,0.2,1.2,0.4s1.2,0.3,1.4,0.6     c0.3,0.2,0.4,0.6,0.4,1c0,0.4-0.2,0.8-0.6,1.2c-0.4,0.3-0.9,0.5-1.7,0.5c-0.7,0-1.2-0.1-1.6-0.4C53.9,69.7,53.6,69.4,53.5,68.9z"/>
			<path class="st0" d="M60.2,66.9L59,66.7c0.1-0.5,0.4-0.8,0.7-1c0.3-0.2,0.8-0.3,1.4-0.3c0.6,0,1,0.1,1.3,0.2     c0.3,0.1,0.5,0.3,0.6,0.5c0.1,0.2,0.2,0.6,0.2,1.2l0,1.5c0,0.4,0,0.7,0.1,1c0,0.2,0.1,0.4,0.2,0.7h-1.3c0-0.1-0.1-0.2-0.1-0.4     c0-0.1,0-0.1,0-0.2c-0.2,0.2-0.5,0.4-0.7,0.5c-0.3,0.1-0.5,0.2-0.8,0.2c-0.5,0-0.9-0.1-1.2-0.4c-0.3-0.3-0.4-0.6-0.4-1     c0-0.3,0.1-0.5,0.2-0.7c0.1-0.2,0.3-0.4,0.6-0.5c0.2-0.1,0.6-0.2,1-0.3c0.6-0.1,1-0.2,1.3-0.3V67c0-0.2-0.1-0.4-0.2-0.5     c-0.1-0.1-0.4-0.2-0.7-0.2c-0.2,0-0.4,0-0.5,0.1S60.3,66.7,60.2,66.9z M61.9,68c-0.2,0.1-0.4,0.1-0.8,0.2     c-0.4,0.1-0.6,0.2-0.7,0.2c-0.2,0.1-0.3,0.3-0.3,0.5c0,0.2,0.1,0.3,0.2,0.5c0.1,0.1,0.3,0.2,0.5,0.2c0.2,0,0.5-0.1,0.7-0.2     c0.2-0.1,0.3-0.3,0.3-0.4c0-0.1,0.1-0.3,0.1-0.6V68z"/>
			<path class="st0" d="M64.5,64.8v-1.2h1.3v1.2H64.5z M64.5,70.3v-4.9h1.3v4.9H64.5z"/>
		</g>
		<path class="st5" d="M35.5,32.7c0,1.5-1.2,2.8-2.8,2.8c-1.5,0-2.8-1.2-2.8-2.8c0-1.5,1.2-2.8,2.8-2.8    C34.3,29.9,35.5,31.2,35.5,32.7z"/>
	</g>
</g>
<g>
</g>
<g>
</g>
<g>
</g>
<g>
</g>
<g>
</g>
<g>
</g>
<g>
</g>
<g>
</g>
<g>
</g>
<g>
</g>
<g>
</g>
<g>
</g>
<g>
</g>
<g>
</g>
<g>
</g>
</svg>