<?xml version="1.0" encoding="UTF-8"?>
<!-- Generator: Adobe Illustrator 23.0.3, SVG Export Plug-In . SVG Version: 6.00 Build 0)  -->
<svg version="1.1" id="レイヤー_1" xmlns="http://www.w3.org/2000/svg" xmlns:xlink="http://www.w3.org/1999/xlink" x="0px" y="0px" width="431.9px" height="39.8px" viewBox="0 0 431.9 39.8" style="enable-background:new 0 0 431.9 39.8;" xml:space="preserve">
<style type="text/css">
	.st0{fill:none;stroke:#FFFFFF;stroke-width:1.8446;stroke-miterlimit:10;}
	.st1{fill:#8DC21F;stroke:#FFFFFF;stroke-width:0.736;stroke-miterlimit:10;}
	.st2{fill:none;stroke:#FFFFFF;stroke-width:1.8446;stroke-linejoin:round;stroke-miterlimit:10;}
	.st3{fill:#FFFFFF;stroke:#FFFFFF;stroke-width:1.8446;stroke-linejoin:round;stroke-miterlimit:10;}
	.st4{fill:#FFFFFF;stroke:#FFFFFF;stroke-width:0.736;stroke-miterlimit:10;}
	.st5{fill:#FFFFFF;}
</style>
<g>
	<g>
		<path class="st0" d="M19.9,36.8"/>
		<path class="st0" d="M19.9,36.8"/>
		<g>
			<path class="st1" d="M16,19.1c0,0.9-1,1.6-2.3,1.6c-1.3,0-2.3-0.7-2.3-1.6c0-0.9,1-1.6,2.3-1.6C14.9,17.5,16,18.2,16,19.1z"/>
			<path class="st2" d="M16,5.2v14.4c0,0,0.1,2.1-3.9,1.5c0,0-1.5-0.2-1.4-2.1c0,0,0-1.8,2-1.8h6.5"/>
			<line class="st2" x1="8.6" y1="9.6" x2="19" y2="9.6"/>
			<line class="st3" x1="26.9" y1="8.9" x2="26.9" y2="24"/>
			<path class="st2" d="M22.7,12.2h6.1L24.6,21c0,0,15.4-4.1,12.7,6.4c0,0-1.3,4.7-7.6,8.8"/>
			<path class="st2" d="M13.2,28.2c0,0,6.9,5.9,14.9,0"/>
			<path class="st0" d="M31.5,35"/>
			<path class="st0" d="M31.5,35c-3.2,2.5-7.2,3.9-11.5,3.9c-10.5,0-19-8.5-19-19s8.5-19,19-19c10.5,0,19,8.5,19,19"/>
		</g>
		<path class="st4" d="M22.4,24.1c0,1.1-0.9,2-2,2c-1.1,0-2-0.9-2-2c0-1.1,0.9-2,2-2C21.5,22.1,22.4,23,22.4,24.1z"/>
	</g>
	<g>
		<path class="st5" d="M69.8,34.3V22.1H57.6v12.2h-4V7.5h4v11.3h12.2V7.5h4v26.9H69.8z"/>
		<path class="st5" d="M97.2,34.3l-2.7-7.6H83.8L81,34.3h-4l9.6-26.9h5l9.6,26.9H97.2z M89.2,11.2h-0.1c-0.2,1.1-3.8,10.9-4.2,12.1    h8.4C93,22.2,89.3,12.2,89.2,11.2z"/>
		<path class="st5" d="M119.7,34.3l-9.8-18.1c-0.5-0.9-1.3-3.2-1.7-4.3h-0.1c0.1,1.6,0.2,4,0.2,6.4v16h-3.8V7.5h4.9l9.8,18    c0.7,1.3,1.6,3.3,1.9,4.2h0.1c-0.1-1.2-0.3-4.2-0.3-5.9V7.5h3.8v26.9H119.7z"/>
		<path class="st5" d="M131.3,34.3V7.5h4.1v26.9H131.3z"/>
		<path class="st5" d="M163.9,34.3h-4.5l-4.2-18.7c-0.2-1-0.3-3.3-0.4-4.2c0-0.2,0-0.3,0-0.3h-0.1c0,0.3-0.2,3.2-0.4,4.5l-4.1,18.7    h-4.6l-6.1-26.9h4l4,18.6c0.2,1,0.4,3.2,0.4,4.4h0.1c0.1-1.3,0.3-3.3,0.5-4.4l4-18.6h4.6l4.2,18.7c0.2,1,0.4,3,0.4,4.3h0.1    c0.1-1.3,0.2-3.2,0.4-4.2l3.9-18.7h3.9L163.9,34.3z"/>
		<path class="st5" d="M191,34.3l-2.7-7.6h-10.6l-2.8,7.6h-4l9.6-26.9h5l9.6,26.9H191z M183,11.2h-0.1c-0.2,1.1-3.8,10.9-4.2,12.1    h8.4C186.9,22.2,183.2,12.2,183,11.2z"/>
		<path class="st5" d="M220.6,34.9c-7.4,0-11.8-6.2-11.8-14.1c0-7.8,4.3-14,11.8-14c7.5,0,11.8,6.2,11.8,14    C232.4,28.8,228.1,34.9,220.6,34.9z M220.6,10.3c-4.5,0-7.8,4.3-7.8,10.6c0,6.2,3.1,10.6,7.8,10.6c4.6,0,7.7-4.4,7.7-10.6    C228.3,14.6,225.3,10.3,220.6,10.3z"/>
		<path class="st5" d="M249.5,12.9v2.4h3.6v3h-3.4v16h-3.8v-16h-4.3v16h-3.8v-16h-2.7v-3h2.7v-2.5c0-3.9,1.4-5.8,7.2-6l0.7,3.1    c-3.8,0-4.2,0.9-4.2,3v2.4h4.5v-2.5c0-3.9,1.4-5.8,7.2-6l0.7,3.1C250,10,249.5,10.8,249.5,12.9z M255,12V7.5h4V12H255z     M255.1,34.3v-19h3.8v19H255.1z"/>
		<path class="st5" d="M272.8,34.7c-5.1,0-9.7-3.3-9.7-9.9c0-6.4,4.3-9.9,9.7-9.9c3.1,0,5.4,1,7.2,2.8l-1.3,3    c-1.3-1.8-3.3-2.7-5.4-2.7c-3,0-6.4,2.1-6.4,6.8c0,4.7,3.2,6.8,6.4,6.8c2.1,0,4.3-1,5.5-2.8l1.3,2.8    C278.4,33.7,276.1,34.7,272.8,34.7z"/>
		<path class="st5" d="M284,12V7.5h4V12H284z M284,34.3v-19h3.8v19H284z"/>
		<path class="st5" d="M309.9,34.5c-0.5,0.1-1,0.2-1.4,0.2c-1.8,0-3.3-0.9-3.5-2.7c-1.1,1.7-4.1,2.7-7,2.7c-3.9,0-5.8-1.8-5.9-5    c0-0.1,0-0.1,0-0.2c0-3.7,2.5-5.5,6.6-6.4c2.8-0.7,5.3-1.7,5.3-2.8c0-1.9-1.4-2.5-4.1-2.5c-2,0-4.8,1.2-5.9,3l-1.6-2.8    c1.6-2,4.4-3.3,7.8-3.3c5,0,7.7,1.7,7.7,5.7v9.1c0,1.3,0.7,1.9,1.7,1.9c0.3,0,0.7-0.1,1.1-0.2L309.9,34.5z M304.1,23.8    c-0.8,0.8-2.6,1.4-4.6,2c-2.4,0.6-3.9,1.3-3.9,3.4c0,0.1,0,0.1,0,0.2c0.1,1.6,1.1,2.4,3,2.4c2,0,4.8-1.2,5.4-3.1V23.8z"/>
		<path class="st5" d="M313.5,34.3V7.5h3.9v26.9H313.5z"/>
		<path class="st5" d="M343.6,34.9c-5.2,0-8.7-2.8-10.1-7l3-2c1.1,3.2,3.9,5.5,7.1,5.5c3.5,0,5.5-1.7,5.5-4.2c0-2.3-1.4-3.7-4.6-4.8    l-3.9-1.3c-4.2-1.5-6.1-3.4-6.1-7c0-4,3.4-7.3,8.7-7.3c4.6,0,7.6,1.7,9.1,5.4l-3,2.1c-1-2.9-3.1-4.2-5.9-4.2    c-3.2,0-5.1,1.8-5.1,3.9c0,1.8,1.1,2.9,3.9,3.9l4,1.3c4.3,1.5,6.8,3.7,6.8,7.8C353.1,31.9,349.7,34.9,343.6,34.9z"/>
		<path class="st5" d="M357.8,12V7.5h4V12H357.8z M357.9,34.3v-19h3.8v19H357.9z"/>
		<path class="st5" d="M375.5,34.7c-5.5,0-7.4-1.2-7.4-5.4V18.3h-2.7v-3h2.8v-6h3.6v6h3.4v3h-3.4v10.4c0,2.7,0.6,2.9,4.4,2.9    L375.5,34.7z"/>
		<path class="st5" d="M381.8,26.6c0.4,3.1,2.8,5.1,6,5.1c2.6,0,5.1-1.4,6.3-3.7l1.9,2.4c-1.8,2.8-4.4,4.4-8.4,4.4    c-5.5,0-9.3-3.9-9.3-9.9c0-5.7,3.5-9.9,9.2-9.9c5.2,0,8.7,3.6,8.7,9.3c0,0.2,0,0.4,0,0.6L381.8,26.6z M387.4,17.9    c-3.3,0-5.5,2.2-5.7,5.9l10.8-1.4C392.3,19.7,390.3,17.9,387.4,17.9z"/>
	</g>
	<polygon class="st5" points="418.3,8.9 414.7,12.5 424.7,22.5 414.7,32.5 418.3,36.1 431.9,22.5  "/>
</g>
<g>
</g>
<g>
</g>
<g>
</g>
<g>
</g>
<g>
</g>
<g>
</g>
<g>
</g>
<g>
</g>
<g>
</g>
<g>
</g>
<g>
</g>
<g>
</g>
<g>
</g>
<g>
</g>
<g>
</g>
</svg>