<?xml version="1.0" encoding="UTF-8"?>
<!-- Generator: Adobe Illustrator 23.0.3, SVG Export Plug-In . SVG Version: 6.00 Build 0)  -->
<svg version="1.1" id="レイヤー_1" xmlns="http://www.w3.org/2000/svg" xmlns:xlink="http://www.w3.org/1999/xlink" x="0px" y="0px" width="240px" height="42px" viewBox="0 0 240 42" style="enable-background:new 0 0 240 42;" xml:space="preserve">
<style type="text/css">
	.st0{fill:#C8C9CA;}
	.st1{fill:none;stroke:#231815;stroke-width:1.165;stroke-miterlimit:10;}
	.st2{fill:#8DC21F;}
	.st3{fill:none;stroke:#231815;stroke-width:1.165;stroke-linejoin:round;stroke-miterlimit:10;}
	.st4{fill:#FFFFFF;stroke:#231815;stroke-width:1.165;stroke-linejoin:round;stroke-miterlimit:10;}
	.st5{fill:#8FC31F;}
	.st6{fill:#231815;}
</style>
<g>
	<path class="st0" d="M239,1v40H1V1H239 M240,0H0v42h240V0L240,0z"/>
</g>
<g>
	<path class="st1" d="M21.6,31.7"/>
	<path class="st1" d="M21.6,31.6"/>
	<g>
		<path class="st2" d="M19.1,20.5c0,0.6-0.6,1-1.4,1c-0.8,0-1.4-0.5-1.4-1c0-0.6,0.6-1,1.4-1C18.4,19.5,19.1,19.9,19.1,20.5z"/>
		<path class="st3" d="M19.1,11.7v9.1c0,0,0.1,1.3-2.5,1c0,0-1-0.1-0.9-1.3c0,0,0-1.1,1.3-1.1h4.1"/>
		<line class="st3" x1="14.4" y1="14.5" x2="21" y2="14.5"/>
		<line class="st4" x1="26" y1="14" x2="26" y2="23.6"/>
		<path class="st3" d="M23.4,16.1h3.8l-2.6,5.6c0,0,9.7-2.6,8,4c0,0-0.8,2.9-4.8,5.6"/>
		<path class="st3" d="M17.3,26.2c0,0,4.3,3.7,9.4,0"/>
		<path class="st1" d="M28.9,30.5"/>
		<path class="st1" d="M28.9,30.5c-2,1.5-4.5,2.5-7.3,2.5c-6.6,0-12-5.4-12-12c0-6.6,5.4-12,12-12c6.6,0,12,5.4,12,12"/>
	</g>
	<path class="st5" d="M23.2,23.6c0,0.7-0.6,1.3-1.3,1.3c-0.7,0-1.3-0.6-1.3-1.3c0-0.7,0.6-1.3,1.3-1.3   C22.6,22.4,23.2,22.9,23.2,23.6z"/>
</g>
<g>
	<path class="st6" d="M49,27.2v-5.7h-5.7v5.7h-1.9V14.8h1.9V20H49v-5.2h1.9v12.5H49z"/>
	<path class="st6" d="M61.8,27.2l-1.3-3.6h-4.9l-1.3,3.6h-1.9l4.5-12.5h2.3l4.5,12.5H61.8z M58.1,16.5L58.1,16.5   c-0.1,0.5-1.8,5.1-2,5.6H60C59.8,21.6,58.1,17,58.1,16.5z"/>
	<path class="st6" d="M72.2,27.2l-4.6-8.4c-0.2-0.4-0.6-1.5-0.8-2h0c0,0.8,0.1,1.9,0.1,3v7.5h-1.7V14.8h2.3l4.6,8.4   c0.3,0.6,0.8,1.6,0.9,2h0c0-0.5-0.1-2-0.1-2.8v-7.6h1.7v12.5H72.2z"/>
	<path class="st6" d="M77.6,27.2V14.8h1.9v12.5H77.6z"/>
	<path class="st6" d="M92.8,27.2h-2.1l-1.9-8.7c-0.1-0.5-0.2-1.6-0.2-2c0-0.1,0-0.1,0-0.1h0c0,0.1-0.1,1.5-0.2,2.1l-1.9,8.7h-2.1   l-2.8-12.5h1.9l1.9,8.6c0.1,0.5,0.2,1.5,0.2,2.1h0c0.1-0.6,0.1-1.5,0.2-2l1.8-8.7h2.1l1.9,8.7c0.1,0.4,0.2,1.4,0.2,2h0   c0-0.6,0.1-1.5,0.2-2l1.8-8.7h1.8L92.8,27.2z"/>
	<path class="st6" d="M105.4,27.2l-1.3-3.6h-4.9l-1.3,3.6H96l4.5-12.5h2.3l4.5,12.5H105.4z M101.7,16.5L101.7,16.5   c-0.1,0.5-1.8,5.1-2,5.6h3.9C103.5,21.6,101.8,17,101.7,16.5z"/>
	<path class="st6" d="M119.1,27.5c-3.5,0-5.5-2.9-5.5-6.5c0-3.6,2-6.5,5.5-6.5c3.5,0,5.5,2.9,5.5,6.5   C124.6,24.7,122.6,27.5,119.1,27.5z M119.1,16.1c-2.1,0-3.6,2-3.6,4.9c0,2.9,1.5,4.9,3.6,4.9c2.1,0,3.6-2,3.6-4.9   C122.7,18.1,121.3,16.1,119.1,16.1z"/>
	<path class="st6" d="M132.6,17.3v1.1h1.7v1.4h-1.6v7.5h-1.7v-7.5h-2v7.5h-1.7v-7.5h-1.2v-1.4h1.2v-1.2c0-1.8,0.6-2.7,3.3-2.8   l0.3,1.4c-1.8,0-2,0.4-2,1.4v1.1h2.1v-1.2c0-1.8,0.6-2.7,3.3-2.8l0.3,1.4C132.8,15.9,132.6,16.3,132.6,17.3z M135.2,16.9v-2.1h1.9   v2.1H135.2z M135.2,27.2v-8.9h1.8v8.9H135.2z"/>
	<path class="st6" d="M143.4,27.4c-2.4,0-4.5-1.6-4.5-4.6c0-3,2-4.6,4.5-4.6c1.5,0,2.5,0.4,3.3,1.3l-0.6,1.4   c-0.6-0.8-1.5-1.3-2.5-1.3c-1.4,0-3,1-3,3.2c0,2.2,1.5,3.2,3,3.2c1,0,2-0.4,2.6-1.3l0.6,1.3C146,27,145,27.4,143.4,27.4z"/>
	<path class="st6" d="M148.6,16.9v-2.1h1.9v2.1H148.6z M148.6,27.2v-8.9h1.8v8.9H148.6z"/>
	<path class="st6" d="M160.6,27.3c-0.2,0-0.4,0.1-0.7,0.1c-0.8,0-1.6-0.4-1.6-1.2c-0.5,0.8-1.9,1.2-3.3,1.2c-1.8,0-2.7-0.8-2.7-2.3   c0,0,0-0.1,0-0.1c0-1.7,1.2-2.6,3.1-3c1.3-0.3,2.5-0.8,2.5-1.3c0-0.9-0.7-1.2-1.9-1.2c-0.9,0-2.2,0.6-2.8,1.4l-0.8-1.3   c0.7-0.9,2.1-1.5,3.6-1.5c2.3,0,3.6,0.8,3.6,2.7v4.2c0,0.6,0.3,0.9,0.8,0.9c0.1,0,0.3,0,0.5-0.1L160.6,27.3z M158,22.3   c-0.4,0.4-1.2,0.7-2.1,0.9c-1.1,0.3-1.8,0.6-1.8,1.6c0,0,0,0.1,0,0.1c0,0.7,0.5,1.1,1.4,1.1c0.9,0,2.2-0.5,2.5-1.4V22.3z"/>
	<path class="st6" d="M162.3,27.2V14.8h1.8v12.5H162.3z"/>
	<path class="st6" d="M176.3,27.5c-2.4,0-4-1.3-4.7-3.2l1.4-0.9c0.5,1.5,1.8,2.6,3.3,2.6c1.6,0,2.6-0.8,2.6-1.9   c0-1.1-0.7-1.7-2.2-2.2l-1.8-0.6c-2-0.7-2.8-1.6-2.8-3.3c0-1.9,1.6-3.4,4.1-3.4c2.1,0,3.5,0.8,4.2,2.5l-1.4,1c-0.5-1.3-1.4-2-2.8-2   c-1.5,0-2.4,0.8-2.4,1.8c0,0.8,0.5,1.4,1.8,1.8l1.9,0.6c2,0.7,3.2,1.7,3.2,3.6C180.8,26.1,179.2,27.5,176.3,27.5z"/>
	<path class="st6" d="M182.9,16.9v-2.1h1.9v2.1H182.9z M183,27.2v-8.9h1.8v8.9H183z"/>
	<path class="st6" d="M191.1,27.4c-2.5,0-3.4-0.5-3.4-2.5v-5.1h-1.2v-1.4h1.3v-2.8h1.7v2.8h1.6v1.4h-1.6v4.8c0,1.2,0.3,1.3,2,1.3   L191.1,27.4z"/>
	<path class="st6" d="M194.1,23.7c0.2,1.5,1.3,2.4,2.8,2.4c1.2,0,2.4-0.6,2.9-1.7l0.9,1.1c-0.8,1.3-2,2-3.9,2   c-2.6,0-4.3-1.8-4.3-4.6c0-2.7,1.6-4.6,4.3-4.6c2.4,0,4,1.7,4,4.3c0,0.1,0,0.2,0,0.3L194.1,23.7z M196.7,19.6c-1.5,0-2.6,1-2.6,2.7   l5-0.7C198.9,20.5,198,19.6,196.7,19.6z"/>
</g>
<polygon class="st5" points="211.1,14.7 209.4,16.4 214,21 209.4,25.6 211.1,27.3 217.4,21 "/>
<g>
</g>
<g>
</g>
<g>
</g>
<g>
</g>
<g>
</g>
<g>
</g>
<g>
</g>
<g>
</g>
<g>
</g>
<g>
</g>
<g>
</g>
<g>
</g>
<g>
</g>
<g>
</g>
<g>
</g>
</svg>