<?xml version="1.0" encoding="UTF-8"?>
<!-- Generator: Adobe Illustrator 22.1.0, SVG Export Plug-In . SVG Version: 6.00 Build 0)  -->
<svg version="1.1" id="レイヤー_1" xmlns="http://www.w3.org/2000/svg" xmlns:xlink="http://www.w3.org/1999/xlink" x="0px" y="0px" viewBox="0 0 55 37" style="enable-background:new 0 0 55 37;" xml:space="preserve">
<style type="text/css">
	.st0{clip-path:url(#SVGID_2_);}
	.st1{fill:#BC183C;}
	.st2{fill:#FFFFFF;}
	.st3{clip-path:url(#SVGID_2_);fill:#014074;}
	.st4{fill:none;stroke:#060001;stroke-width:0.1807;stroke-miterlimit:10;}
</style>
<g>
	<g>
		<defs>
			<rect id="SVGID_1_" x="0.5" y="0.5" width="54" height="36"/>
		</defs>
		<clipPath id="SVGID_2_">
			<use xlink:href="#SVGID_1_" style="overflow:visible;"/>
		</clipPath>
		<g class="st0">
			<rect x="0.2" y="0.5" class="st1" width="54.3" height="2.8"/>
			<rect x="0.2" y="3.3" class="st2" width="54.3" height="2.8"/>
			<rect x="0.2" y="6" class="st1" width="54.3" height="2.8"/>
			<rect x="0.2" y="8.8" class="st2" width="54.3" height="2.8"/>
			<rect x="0.2" y="11.6" class="st1" width="54.3" height="2.8"/>
			<rect x="0.2" y="14.3" class="st2" width="54.3" height="2.8"/>
			<rect x="0.2" y="17.1" class="st1" width="54.3" height="2.8"/>
			<rect x="0.2" y="19.9" class="st2" width="54.3" height="2.8"/>
			<rect x="0.2" y="19.9" class="st2" width="54.3" height="2.8"/>
			<rect x="0.2" y="22.7" class="st1" width="54.3" height="2.8"/>
			<rect x="0.2" y="25.4" class="st2" width="54.3" height="2.8"/>
			<rect x="0.2" y="28.2" class="st1" width="54.3" height="2.8"/>
			<rect x="0.2" y="31" class="st2" width="54.3" height="2.8"/>
			<rect x="0.2" y="33.7" class="st1" width="54.3" height="2.8"/>
		</g>
		<rect x="-1.6" y="-1.1" class="st3" width="27" height="21"/>
		<g class="st0">
			<g>
				<polygon class="st2" points="22.4,-11.5 22.9,-10.1 24.3,-10.1 23.2,-9.2 23.6,-7.8 22.4,-8.6 21.2,-7.8 21.6,-9.2 20.5,-10.1       21.9,-10.1     "/>
				<polygon class="st2" points="15.5,-11.5 16,-10.1 17.4,-10.1 16.3,-9.2 16.7,-7.8 15.5,-8.6 14.3,-7.8 14.7,-9.2 13.5,-10.1       15,-10.1     "/>
				<polygon class="st2" points="8.6,-11.5 9,-10.1 10.5,-10.1 9.3,-9.2 9.8,-7.8 8.6,-8.6 7.4,-7.8 7.8,-9.2 6.6,-10.1 8.1,-10.1           "/>
				<polygon class="st2" points="1.6,-11.5 2.1,-10.1 3.6,-10.1 2.4,-9.2 2.8,-7.8 1.6,-8.6 0.4,-7.8 0.8,-9.2 -0.3,-10.1       1.1,-10.1     "/>
				<polygon class="st2" points="-5.3,-11.5 -4.8,-10.1 -3.4,-10.1 -4.5,-9.2 -4.1,-7.8 -5.3,-8.6 -6.5,-7.8 -6.1,-9.2 -7.2,-10.1       -5.8,-10.1     "/>
				<polygon class="st2" points="-12.2,-11.5 -11.7,-10.1 -10.3,-10.1 -11.4,-9.2 -11,-7.8 -12.2,-8.6 -13.4,-7.8 -13,-9.2       -14.2,-10.1 -12.7,-10.1     "/>
			</g>
			<g>
				<polygon class="st2" points="18.9,-8.1 19.4,-6.7 20.9,-6.7 19.7,-5.8 20.1,-4.4 18.9,-5.2 17.7,-4.4 18.2,-5.8 17,-6.7       18.5,-6.7     "/>
				<polygon class="st2" points="12,-8.1 12.5,-6.7 14,-6.7 12.8,-5.8 13.2,-4.4 12,-5.2 10.8,-4.4 11.2,-5.8 10.1,-6.7 11.5,-6.7           "/>
				<polygon class="st2" points="5.1,-8.1 5.6,-6.7 7,-6.7 5.9,-5.8 6.3,-4.4 5.1,-5.2 3.9,-4.4 4.3,-5.8 3.2,-6.7 4.6,-6.7     "/>
				<polygon class="st2" points="-1.8,-8.1 -1.4,-6.7 0.1,-6.7 -1.1,-5.8 -0.6,-4.4 -1.8,-5.2 -3,-4.4 -2.6,-5.8 -3.8,-6.7       -2.3,-6.7     "/>
				<polygon class="st2" points="-8.8,-8.1 -8.3,-6.7 -6.8,-6.7 -8,-5.8 -7.6,-4.4 -8.8,-5.2 -10,-4.4 -9.5,-5.8 -10.7,-6.7       -9.3,-6.7     "/>
			</g>
			<g>
				<polygon class="st2" points="22.4,-4.7 22.9,-3.3 24.3,-3.3 23.2,-2.4 23.6,-1 22.4,-1.8 21.2,-1 21.6,-2.4 20.5,-3.3       21.9,-3.3     "/>
				<polygon class="st2" points="15.5,-4.7 16,-3.3 17.4,-3.3 16.3,-2.4 16.7,-1 15.5,-1.8 14.3,-1 14.7,-2.4 13.5,-3.3 15,-3.3           "/>
				<polygon class="st2" points="8.6,-4.7 9,-3.3 10.5,-3.3 9.3,-2.4 9.8,-1 8.6,-1.8 7.4,-1 7.8,-2.4 6.6,-3.3 8.1,-3.3     "/>
				<polygon class="st2" points="1.6,-4.7 2.1,-3.3 3.6,-3.3 2.4,-2.4 2.8,-1 1.6,-1.8 0.4,-1 0.8,-2.4 -0.3,-3.3 1.1,-3.3     "/>
				<polygon class="st2" points="-5.3,-4.7 -4.8,-3.3 -3.4,-3.3 -4.5,-2.4 -4.1,-1 -5.3,-1.8 -6.5,-1 -6.1,-2.4 -7.2,-3.3       -5.8,-3.3     "/>
				<polygon class="st2" points="-12.2,-4.7 -11.7,-3.3 -10.3,-3.3 -11.4,-2.4 -11,-1 -12.2,-1.8 -13.4,-1 -13,-2.4 -14.2,-3.3       -12.7,-3.3     "/>
			</g>
			<g>
				<polygon class="st2" points="18.9,-1.3 19.4,0.1 20.9,0.1 19.7,1 20.1,2.4 18.9,1.5 17.7,2.4 18.2,1 17,0.1 18.5,0.1     "/>
				<polygon class="st2" points="12,-1.3 12.5,0.1 14,0.1 12.8,1 13.2,2.4 12,1.5 10.8,2.4 11.2,1 10.1,0.1 11.5,0.1     "/>
				<polygon class="st2" points="5.1,-1.3 5.6,0.1 7,0.1 5.9,1 6.3,2.4 5.1,1.5 3.9,2.4 4.3,1 3.2,0.1 4.6,0.1     "/>
				<polygon class="st2" points="-1.8,-1.3 -1.4,0.1 0.1,0.1 -1.1,1 -0.6,2.4 -1.8,1.5 -3,2.4 -2.6,1 -3.8,0.1 -2.3,0.1     "/>
				<polygon class="st2" points="-8.8,-1.3 -8.3,0.1 -6.8,0.1 -8,1 -7.6,2.4 -8.8,1.5 -10,2.4 -9.5,1 -10.7,0.1 -9.3,0.1     "/>
			</g>
			<g>
				<polygon class="st2" points="22.4,2 22.9,3.4 24.3,3.4 23.2,4.4 23.6,5.7 22.4,4.9 21.2,5.7 21.6,4.4 20.5,3.4 21.9,3.4     "/>
				<polygon class="st2" points="15.5,2 16,3.4 17.4,3.4 16.3,4.4 16.7,5.7 15.5,4.9 14.3,5.7 14.7,4.4 13.5,3.4 15,3.4     "/>
				<polygon class="st2" points="8.6,2 9,3.4 10.5,3.4 9.3,4.4 9.8,5.7 8.6,4.9 7.4,5.7 7.8,4.4 6.6,3.4 8.1,3.4     "/>
				<polygon class="st2" points="1.6,2 2.1,3.4 3.6,3.4 2.4,4.4 2.8,5.7 1.6,4.9 0.4,5.7 0.8,4.4 -0.3,3.4 1.1,3.4     "/>
				<polygon class="st2" points="-5.3,2 -4.8,3.4 -3.4,3.4 -4.5,4.4 -4.1,5.7 -5.3,4.9 -6.5,5.7 -6.1,4.4 -7.2,3.4 -5.8,3.4     "/>
				<polygon class="st2" points="-12.2,2 -11.7,3.4 -10.3,3.4 -11.4,4.4 -11,5.7 -12.2,4.9 -13.4,5.7 -13,4.4 -14.2,3.4 -12.7,3.4           "/>
			</g>
			<g>
				<polygon class="st2" points="18.9,5.4 19.4,6.8 20.9,6.8 19.7,7.7 20.1,9.1 18.9,8.3 17.7,9.1 18.2,7.7 17,6.8 18.5,6.8     "/>
				<polygon class="st2" points="12,5.4 12.5,6.8 14,6.8 12.8,7.7 13.2,9.1 12,8.3 10.8,9.1 11.2,7.7 10.1,6.8 11.5,6.8     "/>
				<polygon class="st2" points="5.1,5.4 5.6,6.8 7,6.8 5.9,7.7 6.3,9.1 5.1,8.3 3.9,9.1 4.3,7.7 3.2,6.8 4.6,6.8     "/>
				<polygon class="st2" points="-1.8,5.4 -1.4,6.8 0.1,6.8 -1.1,7.7 -0.6,9.1 -1.8,8.3 -3,9.1 -2.6,7.7 -3.8,6.8 -2.3,6.8     "/>
				<polygon class="st2" points="-8.8,5.4 -8.3,6.8 -6.8,6.8 -8,7.7 -7.6,9.1 -8.8,8.3 -10,9.1 -9.5,7.7 -10.7,6.8 -9.3,6.8     "/>
			</g>
			<g>
				<polygon class="st2" points="22.4,8.8 22.9,10.2 24.3,10.2 23.2,11.1 23.6,12.5 22.4,11.7 21.2,12.5 21.6,11.1 20.5,10.2       21.9,10.2     "/>
				<polygon class="st2" points="15.5,8.8 16,10.2 17.4,10.2 16.3,11.1 16.7,12.5 15.5,11.7 14.3,12.5 14.7,11.1 13.5,10.2 15,10.2           "/>
				<polygon class="st2" points="8.6,8.8 9,10.2 10.5,10.2 9.3,11.1 9.8,12.5 8.6,11.7 7.4,12.5 7.8,11.1 6.6,10.2 8.1,10.2     "/>
				<polygon class="st2" points="1.6,8.8 2.1,10.2 3.6,10.2 2.4,11.1 2.8,12.5 1.6,11.7 0.4,12.5 0.8,11.1 -0.3,10.2 1.1,10.2           "/>
				<polygon class="st2" points="-5.3,8.8 -4.8,10.2 -3.4,10.2 -4.5,11.1 -4.1,12.5 -5.3,11.7 -6.5,12.5 -6.1,11.1 -7.2,10.2       -5.8,10.2     "/>
				<polygon class="st2" points="-12.2,8.8 -11.7,10.2 -10.3,10.2 -11.4,11.1 -11,12.5 -12.2,11.7 -13.4,12.5 -13,11.1 -14.2,10.2       -12.7,10.2     "/>
			</g>
			<g>
				<polygon class="st2" points="18.9,12.2 19.4,13.6 20.9,13.6 19.7,14.5 20.1,15.9 18.9,15.1 17.7,15.9 18.2,14.5 17,13.6       18.5,13.6     "/>
				<polygon class="st2" points="12,12.2 12.5,13.6 14,13.6 12.8,14.5 13.2,15.9 12,15.1 10.8,15.9 11.2,14.5 10.1,13.6 11.5,13.6           "/>
				<polygon class="st2" points="5.1,12.2 5.6,13.6 7,13.6 5.9,14.5 6.3,15.9 5.1,15.1 3.9,15.9 4.3,14.5 3.2,13.6 4.6,13.6     "/>
				<polygon class="st2" points="-1.8,12.2 -1.4,13.6 0.1,13.6 -1.1,14.5 -0.6,15.9 -1.8,15.1 -3,15.9 -2.6,14.5 -3.8,13.6       -2.3,13.6     "/>
				<polygon class="st2" points="-8.8,12.2 -8.3,13.6 -6.8,13.6 -8,14.5 -7.6,15.9 -8.8,15.1 -10,15.9 -9.5,14.5 -10.7,13.6       -9.3,13.6     "/>
			</g>
			<g>
				<polygon class="st2" points="22.4,15.5 22.9,16.9 24.3,17 23.2,17.9 23.6,19.2 22.4,18.4 21.2,19.2 21.6,17.9 20.5,17       21.9,16.9     "/>
				<polygon class="st2" points="15.5,15.5 16,16.9 17.4,17 16.3,17.9 16.7,19.2 15.5,18.4 14.3,19.2 14.7,17.9 13.5,17 15,16.9           "/>
				<polygon class="st2" points="8.6,15.5 9,16.9 10.5,17 9.3,17.9 9.8,19.2 8.6,18.4 7.4,19.2 7.8,17.9 6.6,17 8.1,16.9     "/>
				<polygon class="st2" points="1.6,15.5 2.1,16.9 3.6,17 2.4,17.9 2.8,19.2 1.6,18.4 0.4,19.2 0.8,17.9 -0.3,17 1.1,16.9     "/>
				<polygon class="st2" points="-5.3,15.5 -4.8,16.9 -3.4,17 -4.5,17.9 -4.1,19.2 -5.3,18.4 -6.5,19.2 -6.1,17.9 -7.2,17       -5.8,16.9     "/>
				<polygon class="st2" points="-12.2,15.5 -11.7,16.9 -10.3,17 -11.4,17.9 -11,19.2 -12.2,18.4 -13.4,19.2 -13,17.9 -14.2,17       -12.7,16.9     "/>
			</g>
		</g>
	</g>
	<rect x="0.5" y="0.5" class="st4" width="54" height="36"/>
</g>
</svg>