<?xml version="1.0" encoding="UTF-8"?>
<!-- Generator: Adobe Illustrator 23.0.3, SVG Export Plug-In . SVG Version: 6.00 Build 0)  -->
<svg version="1.1" id="レイヤー_1" xmlns="http://www.w3.org/2000/svg" xmlns:xlink="http://www.w3.org/1999/xlink" x="0px" y="0px" width="55px" height="37px" viewBox="0 0 55 37" style="enable-background:new 0 0 55 37;" xml:space="preserve">
<style type="text/css">
	.st0{fill:#C81C1F;stroke:#060001;stroke-width:0.1784;stroke-miterlimit:10;}
	.st1{fill:#E8B72A;}
</style>
<g>
	<rect x="0.5" y="0.5" class="st0" width="54" height="36"/>
	<g>
		<g>
			<polygon class="st1" points="18.5,10.4 18.9,11.4 20,11.4 19.1,12.1 19.4,13.1 18.5,12.5 17.7,13.1 18,12.1 17.1,11.4 18.2,11.4         "/>
			<polygon class="st1" points="15.5,14.2 15.3,15.3 16.3,15.8 15.2,16 15,17.1 14.5,16.1 13.4,16.3 14.2,15.5 13.7,14.5 14.7,15         "/>
			<polygon class="st1" points="19.5,5.9 19.1,6.9 19.9,7.6 18.9,7.6 18.5,8.6 18.1,7.6 17.1,7.5 17.9,6.9 17.7,5.8 18.6,6.5    "/>
			<polygon class="st1" points="15.8,2.2 15.9,3.3 16.9,3.6 15.9,4 15.9,5.1 15.2,4.3 14.2,4.7 14.8,3.8 14.1,2.9 15.2,3.1    "/>
		</g>
		<polygon class="st1" points="7.3,4.7 8.2,7.3 10.9,7.3 8.7,9 9.5,11.5 7.3,10.1 5.1,11.5 5.8,9 3.7,7.3 6.4,7.3   "/>
	</g>
</g>
<g>
</g>
<g>
</g>
<g>
</g>
<g>
</g>
<g>
</g>
<g>
</g>
<g>
</g>
<g>
</g>
<g>
</g>
<g>
</g>
<g>
</g>
<g>
</g>
<g>
</g>
<g>
</g>
<g>
</g>
</svg>