<?xml version="1.0" encoding="UTF-8"?>
<!-- Generator: Adobe Illustrator 23.0.3, SVG Export Plug-In . SVG Version: 6.00 Build 0)  -->
<svg version="1.1" id="レイヤー_1" xmlns="http://www.w3.org/2000/svg" xmlns:xlink="http://www.w3.org/1999/xlink" x="0px" y="0px" width="154.2px" height="116.2px" viewBox="0 0 154.2 116.2" style="enable-background:new 0 0 154.2 116.2;" xml:space="preserve">
<style type="text/css">
	.st0{fill:#595757;}
</style>
<g>
	<g>
		<g>
			<path class="st0" d="M3.3,54.3l1.9-0.3c0,1.2,0.3,2,0.7,2.5s1,0.7,1.7,0.7c0.5,0,1-0.1,1.4-0.4c0.4-0.2,0.6-0.6,0.8-1     c0.1-0.4,0.2-1.1,0.2-2V43.1H12v10.7c0,1.3-0.2,2.3-0.5,3.1c-0.3,0.7-0.8,1.3-1.5,1.7c-0.7,0.4-1.5,0.6-2.4,0.6     c-1.4,0-2.4-0.4-3.2-1.2C3.6,57.1,3.3,55.9,3.3,54.3z"/>
			<path class="st0" d="M23.9,57.4c-0.7,0.6-1.4,1-2.1,1.3c-0.7,0.3-1.4,0.4-2.1,0.4c-1.3,0-2.2-0.3-2.9-0.9c-0.7-0.6-1-1.4-1-2.3     c0-0.6,0.1-1.1,0.4-1.5c0.3-0.5,0.6-0.8,1-1.1c0.4-0.3,0.9-0.5,1.4-0.6c0.4-0.1,1-0.2,1.7-0.3c1.6-0.2,2.7-0.4,3.4-0.7     c0-0.3,0-0.4,0-0.5c0-0.8-0.2-1.3-0.5-1.7C22.7,49,22,48.7,21,48.7c-0.9,0-1.6,0.2-2,0.5c-0.4,0.3-0.8,0.9-1,1.7l-1.9-0.3     c0.2-0.8,0.5-1.5,0.8-2c0.4-0.5,1-0.9,1.7-1.2c0.7-0.3,1.6-0.4,2.6-0.4c1,0,1.8,0.1,2.4,0.3s1.1,0.5,1.3,0.9     c0.3,0.3,0.5,0.8,0.6,1.3c0.1,0.3,0.1,0.9,0.1,1.8V54c0,1.8,0,2.9,0.1,3.4c0.1,0.5,0.2,0.9,0.5,1.4h-2     C24.1,58.4,24,57.9,23.9,57.4z M23.7,53.1c-0.7,0.3-1.8,0.5-3.2,0.7c-0.8,0.1-1.4,0.2-1.7,0.4s-0.6,0.4-0.8,0.6     c-0.2,0.3-0.3,0.6-0.3,0.9c0,0.5,0.2,0.9,0.6,1.3c0.4,0.3,1,0.5,1.7,0.5c0.7,0,1.4-0.2,2-0.5c0.6-0.3,1-0.8,1.3-1.3     c0.2-0.4,0.3-1.1,0.3-1.9V53.1z"/>
			<path class="st0" d="M30,63.2V47.4h1.8v1.5c0.4-0.6,0.9-1,1.4-1.3c0.5-0.3,1.2-0.4,1.9-0.4c1,0,1.8,0.3,2.6,0.8s1.3,1.2,1.7,2.1     c0.4,0.9,0.6,1.9,0.6,3c0,1.2-0.2,2.2-0.6,3.2c-0.4,0.9-1,1.7-1.8,2.1c-0.8,0.5-1.6,0.7-2.5,0.7c-0.6,0-1.2-0.1-1.7-0.4     c-0.5-0.3-0.9-0.6-1.3-1v5.6H30z M31.8,53.2c0,1.5,0.3,2.6,0.9,3.3s1.3,1.1,2.2,1.1c0.9,0,1.6-0.4,2.2-1.1     c0.6-0.7,0.9-1.9,0.9-3.4c0-1.5-0.3-2.5-0.9-3.3c-0.6-0.7-1.3-1.1-2.1-1.1c-0.8,0-1.6,0.4-2.2,1.2C32.1,50.6,31.8,51.7,31.8,53.2     z"/>
			<path class="st0" d="M51,57.4c-0.7,0.6-1.4,1-2.1,1.3c-0.7,0.3-1.4,0.4-2.1,0.4c-1.3,0-2.2-0.3-2.9-0.9c-0.7-0.6-1-1.4-1-2.3     c0-0.6,0.1-1.1,0.4-1.5c0.3-0.5,0.6-0.8,1-1.1c0.4-0.3,0.9-0.5,1.4-0.6c0.4-0.1,1-0.2,1.7-0.3c1.6-0.2,2.7-0.4,3.4-0.7     c0-0.3,0-0.4,0-0.5c0-0.8-0.2-1.3-0.5-1.7c-0.5-0.4-1.2-0.7-2.2-0.7c-0.9,0-1.6,0.2-2,0.5c-0.4,0.3-0.8,0.9-1,1.7l-1.9-0.3     c0.2-0.8,0.5-1.5,0.8-2c0.4-0.5,1-0.9,1.7-1.2c0.7-0.3,1.6-0.4,2.6-0.4c1,0,1.8,0.1,2.4,0.3s1.1,0.5,1.3,0.9     c0.3,0.3,0.5,0.8,0.6,1.3c0.1,0.3,0.1,0.9,0.1,1.8V54c0,1.8,0,2.9,0.1,3.4c0.1,0.5,0.2,0.9,0.5,1.4h-2     C51.2,58.4,51.1,57.9,51,57.4z M50.9,53.1c-0.7,0.3-1.8,0.5-3.2,0.7c-0.8,0.1-1.4,0.2-1.7,0.4s-0.6,0.4-0.8,0.6     c-0.2,0.3-0.3,0.6-0.3,0.9c0,0.5,0.2,0.9,0.6,1.3c0.4,0.3,1,0.5,1.7,0.5c0.7,0,1.4-0.2,2-0.5c0.6-0.3,1-0.8,1.3-1.3     c0.2-0.4,0.3-1.1,0.3-1.9V53.1z"/>
			<path class="st0" d="M57.1,58.8V47.4h1.7V49c0.8-1.3,2-1.9,3.6-1.9c0.7,0,1.3,0.1,1.9,0.4c0.6,0.2,1,0.6,1.3,1s0.5,0.9,0.6,1.4     c0.1,0.4,0.1,1,0.1,1.9v7h-1.9v-6.9c0-0.8-0.1-1.4-0.2-1.8c-0.2-0.4-0.4-0.7-0.8-0.9c-0.4-0.2-0.8-0.3-1.3-0.3     c-0.8,0-1.5,0.3-2.1,0.8c-0.6,0.5-0.9,1.5-0.9,3v6.2H57.1z"/>
			<path class="st0" d="M11.4,93.2v-5.6c-0.3,0.4-0.7,0.8-1.3,1.1c-0.5,0.3-1.1,0.4-1.7,0.4c-1.4,0-2.5-0.5-3.5-1.6     c-1-1.1-1.5-2.6-1.5-4.4c0-1.1,0.2-2.2,0.6-3.1c0.4-0.9,1-1.6,1.7-2.1c0.8-0.5,1.6-0.7,2.5-0.7c1.4,0,2.5,0.6,3.3,1.8v-1.5h1.7     v15.8H11.4z M5.4,83.1c0,1.5,0.3,2.6,0.9,3.3c0.6,0.7,1.4,1.1,2.2,1.1c0.8,0,1.5-0.3,2.1-1c0.6-0.7,0.9-1.8,0.9-3.2     c0-1.5-0.3-2.7-0.9-3.4C10,79,9.3,78.7,8.5,78.7c-0.8,0-1.5,0.4-2.1,1.1C5.7,80.4,5.4,81.6,5.4,83.1z"/>
			<path class="st0" d="M25.2,88.8v-1.7c-0.9,1.3-2.1,1.9-3.6,1.9c-0.7,0-1.3-0.1-1.9-0.4c-0.6-0.3-1-0.6-1.3-1     c-0.3-0.4-0.5-0.9-0.6-1.4c-0.1-0.4-0.1-1-0.1-1.8v-7.1h1.9v6.3c0,1,0,1.7,0.1,2c0.1,0.5,0.4,0.9,0.8,1.2     c0.4,0.3,0.9,0.4,1.5,0.4s1.1-0.1,1.6-0.4c0.5-0.3,0.9-0.7,1.1-1.2c0.2-0.5,0.3-1.3,0.3-2.2v-6.1h1.9v11.4H25.2z"/>
			<path class="st0" d="M38.7,87.4c-0.7,0.6-1.4,1-2.1,1.3c-0.7,0.3-1.4,0.4-2.1,0.4c-1.3,0-2.2-0.3-2.9-0.9c-0.7-0.6-1-1.4-1-2.3     c0-0.6,0.1-1.1,0.4-1.5c0.3-0.5,0.6-0.8,1-1.1c0.4-0.3,0.9-0.5,1.4-0.6c0.4-0.1,1-0.2,1.7-0.3c1.6-0.2,2.7-0.4,3.4-0.7     c0-0.3,0-0.4,0-0.5c0-0.8-0.2-1.3-0.5-1.7c-0.5-0.4-1.2-0.7-2.2-0.7c-0.9,0-1.6,0.2-2,0.5c-0.4,0.3-0.8,0.9-1,1.7l-1.9-0.3     c0.2-0.8,0.5-1.5,0.8-2c0.4-0.5,1-0.9,1.7-1.2c0.7-0.3,1.6-0.4,2.6-0.4c1,0,1.8,0.1,2.4,0.3s1.1,0.5,1.3,0.9     c0.3,0.3,0.5,0.8,0.6,1.3c0.1,0.3,0.1,0.9,0.1,1.8V84c0,1.8,0,2.9,0.1,3.4c0.1,0.5,0.2,0.9,0.5,1.4h-2     C38.9,88.4,38.8,87.9,38.7,87.4z M38.5,83.1c-0.7,0.3-1.8,0.5-3.2,0.7c-0.8,0.1-1.4,0.2-1.7,0.4s-0.6,0.4-0.8,0.6     c-0.2,0.3-0.3,0.6-0.3,0.9c0,0.5,0.2,0.9,0.6,1.3c0.4,0.3,1,0.5,1.7,0.5c0.7,0,1.4-0.2,2-0.5c0.6-0.3,1-0.8,1.3-1.3     c0.2-0.4,0.3-1.1,0.3-1.9V83.1z"/>
			<path class="st0" d="M44.8,88.8V73.1h1.9v15.7H44.8z"/>
			<path class="st0" d="M51,75.3v-2.2H53v2.2H51z M51,88.8V77.4H53v11.4H51z"/>
			<path class="st0" d="M61.4,87.1l0.3,1.7c-0.5,0.1-1,0.2-1.5,0.2c-0.7,0-1.2-0.1-1.6-0.3s-0.7-0.5-0.8-0.9     c-0.2-0.4-0.2-1.1-0.2-2.3v-6.6h-1.4v-1.5h1.4v-2.8l1.9-1.2v4h1.9v1.5h-1.9v6.7c0,0.6,0,0.9,0.1,1.1c0.1,0.2,0.2,0.3,0.3,0.4     c0.2,0.1,0.4,0.1,0.7,0.1C60.8,87.2,61.1,87.1,61.4,87.1z"/>
			<path class="st0" d="M64.6,93.2l-0.2-1.8c0.4,0.1,0.8,0.2,1.1,0.2c0.4,0,0.8-0.1,1-0.2s0.5-0.3,0.6-0.6c0.1-0.2,0.3-0.7,0.6-1.4     c0-0.1,0.1-0.3,0.2-0.5l-4.3-11.4h2.1L68,84c0.3,0.8,0.6,1.7,0.8,2.6c0.2-0.9,0.5-1.8,0.8-2.6l2.4-6.6H74L69.7,89     c-0.5,1.3-0.8,2.1-1.1,2.6c-0.3,0.6-0.7,1.1-1.2,1.4c-0.4,0.3-1,0.4-1.6,0.4C65.4,93.4,65,93.4,64.6,93.2z"/>
		</g>
	</g>
	<g>
		<g>
			<path class="st0" d="M131.7,0.3v100.9c0,3.5,1.1,6.2,3.3,8c2.2,1.8,5.3,2.7,9.3,2.7h6.6v4h-48.5v-4h6c4.4,0,7.5-0.9,9.3-2.7     c2.2-1.8,3.3-4.4,3.3-8V20.9c0-1.8-0.7-3.3-2-4.6c-0.9-0.9-2.4-1.3-4.6-1.3h-12v-4h6c5.3,0,9.5-0.9,12.6-2.7c3.5-1.8,6.2-4.4,8-8     H131.7z"/>
		</g>
	</g>
</g>
</svg>