<?xml version="1.0" encoding="UTF-8"?>
<!-- Generator: Adobe Illustrator 23.0.3, SVG Export Plug-In . SVG Version: 6.00 Build 0)  -->
<svg version="1.1" id="レイヤー_1" xmlns="http://www.w3.org/2000/svg" xmlns:xlink="http://www.w3.org/1999/xlink" x="0px" y="0px" width="154.2px" height="116.2px" viewBox="0 0 154.2 116.2" style="enable-background:new 0 0 154.2 116.2;" xml:space="preserve">
<style type="text/css">
	.st0{fill:#595757;}
</style>
<g>
	<g>
		<g>
			<path class="st0" d="M0,53.3l1.9-0.3c0,1.2,0.3,2,0.7,2.5s1,0.7,1.7,0.7c0.5,0,1-0.1,1.4-0.4c0.4-0.2,0.6-0.6,0.8-1     c0.1-0.4,0.2-1.1,0.2-2V42.1h2.1v10.7c0,1.3-0.2,2.3-0.5,3.1c-0.3,0.7-0.8,1.3-1.5,1.7c-0.7,0.4-1.5,0.6-2.4,0.6     c-1.4,0-2.4-0.4-3.2-1.2C0.3,56.1,0,54.9,0,53.3z"/>
			<path class="st0" d="M20.6,56.4c-0.7,0.6-1.4,1-2.1,1.3c-0.7,0.3-1.4,0.4-2.1,0.4c-1.3,0-2.2-0.3-2.9-0.9c-0.7-0.6-1-1.4-1-2.3     c0-0.6,0.1-1.1,0.4-1.5c0.3-0.5,0.6-0.8,1-1.1c0.4-0.3,0.9-0.5,1.4-0.6c0.4-0.1,1-0.2,1.7-0.3c1.6-0.2,2.7-0.4,3.4-0.7     c0-0.3,0-0.4,0-0.5c0-0.8-0.2-1.3-0.5-1.7c-0.5-0.4-1.2-0.7-2.2-0.7c-0.9,0-1.6,0.2-2,0.5c-0.4,0.3-0.8,0.9-1,1.7l-1.9-0.3     c0.2-0.8,0.5-1.5,0.8-2c0.4-0.5,1-0.9,1.7-1.2c0.7-0.3,1.6-0.4,2.6-0.4c1,0,1.8,0.1,2.4,0.3s1.1,0.5,1.3,0.9     c0.3,0.3,0.5,0.8,0.6,1.3c0.1,0.3,0.1,0.9,0.1,1.8V53c0,1.8,0,2.9,0.1,3.4c0.1,0.5,0.2,0.9,0.5,1.4h-2     C20.8,57.4,20.6,56.9,20.6,56.4z M20.4,52.1c-0.7,0.3-1.8,0.5-3.2,0.7c-0.8,0.1-1.4,0.2-1.7,0.4s-0.6,0.4-0.8,0.6     c-0.2,0.3-0.3,0.6-0.3,0.9c0,0.5,0.2,0.9,0.6,1.3c0.4,0.3,1,0.5,1.7,0.5c0.7,0,1.4-0.2,2-0.5c0.6-0.3,1-0.8,1.3-1.3     c0.2-0.4,0.3-1.1,0.3-1.9V52.1z"/>
			<path class="st0" d="M26.7,62.2V46.4h1.8v1.5c0.4-0.6,0.9-1,1.4-1.3c0.5-0.3,1.2-0.4,1.9-0.4c1,0,1.8,0.3,2.6,0.8     s1.3,1.2,1.7,2.1c0.4,0.9,0.6,1.9,0.6,3c0,1.2-0.2,2.2-0.6,3.2c-0.4,0.9-1,1.7-1.8,2.1c-0.8,0.5-1.6,0.7-2.5,0.7     c-0.6,0-1.2-0.1-1.7-0.4c-0.5-0.3-0.9-0.6-1.3-1v5.6H26.7z M28.4,52.2c0,1.5,0.3,2.6,0.9,3.3s1.3,1.1,2.2,1.1     c0.9,0,1.6-0.4,2.2-1.1c0.6-0.7,0.9-1.9,0.9-3.4c0-1.5-0.3-2.5-0.9-3.3c-0.6-0.7-1.3-1.1-2.1-1.1c-0.8,0-1.6,0.4-2.2,1.2     C28.8,49.6,28.4,50.7,28.4,52.2z"/>
			<path class="st0" d="M47.7,56.4c-0.7,0.6-1.4,1-2.1,1.3c-0.7,0.3-1.4,0.4-2.1,0.4c-1.3,0-2.2-0.3-2.9-0.9c-0.7-0.6-1-1.4-1-2.3     c0-0.6,0.1-1.1,0.4-1.5c0.3-0.5,0.6-0.8,1-1.1c0.4-0.3,0.9-0.5,1.4-0.6c0.4-0.1,1-0.2,1.7-0.3c1.6-0.2,2.7-0.4,3.4-0.7     c0-0.3,0-0.4,0-0.5c0-0.8-0.2-1.3-0.5-1.7c-0.5-0.4-1.2-0.7-2.2-0.7c-0.9,0-1.6,0.2-2,0.5c-0.4,0.3-0.8,0.9-1,1.7l-1.9-0.3     c0.2-0.8,0.5-1.5,0.8-2c0.4-0.5,1-0.9,1.7-1.2c0.7-0.3,1.6-0.4,2.6-0.4c1,0,1.8,0.1,2.4,0.3s1.1,0.5,1.3,0.9     c0.3,0.3,0.5,0.8,0.6,1.3c0.1,0.3,0.1,0.9,0.1,1.8V53c0,1.8,0,2.9,0.1,3.4c0.1,0.5,0.2,0.9,0.5,1.4h-2     C47.9,57.4,47.8,56.9,47.7,56.4z M47.5,52.1c-0.7,0.3-1.8,0.5-3.2,0.7c-0.8,0.1-1.4,0.2-1.7,0.4s-0.6,0.4-0.8,0.6     c-0.2,0.3-0.3,0.6-0.3,0.9c0,0.5,0.2,0.9,0.6,1.3c0.4,0.3,1,0.5,1.7,0.5c0.7,0,1.4-0.2,2-0.5c0.6-0.3,1-0.8,1.3-1.3     c0.2-0.4,0.3-1.1,0.3-1.9V52.1z"/>
			<path class="st0" d="M53.8,57.8V46.4h1.7V48c0.8-1.3,2-1.9,3.6-1.9c0.7,0,1.3,0.1,1.9,0.4c0.6,0.2,1,0.6,1.3,1s0.5,0.9,0.6,1.4     c0.1,0.4,0.1,1,0.1,1.9v7h-1.9v-6.9c0-0.8-0.1-1.4-0.2-1.8c-0.2-0.4-0.4-0.7-0.8-0.9c-0.4-0.2-0.8-0.3-1.3-0.3     c-0.8,0-1.5,0.3-2.1,0.8c-0.6,0.5-0.9,1.5-0.9,3v6.2H53.8z"/>
			<path class="st0" d="M8.1,92.2v-5.6c-0.3,0.4-0.7,0.8-1.3,1.1c-0.5,0.3-1.1,0.4-1.7,0.4c-1.4,0-2.5-0.5-3.5-1.6     c-1-1.1-1.5-2.6-1.5-4.4c0-1.1,0.2-2.2,0.6-3.1c0.4-0.9,1-1.6,1.7-2.1c0.8-0.5,1.6-0.7,2.5-0.7c1.4,0,2.5,0.6,3.3,1.8v-1.5H10     v15.8H8.1z M2.1,82.1c0,1.5,0.3,2.6,0.9,3.3c0.6,0.7,1.4,1.1,2.2,1.1c0.8,0,1.5-0.3,2.1-1c0.6-0.7,0.9-1.8,0.9-3.2     c0-1.5-0.3-2.7-0.9-3.4c-0.6-0.8-1.4-1.1-2.2-1.1c-0.8,0-1.5,0.4-2.1,1.1C2.4,79.5,2.1,80.6,2.1,82.1z"/>
			<path class="st0" d="M21.9,87.8v-1.7c-0.9,1.3-2.1,1.9-3.6,1.9c-0.7,0-1.3-0.1-1.9-0.4c-0.6-0.3-1-0.6-1.3-1     c-0.3-0.4-0.5-0.9-0.6-1.4c-0.1-0.4-0.1-1-0.1-1.8v-7.1h1.9v6.3c0,1,0,1.7,0.1,2c0.1,0.5,0.4,0.9,0.8,1.2     c0.4,0.3,0.9,0.4,1.5,0.4s1.1-0.1,1.6-0.4c0.5-0.3,0.9-0.7,1.1-1.2c0.2-0.5,0.3-1.3,0.3-2.2v-6.1h1.9v11.4H21.9z"/>
			<path class="st0" d="M35.4,86.4c-0.7,0.6-1.4,1-2.1,1.3c-0.7,0.3-1.4,0.4-2.1,0.4c-1.3,0-2.2-0.3-2.9-0.9c-0.7-0.6-1-1.4-1-2.3     c0-0.6,0.1-1.1,0.4-1.5c0.3-0.5,0.6-0.8,1-1.1c0.4-0.3,0.9-0.5,1.4-0.6c0.4-0.1,1-0.2,1.7-0.3c1.6-0.2,2.7-0.4,3.4-0.7     c0-0.3,0-0.4,0-0.5c0-0.8-0.2-1.3-0.5-1.7c-0.5-0.4-1.2-0.7-2.2-0.7c-0.9,0-1.6,0.2-2,0.5c-0.4,0.3-0.8,0.9-1,1.7l-1.9-0.3     c0.2-0.8,0.5-1.5,0.8-2c0.4-0.5,1-0.9,1.7-1.2c0.7-0.3,1.6-0.4,2.6-0.4c1,0,1.8,0.1,2.4,0.3s1.1,0.5,1.3,0.9     c0.3,0.3,0.5,0.8,0.6,1.3c0.1,0.3,0.1,0.9,0.1,1.8V83c0,1.8,0,2.9,0.1,3.4c0.1,0.5,0.2,0.9,0.5,1.4h-2     C35.6,87.4,35.4,86.9,35.4,86.4z M35.2,82.1c-0.7,0.3-1.8,0.5-3.2,0.7c-0.8,0.1-1.4,0.2-1.7,0.4s-0.6,0.4-0.8,0.6     c-0.2,0.3-0.3,0.6-0.3,0.9c0,0.5,0.2,0.9,0.6,1.3c0.4,0.3,1,0.5,1.7,0.5c0.7,0,1.4-0.2,2-0.5c0.6-0.3,1-0.8,1.3-1.3     c0.2-0.4,0.3-1.1,0.3-1.9V82.1z"/>
			<path class="st0" d="M41.4,87.8V72.1h1.9v15.7H41.4z"/>
			<path class="st0" d="M47.7,74.3v-2.2h1.9v2.2H47.7z M47.7,87.8V76.4h1.9v11.4H47.7z"/>
			<path class="st0" d="M58.1,86.1l0.3,1.7c-0.5,0.1-1,0.2-1.5,0.2c-0.7,0-1.2-0.1-1.6-0.3s-0.7-0.5-0.8-0.9     c-0.2-0.4-0.2-1.1-0.2-2.3v-6.6h-1.4v-1.5h1.4v-2.8l1.9-1.2v4h1.9v1.5h-1.9v6.7c0,0.6,0,0.9,0.1,1.1c0.1,0.2,0.2,0.3,0.3,0.4     c0.2,0.1,0.4,0.1,0.7,0.1C57.5,86.2,57.8,86.1,58.1,86.1z"/>
			<path class="st0" d="M61.2,92.2L61,90.4c0.4,0.1,0.8,0.2,1.1,0.2c0.4,0,0.8-0.1,1-0.2s0.5-0.3,0.6-0.6c0.1-0.2,0.3-0.7,0.6-1.4     c0-0.1,0.1-0.3,0.2-0.5l-4.3-11.4h2.1l2.4,6.6c0.3,0.8,0.6,1.7,0.8,2.6c0.2-0.9,0.5-1.8,0.8-2.6l2.4-6.6h1.9L66.3,88     c-0.5,1.3-0.8,2.1-1.1,2.6c-0.3,0.6-0.7,1.1-1.2,1.4c-0.4,0.3-1,0.4-1.6,0.4C62.1,92.4,61.7,92.4,61.2,92.2z"/>
		</g>
	</g>
	<g>
		<g>
			<path class="st0" d="M154.2,84.3c0,8.4-3.1,15.7-9.3,21.9c-6.2,6.6-14.8,10-25.9,10c-8,0-14.8-2.2-20.6-6.6     c-5.8-4.4-8.6-9.5-8.6-15.3c0-2.7,0.9-5.1,2.7-7.3c1.8-1.8,3.5-2.7,5.3-2.7c2.7,0,4.4,0.9,5.3,2.7c1.3,2.2,2,4,2,5.3     c0,2.2-0.4,4-1.3,5.3c-0.9,1.8-1.3,3.3-1.3,4.6c0,2.7,1.5,4.9,4.6,6.6c3.5,1.8,7.3,2.7,11.3,2.7c8,0,13.9-2.4,17.9-7.3     c4-4.4,6-11.5,6-21.3c0-7.5-2.2-13.9-6.6-19.3c-4-4.9-11.7-7.3-23.2-7.3v-4.6c8.4,0,14.8-2.2,19.3-6.6c4.4-4.4,6.6-10.2,6.6-17.3     c0-6.2-1.8-11.7-5.3-16.6c-3.1-4.4-8.2-6.6-15.3-6.6c-3.5,0-6.9,0.7-10,2c-3.5,1.8-5.3,4.4-5.3,8c0,3.5,0.4,5.8,1.3,6.6     c0.9,0.9,1.3,2,1.3,3.3c0,2.2-0.4,4-1.3,5.3c-0.9,1.3-2.4,2-4.6,2c-1.8,0-3.5-0.7-5.3-2c-1.3-1.3-2-3.8-2-7.3     c0-6.6,2.9-12.2,8.6-16.6c5.7-4,12.4-6,19.9-6c9.3,0,16.4,2.7,21.3,8c5.3,5.8,8,11.7,8,17.9c0,6.6-1.8,12.2-5.3,16.6     c-3.1,4.9-8.2,8.4-15.3,10.6c9.7,3.5,16.4,8.2,19.9,13.9C152.5,72.8,154.2,78.6,154.2,84.3z"/>
		</g>
	</g>
</g>
</svg>