<?xml version="1.0" encoding="UTF-8"?>
<!-- Generator: Adobe Illustrator 23.0.3, SVG Export Plug-In . SVG Version: 6.00 Build 0)  -->
<svg version="1.1" id="レイヤー_1" xmlns="http://www.w3.org/2000/svg" xmlns:xlink="http://www.w3.org/1999/xlink" x="0px" y="0px" width="829.5px" height="130.8px" viewBox="0 0 829.5 130.8" style="enable-background:new 0 0 829.5 130.8;" xml:space="preserve">
<style type="text/css">
	.st0{fill:#595757;}
	.st1{fill:#E50012;}
</style>
<g>
	<g>
		<path class="st0" d="M52.7,8.5h-4.8c-1.6,0-3,0.4-4.2,1.2c-0.8,0.8-1.2,2-1.2,3.6v86c0,8.5-2.4,15.3-7.3,20.6    c-4.8,5.2-11.1,7.9-18.8,7.9c-4.8,0-8.9-1.2-12.1-3.6c-2.8-2.4-4.2-5.3-4.2-8.5c0-2.4,0.6-4.2,1.8-5.4c1.6-1.2,3.2-1.8,4.8-1.8    c2,0,3.6,0.6,4.8,1.8c1.2,1.6,1.8,3.4,1.8,5.4c0,0.8-0.2,1.4-0.6,1.8c0,0.8-0.4,1.6-1.2,2.4c0.8,1.2,1.6,2,2.4,2.4    c0.8,0.8,2.4,1.2,4.8,1.2c4.4,0,7.9-1.8,10.3-5.4c2.4-3.2,3.6-9.5,3.6-18.8v-86c0-1.6-0.4-2.8-1.2-3.6c-0.8-0.8-2.2-1.2-4.2-1.2    h-4.8V4.8h30.3V8.5z"/>
		<path class="st0" d="M127.8,93.2c0,5.7-1,9.5-3,11.5c-2,2.4-4.6,3.6-7.9,3.6c-2.8,0-5.1-0.6-6.7-1.8c-1.6-1.2-2.8-3.2-3.6-6.1    c-2.4,2.4-5.1,4.4-7.9,6.1c-2.8,1.6-6.5,2.4-10.9,2.4c-6.9,0-12.1-1.6-15.7-4.8c-3.6-3.2-5.4-7.3-5.4-12.1    c0-7.3,2.6-13.3,7.9-18.2c5.2-4.8,15.9-8.1,32.1-9.7v-7.3c0-4-0.8-7.5-2.4-10.3c-1.6-2.4-5.3-3.6-10.9-3.6c-6.1,0-9.9,1-11.5,3    c-1.6,2.4-2,4.8-1.2,7.3c0.8,1.6,0.8,3.2,0,4.8c-0.8,1.6-2.4,2.4-4.8,2.4c-1.6,0-3-0.6-4.2-1.8c-0.8-0.8-1.2-2.2-1.2-4.2    c0-3.6,2-7.1,6.1-10.3c4-3.2,9.5-4.8,16.3-4.8c7.3,0,12.7,1.4,16.3,4.2c4,3.2,6.1,7.7,6.1,13.3v40c0,3.2,0.2,5.1,0.6,5.4    c0.8,0.8,2,1.2,3.6,1.2c2,0,3.4-1,4.2-3c0.8-1.6,1.2-4,1.2-7.3H127.8z M106.6,96.3V67.8c-12.9,1.6-21,4.2-24.2,7.9    c-3.6,4-5.4,8.9-5.4,14.5c0,4,1,7.5,3,10.3c2,2.8,5,4.2,9.1,4.2c3.2,0,6.1-0.6,8.5-1.8C100.3,101.7,103.3,99.5,106.6,96.3z"/>
		<path class="st0" d="M158,127.1h4.2v3.6h-27.9v-3.6h3.6c2,0,3.4-0.4,4.2-1.2c0.8-0.8,1.2-2.2,1.2-4.2V50.3c0-1.6-0.4-3-1.2-4.2    c-0.8-0.8-2.2-1.2-4.2-1.2h-3.6v-3.6h5.4c2,0,3.8-0.2,5.4-0.6c2-0.4,3.8-1.2,5.4-2.4h1.2v13.9c2.8-4,5.8-7.1,9.1-9.1    c3.6-2,7.5-3,11.5-3c8.5,0,15.1,2.6,20,7.9c5.2,5.7,7.9,14.3,7.9,26c0,11.3-2.8,20-8.5,26c-5.7,6.1-12.3,9.1-20,9.1    c-4,0-7.9-0.8-11.5-2.4c-2.8-1.2-5.7-3.2-8.5-6.1v21.2c0,2,0.6,3.4,1.8,4.2C155,126.7,156.4,127.1,158,127.1z M152,92.6    c2,4.4,4.4,7.5,7.3,9.1c3.2,2,6.9,3,10.9,3c5.6,0,10.5-2.6,14.5-7.9c4-4.8,6.1-12.5,6.1-23c0-9.3-1.6-16.5-4.8-21.8    c-2.8-4.8-7.3-7.3-13.3-7.3c-4,0-7.7,1-10.9,3c-3.6,2-6.9,5.7-9.7,10.9V92.6z"/>
		<path class="st0" d="M275.5,93.2c0,5.7-1,9.5-3,11.5c-2,2.4-4.6,3.6-7.9,3.6c-2.8,0-5.1-0.6-6.7-1.8c-1.6-1.2-2.8-3.2-3.6-6.1    c-2.4,2.4-5.1,4.4-7.9,6.1c-2.8,1.6-6.5,2.4-10.9,2.4c-6.9,0-12.1-1.6-15.7-4.8c-3.6-3.2-5.4-7.3-5.4-12.1    c0-7.3,2.6-13.3,7.9-18.2c5.2-4.8,15.9-8.1,32.1-9.7v-7.3c0-4-0.8-7.5-2.4-10.3c-1.6-2.4-5.3-3.6-10.9-3.6c-6.1,0-9.9,1-11.5,3    c-1.6,2.4-2,4.8-1.2,7.3c0.8,1.6,0.8,3.2,0,4.8c-0.8,1.6-2.4,2.4-4.8,2.4c-1.6,0-3-0.6-4.2-1.8c-0.8-0.8-1.2-2.2-1.2-4.2    c0-3.6,2-7.1,6.1-10.3c4-3.2,9.5-4.8,16.3-4.8c7.3,0,12.7,1.4,16.3,4.2c4,3.2,6.1,7.7,6.1,13.3v40c0,3.2,0.2,5.1,0.6,5.4    c0.8,0.8,2,1.2,3.6,1.2c2,0,3.4-1,4.2-3c0.8-1.6,1.2-4,1.2-7.3H275.5z M254.3,96.3V67.8c-12.9,1.6-21,4.2-24.2,7.9    c-3.6,4-5.4,8.9-5.4,14.5c0,4,1,7.5,3,10.3c2,2.8,5,4.2,9.1,4.2c3.2,0,6.1-0.6,8.5-1.8C248,101.7,251.1,99.5,254.3,96.3z"/>
		<path class="st0" d="M282.8,108.4v-3.6h3c2,0,3.4-0.4,4.2-1.2c0.8-0.8,1.2-2,1.2-3.6V47.8c0-1.2-0.2-2.2-0.6-3    c-0.4-0.4-1.2-0.6-2.4-0.6h-4.8v-3.6h4.2c2,0,3.8-0.2,5.4-0.6c2-0.4,3.8-1.2,5.4-2.4h1.2v13.9c3.6-4,7.3-7.1,10.9-9.1    c3.6-2,7.5-3,11.5-3c6.9,0,11.9,1.8,15.1,5.4c3.2,3.6,4.8,9.1,4.8,16.3v38.8c0,1.6,0.4,2.8,1.2,3.6c1.2,0.8,2.6,1.2,4.2,1.2h3v3.6    h-25.4v-3.6h3c2,0,3.4-0.4,4.2-1.2c0.8-0.8,1.2-2,1.2-3.6V59.3c0-4.8-1-8.7-3-11.5c-2-2.4-5.1-3.6-9.1-3.6    c-3.6,0-7.5,1.2-11.5,3.6c-3.6,2-7.1,5.4-10.3,10.3v41.8c0,1.6,0.4,2.8,1.2,3.6c1.2,0.8,2.6,1.2,4.2,1.2h3v3.6H282.8z"/>
		<path class="st0" d="M466.2,121.7c0,2,0.4,3.4,1.2,4.2c1.2,0.8,2.6,1.2,4.2,1.2h3.6v3.6h-27.9v-3.6h4.8c2,0,3.4-0.4,4.2-1.2    c0.8-0.8,1.2-2.2,1.2-4.2V99.3c-2.4,3.2-5.4,5.7-9.1,7.3c-3.2,1.6-7.3,2.4-12.1,2.4c-6.9,0-12.9-3-18.2-9.1    c-5.3-5.6-7.9-14.1-7.9-25.4c0-10.9,3-19.4,9.1-25.4S432.1,40,439,40c4.4,0,8.1,0.8,10.9,2.4c3.6,2,6.5,4,8.5,6.1l5.4-7.9h2.4    V121.7z M457.7,56.3c-1.6-3.6-3.8-6.7-6.7-9.1c-2.8-2-6.3-3-10.3-3c-5.7,0-10.5,2.4-14.5,7.3c-4,4.8-6.1,13.1-6.1,24.8    c0,10.1,1.6,17.2,4.8,21.2c3.6,4.4,8.1,6.7,13.3,6.7c4.4,0,8.3-1,11.5-3c3.6-2,6.3-5.4,7.9-10.3V56.3z"/>
		<path class="st0" d="M515.3,102.9c4.8,0,8.9-1.2,12.1-3.6c3.6-2.4,6.3-6.3,7.9-11.5V49.6c0-1.6-0.4-3-1.2-4.2    c-0.8-0.8-2.2-1.2-4.2-1.2h-3.6v-3.6h3.6c2.4,0,4.6-0.2,6.7-0.6c2-0.4,4-1.4,6.1-3h1.2v59.3c0,1.6,0.4,2.8,1.2,3.6    c1.2,0.8,2.6,1.2,4.2,1.2h3.6v3.6h-3.6c-2,0-4,0.2-6.1,0.6c-2,0.8-4.2,1.8-6.7,3h-1.2V95.7c-2,4-5.1,7.3-9.1,9.7    c-4.4,2.4-9.1,3.6-13.9,3.6c-6.5,0-11.3-1.8-14.5-5.4c-3.2-3.6-4.8-9.5-4.8-17.6V49.6c0-1.6-0.4-3-1.2-4.2    c-0.8-0.8-2.2-1.2-4.2-1.2h-3.6v-3.6h3.6c2.4,0,4.6-0.2,6.7-0.6c2-0.4,4-1.4,6.1-3h1.2v50.3c0,5.7,1.2,9.7,3.6,12.1    S510.8,102.9,515.3,102.9z"/>
		<path class="st0" d="M625.4,93.2c0,5.7-1,9.5-3,11.5c-2,2.4-4.6,3.6-7.9,3.6c-2.8,0-5.1-0.6-6.7-1.8c-1.6-1.2-2.8-3.2-3.6-6.1    c-2.4,2.4-5.1,4.4-7.9,6.1c-2.8,1.6-6.5,2.4-10.9,2.4c-6.9,0-12.1-1.6-15.7-4.8c-3.6-3.2-5.4-7.3-5.4-12.1    c0-7.3,2.6-13.3,7.9-18.2c5.2-4.8,15.9-8.1,32.1-9.7v-7.3c0-4-0.8-7.5-2.4-10.3c-1.6-2.4-5.3-3.6-10.9-3.6c-6.1,0-9.9,1-11.5,3    c-1.6,2.4-2,4.8-1.2,7.3c0.8,1.6,0.8,3.2,0,4.8c-0.8,1.6-2.4,2.4-4.8,2.4c-1.6,0-3-0.6-4.2-1.8c-0.8-0.8-1.2-2.2-1.2-4.2    c0-3.6,2-7.1,6.1-10.3c4-3.2,9.5-4.8,16.3-4.8c7.3,0,12.7,1.4,16.3,4.2c4,3.2,6.1,7.7,6.1,13.3v40c0,3.2,0.2,5.1,0.6,5.4    c0.8,0.8,2,1.2,3.6,1.2c2,0,3.4-1,4.2-3c0.8-1.6,1.2-4,1.2-7.3H625.4z M604.3,96.3V67.8c-12.9,1.6-21,4.2-24.2,7.9    c-3.6,4-5.4,8.9-5.4,14.5c0,4,1,7.5,3,10.3c2,2.8,5,4.2,9.1,4.2c3.2,0,6.1-0.6,8.5-1.8C598,101.7,601,99.5,604.3,96.3z"/>
		<path class="st0" d="M660.6,108.4h-27.9v-3.6h4.2c2,0,3.4-0.4,4.2-1.2c0.8-0.8,1.2-2,1.2-3.6V13.3c0-1.6-0.4-2.8-1.2-3.6    c-0.8-0.8-2.2-1.2-4.2-1.2h-4.2V4.8h3.6c2.4,0,4.6-0.4,6.7-1.2c2-0.8,4.2-2,6.7-3.6h1.2v99.9c0,1.6,0.4,2.8,1.2,3.6    c1.2,0.8,2.6,1.2,4.2,1.2h4.2V108.4z"/>
		<path class="st0" d="M698.1,108.4h-27.9v-3.6h4.2c2,0,3.4-0.4,4.2-1.2c0.8-0.8,1.2-2,1.2-3.6V49.6c0-1.6-0.4-3-1.2-4.2    c-0.8-0.8-2.2-1.2-4.2-1.2h-4.2v-3.6h2.4c2.8,0,5.4-0.4,7.9-1.2c2.4-0.8,4.6-1.8,6.7-3h1.2v63.6c0,1.6,0.4,2.8,1.2,3.6    c1.2,0.8,2.6,1.2,4.2,1.2h4.2V108.4z M692.7,10.9c0,2-0.8,3.8-2.4,5.4c-1.6,1.6-3.4,2.4-5.4,2.4c-2,0-3.8-0.8-5.4-2.4    c-1.6-1.6-2.4-3.4-2.4-5.4c0-2,0.8-3.8,2.4-5.4c1.6-1.2,3.4-1.8,5.4-1.8c2,0,3.8,0.6,5.4,1.8C691.8,7.1,692.7,8.9,692.7,10.9z"/>
		<path class="st0" d="M749.6,95.7c-0.4,4-2,7.3-4.8,9.7c-2.8,2.4-6.7,3.6-11.5,3.6c-4.4,0-8.3-1.6-11.5-4.8    c-2.8-2.8-4.2-8.5-4.2-17v-43h-12.7v-3.6h5.4c4,0,6.7-1.6,7.9-4.8c1.6-2.8,2.8-7.5,3.6-13.9l0.6-4.8h3.6v23.6h19.4v3.6H726v45.4    c0,6.1,1,9.9,3,11.5c2,1.6,4.2,2.4,6.7,2.4s4.8-0.8,7.3-2.4c2-1.6,3.2-3.8,3.6-6.7L749.6,95.7z"/>
		<path class="st0" d="M829.5,44.2h-3.6c-1.6,0-3.2,0.6-4.8,1.8c-1.6,1.2-2.8,2.8-3.6,4.8l-23.6,59.9c-0.8,2.4-3.6,6.5-8.5,12.1    c-4,4.8-8.3,7.3-12.7,7.3c-2.8,0-5.1-0.6-6.7-1.8c-1.6-0.8-2.4-2.2-2.4-4.2c0-1.2,0.4-2.4,1.2-3.6c1.2-1.2,2.8-1.8,4.8-1.8    c1.6,0,3.2,0.6,4.8,1.8c1.6,1.6,2.8,2.4,3.6,2.4c1.2,0,2-0.2,2.4-0.6c0.8-0.4,1.6-1.2,2.4-2.4c2-2.4,3.6-4.8,4.8-7.3    c1.6-2.4,3-5.2,4.2-8.5l-24.2-54.5c-0.8-1.6-1.8-3-3-4.2c-1.2-0.8-2.6-1.2-4.2-1.2H758v-3.6h26v3.6h-2.4c-1.6,0-3,0.6-4.2,1.8    c-0.8,1.2-0.8,2.6,0,4.2l18.2,41.2h1.2l15.7-40.6c0.8-2,0.6-3.6-0.6-4.8s-2.6-1.8-4.2-1.8h-3.6v-3.6h25.4V44.2z"/>
	</g>
	<circle class="st1" cx="684.9" cy="11" r="8"/>
</g>
<g>
</g>
<g>
</g>
<g>
</g>
<g>
</g>
<g>
</g>
<g>
</g>
<g>
</g>
<g>
</g>
<g>
</g>
<g>
</g>
<g>
</g>
<g>
</g>
<g>
</g>
<g>
</g>
<g>
</g>
</svg>