<?xml version="1.0" encoding="UTF-8"?>
<!-- Generator: Adobe Illustrator 23.0.3, SVG Export Plug-In . SVG Version: 6.00 Build 0)  -->
<svg version="1.1" id="レイヤー_1" xmlns="http://www.w3.org/2000/svg" xmlns:xlink="http://www.w3.org/1999/xlink" x="0px" y="0px" width="154.2px" height="116.2px" viewBox="0 0 154.2 116.2" style="enable-background:new 0 0 154.2 116.2;" xml:space="preserve">
<style type="text/css">
	.st0{fill:#595757;}
</style>
<g>
	<g>
		<g>
			<path class="st0" d="M0,54l1.9-0.3c0,1.2,0.3,2,0.7,2.5s1,0.7,1.7,0.7c0.5,0,1-0.1,1.4-0.4c0.4-0.2,0.6-0.6,0.8-1     c0.1-0.4,0.2-1.1,0.2-2V42.7h2.1v10.7c0,1.3-0.2,2.3-0.5,3.1c-0.3,0.7-0.8,1.3-1.5,1.7c-0.7,0.4-1.5,0.6-2.4,0.6     c-1.4,0-2.4-0.4-3.2-1.2C0.3,56.8,0,55.6,0,54z"/>
			<path class="st0" d="M20.6,57.1c-0.7,0.6-1.4,1-2.1,1.3c-0.7,0.3-1.4,0.4-2.1,0.4c-1.3,0-2.2-0.3-2.9-0.9c-0.7-0.6-1-1.4-1-2.3     c0-0.6,0.1-1.1,0.4-1.5c0.3-0.5,0.6-0.8,1-1.1c0.4-0.3,0.9-0.5,1.4-0.6c0.4-0.1,1-0.2,1.7-0.3c1.6-0.2,2.7-0.4,3.4-0.7     c0-0.3,0-0.4,0-0.5c0-0.8-0.2-1.3-0.5-1.7c-0.5-0.4-1.2-0.7-2.2-0.7c-0.9,0-1.6,0.2-2,0.5c-0.4,0.3-0.8,0.9-1,1.7l-1.9-0.3     c0.2-0.8,0.5-1.5,0.8-2c0.4-0.5,1-0.9,1.7-1.2c0.7-0.3,1.6-0.4,2.6-0.4c1,0,1.8,0.1,2.4,0.3s1.1,0.5,1.3,0.9     c0.3,0.3,0.5,0.8,0.6,1.3c0.1,0.3,0.1,0.9,0.1,1.8v2.6c0,1.8,0,2.9,0.1,3.4c0.1,0.5,0.2,0.9,0.5,1.4h-2     C20.8,58.1,20.6,57.6,20.6,57.1z M20.4,52.7c-0.7,0.3-1.8,0.5-3.2,0.7c-0.8,0.1-1.4,0.2-1.7,0.4s-0.6,0.4-0.8,0.6     c-0.2,0.3-0.3,0.6-0.3,0.9c0,0.5,0.2,0.9,0.6,1.3c0.4,0.3,1,0.5,1.7,0.5c0.7,0,1.4-0.2,2-0.5c0.6-0.3,1-0.8,1.3-1.3     c0.2-0.4,0.3-1.1,0.3-1.9V52.7z"/>
			<path class="st0" d="M26.7,62.8V47.1h1.8v1.5c0.4-0.6,0.9-1,1.4-1.3c0.5-0.3,1.2-0.4,1.9-0.4c1,0,1.8,0.3,2.6,0.8     s1.3,1.2,1.7,2.1c0.4,0.9,0.6,1.9,0.6,3c0,1.2-0.2,2.2-0.6,3.2c-0.4,0.9-1,1.7-1.8,2.1c-0.8,0.5-1.6,0.7-2.5,0.7     c-0.6,0-1.2-0.1-1.7-0.4c-0.5-0.3-0.9-0.6-1.3-1v5.6H26.7z M28.4,52.8c0,1.5,0.3,2.6,0.9,3.3s1.3,1.1,2.2,1.1     c0.9,0,1.6-0.4,2.2-1.1c0.6-0.7,0.9-1.9,0.9-3.4c0-1.5-0.3-2.5-0.9-3.3c-0.6-0.7-1.3-1.1-2.1-1.1c-0.8,0-1.6,0.4-2.2,1.2     C28.8,50.2,28.4,51.4,28.4,52.8z"/>
			<path class="st0" d="M47.7,57.1c-0.7,0.6-1.4,1-2.1,1.3c-0.7,0.3-1.4,0.4-2.1,0.4c-1.3,0-2.2-0.3-2.9-0.9c-0.7-0.6-1-1.4-1-2.3     c0-0.6,0.1-1.1,0.4-1.5c0.3-0.5,0.6-0.8,1-1.1c0.4-0.3,0.9-0.5,1.4-0.6c0.4-0.1,1-0.2,1.7-0.3c1.6-0.2,2.7-0.4,3.4-0.7     c0-0.3,0-0.4,0-0.5c0-0.8-0.2-1.3-0.5-1.7c-0.5-0.4-1.2-0.7-2.2-0.7c-0.9,0-1.6,0.2-2,0.5c-0.4,0.3-0.8,0.9-1,1.7l-1.9-0.3     c0.2-0.8,0.5-1.5,0.8-2c0.4-0.5,1-0.9,1.7-1.2c0.7-0.3,1.6-0.4,2.6-0.4c1,0,1.8,0.1,2.4,0.3s1.1,0.5,1.3,0.9     c0.3,0.3,0.5,0.8,0.6,1.3c0.1,0.3,0.1,0.9,0.1,1.8v2.6c0,1.8,0,2.9,0.1,3.4c0.1,0.5,0.2,0.9,0.5,1.4h-2     C47.9,58.1,47.8,57.6,47.7,57.1z M47.5,52.7c-0.7,0.3-1.8,0.5-3.2,0.7c-0.8,0.1-1.4,0.2-1.7,0.4s-0.6,0.4-0.8,0.6     c-0.2,0.3-0.3,0.6-0.3,0.9c0,0.5,0.2,0.9,0.6,1.3c0.4,0.3,1,0.5,1.7,0.5c0.7,0,1.4-0.2,2-0.5c0.6-0.3,1-0.8,1.3-1.3     c0.2-0.4,0.3-1.1,0.3-1.9V52.7z"/>
			<path class="st0" d="M53.8,58.5V47.1h1.7v1.6c0.8-1.3,2-1.9,3.6-1.9c0.7,0,1.3,0.1,1.9,0.4c0.6,0.2,1,0.6,1.3,1s0.5,0.9,0.6,1.4     c0.1,0.4,0.1,1,0.1,1.9v7h-1.9v-6.9c0-0.8-0.1-1.4-0.2-1.8c-0.2-0.4-0.4-0.7-0.8-0.9c-0.4-0.2-0.8-0.3-1.3-0.3     c-0.8,0-1.5,0.3-2.1,0.8c-0.6,0.5-0.9,1.5-0.9,3v6.2H53.8z"/>
			<path class="st0" d="M8.1,92.8v-5.6c-0.3,0.4-0.7,0.8-1.3,1.1c-0.5,0.3-1.1,0.4-1.7,0.4c-1.4,0-2.5-0.5-3.5-1.6     c-1-1.1-1.5-2.6-1.5-4.4c0-1.1,0.2-2.2,0.6-3.1c0.4-0.9,1-1.6,1.7-2.1C3.2,77,4.1,76.8,5,76.8c1.4,0,2.5,0.6,3.3,1.8v-1.5H10     v15.8H8.1z M2.1,82.7c0,1.5,0.3,2.6,0.9,3.3c0.6,0.7,1.4,1.1,2.2,1.1c0.8,0,1.5-0.3,2.1-1c0.6-0.7,0.9-1.8,0.9-3.2     c0-1.5-0.3-2.7-0.9-3.4c-0.6-0.8-1.4-1.1-2.2-1.1c-0.8,0-1.5,0.4-2.1,1.1C2.4,80.1,2.1,81.2,2.1,82.7z"/>
			<path class="st0" d="M21.9,88.5v-1.7c-0.9,1.3-2.1,1.9-3.6,1.9c-0.7,0-1.3-0.1-1.9-0.4c-0.6-0.3-1-0.6-1.3-1     c-0.3-0.4-0.5-0.9-0.6-1.4c-0.1-0.4-0.1-1-0.1-1.8v-7.1h1.9v6.3c0,1,0,1.7,0.1,2c0.1,0.5,0.4,0.9,0.8,1.2     c0.4,0.3,0.9,0.4,1.5,0.4s1.1-0.1,1.6-0.4c0.5-0.3,0.9-0.7,1.1-1.2c0.2-0.5,0.3-1.3,0.3-2.2v-6.1h1.9v11.4H21.9z"/>
			<path class="st0" d="M35.4,87.1c-0.7,0.6-1.4,1-2.1,1.3c-0.7,0.3-1.4,0.4-2.1,0.4c-1.3,0-2.2-0.3-2.9-0.9c-0.7-0.6-1-1.4-1-2.3     c0-0.6,0.1-1.1,0.4-1.5c0.3-0.5,0.6-0.8,1-1.1c0.4-0.3,0.9-0.5,1.4-0.6c0.4-0.1,1-0.2,1.7-0.3c1.6-0.2,2.7-0.4,3.4-0.7     c0-0.3,0-0.4,0-0.5c0-0.8-0.2-1.3-0.5-1.7c-0.5-0.4-1.2-0.7-2.2-0.7c-0.9,0-1.6,0.2-2,0.5c-0.4,0.3-0.8,0.9-1,1.7l-1.9-0.3     c0.2-0.8,0.5-1.5,0.8-2c0.4-0.5,1-0.9,1.7-1.2c0.7-0.3,1.6-0.4,2.6-0.4c1,0,1.8,0.1,2.4,0.3s1.1,0.5,1.3,0.9     c0.3,0.3,0.5,0.8,0.6,1.3c0.1,0.3,0.1,0.9,0.1,1.8v2.6c0,1.8,0,2.9,0.1,3.4c0.1,0.5,0.2,0.9,0.5,1.4h-2     C35.6,88.1,35.4,87.6,35.4,87.1z M35.2,82.7c-0.7,0.3-1.8,0.5-3.2,0.7c-0.8,0.1-1.4,0.2-1.7,0.4s-0.6,0.4-0.8,0.6     c-0.2,0.3-0.3,0.6-0.3,0.9c0,0.5,0.2,0.9,0.6,1.3c0.4,0.3,1,0.5,1.7,0.5c0.7,0,1.4-0.2,2-0.5c0.6-0.3,1-0.8,1.3-1.3     c0.2-0.4,0.3-1.1,0.3-1.9V82.7z"/>
			<path class="st0" d="M41.4,88.5V72.7h1.9v15.7H41.4z"/>
			<path class="st0" d="M47.7,75v-2.2h1.9V75H47.7z M47.7,88.5V77.1h1.9v11.4H47.7z"/>
			<path class="st0" d="M58.1,86.7l0.3,1.7c-0.5,0.1-1,0.2-1.5,0.2c-0.7,0-1.2-0.1-1.6-0.3s-0.7-0.5-0.8-0.9     c-0.2-0.4-0.2-1.1-0.2-2.3v-6.6h-1.4v-1.5h1.4v-2.8l1.9-1.2v4h1.9v1.5h-1.9v6.7c0,0.6,0,0.9,0.1,1.1c0.1,0.2,0.2,0.3,0.3,0.4     c0.2,0.1,0.4,0.1,0.7,0.1C57.5,86.8,57.8,86.8,58.1,86.7z"/>
			<path class="st0" d="M61.2,92.9L61,91.1c0.4,0.1,0.8,0.2,1.1,0.2c0.4,0,0.8-0.1,1-0.2s0.5-0.3,0.6-0.6c0.1-0.2,0.3-0.7,0.6-1.4     c0-0.1,0.1-0.3,0.2-0.5l-4.3-11.4h2.1l2.4,6.6c0.3,0.8,0.6,1.7,0.8,2.6c0.2-0.9,0.5-1.8,0.8-2.6l2.4-6.6h1.9l-4.3,11.6     c-0.5,1.3-0.8,2.1-1.1,2.6c-0.3,0.6-0.7,1.1-1.2,1.4c-0.4,0.3-1,0.4-1.6,0.4C62.1,93.1,61.7,93,61.2,92.9z"/>
		</g>
	</g>
	<g>
		<g>
			<path class="st0" d="M141.6,29.9c0-8-1.8-14.2-5.3-18.6c-3.5-4-8.9-6-15.9-6c-5.8,0-10.4,1.3-13.9,4c-3.5,2.7-5.3,6.4-5.3,11.3     c0,2.7,0.7,4.9,2,6.6c1.8,1.8,2.7,3.5,2.7,5.3c0,2.2-0.7,3.8-2,4.6c-0.9,1.3-2.4,2-4.6,2c-2.7,0-4.9-0.9-6.6-2.7     c-1.3-1.3-2-3.8-2-7.3c0-9.3,3.3-16.4,10-21.3c6.6-4.9,13.7-7.3,21.3-7.3c10.6,0,18.4,2.7,23.2,8c5.3,5.8,8,12.4,8,19.9     c0,4.9-1.3,10.2-4,15.9c-2.7,5.8-6.4,10.9-11.3,15.3c-15.5,15.1-25.5,25-29.9,29.9c-6.2,7.1-10.2,12.4-12,15.9H135     c4,0,7.3-1.5,10-4.6c2.7-3.1,4.4-7.7,5.3-13.9h4l-4,28.6H88.5v-8.6c2.7-4.9,6.2-10,10.6-15.3c4-4.9,10.8-12.2,20.6-21.9     c7.5-7.5,13.1-14.6,16.6-21.3C139.9,41.8,141.6,35.6,141.6,29.9z"/>
		</g>
	</g>
</g>
</svg>