<?xml version="1.0" encoding="UTF-8"?>
<!-- Generator: Adobe Illustrator 23.0.3, SVG Export Plug-In . SVG Version: 6.00 Build 0)  -->
<svg version="1.1" id="レイヤー_1" xmlns="http://www.w3.org/2000/svg" xmlns:xlink="http://www.w3.org/1999/xlink" x="0px" y="0px" width="359.2px" height="70.4px" viewBox="0 0 359.2 70.4" style="enable-background:new 0 0 359.2 70.4;" xml:space="preserve">
<style type="text/css">
	.st0{fill:none;stroke:#231815;stroke-width:2.5032;stroke-miterlimit:10;}
	.st1{fill:#8DC21F;}
	.st2{fill:none;stroke:#231815;stroke-width:2.5032;stroke-linejoin:round;stroke-miterlimit:10;}
	.st3{fill:#FFFFFF;stroke:#231815;stroke-width:2.5032;stroke-linejoin:round;stroke-miterlimit:10;}
	.st4{fill:#231815;}
	.st5{fill:#8FC31F;}
</style>
<g>
	<g>
		<path class="st0" d="M32.1,49.9"/>
		<path class="st0" d="M32.1,49.9"/>
		<g>
			<path class="st1" d="M26.7,25.9c0,1.2-1.4,2.2-3.1,2.2c-1.7,0-3.1-1-3.1-2.2c0-1.2,1.4-2.2,3.1-2.2     C25.3,23.8,26.7,24.8,26.7,25.9z"/>
			<path class="st2" d="M26.9,7v19.5c0,0,0.2,2.8-5.3,2c0,0-2.1-0.3-2-2.9c0,0,0-2.4,2.7-2.4h8.9"/>
			<line class="st2" x1="16.7" y1="13" x2="30.9" y2="13"/>
			<line class="st3" x1="41.5" y1="12" x2="41.5" y2="32.6"/>
			<path class="st2" d="M35.9,16.6h8.3l-5.7,11.9c0,0,20.9-5.6,17.3,8.7c0,0-1.8,6.3-10.3,12"/>
			<path class="st2" d="M23,38.3c0,0,9.3,8,20.2,0"/>
			<path class="st0" d="M47.8,47.5"/>
			<path class="st0" d="M47.8,47.5c-4.3,3.3-9.8,5.3-15.7,5.3C17.9,52.8,6.3,41.3,6.3,27S17.9,1.3,32.1,1.3     c14.2,0,25.8,11.5,25.8,25.8"/>
		</g>
		<g>
			<path class="st4" d="M0,70.3v-6.8h1.4v2.7H4v-2.7h1.4v6.8H4v-3H1.4v3H0z"/>
			<path class="st4" d="M7.8,66.9l-1.2-0.2c0.1-0.5,0.4-0.8,0.7-1c0.3-0.2,0.8-0.3,1.4-0.3c0.6,0,1,0.1,1.3,0.2     c0.3,0.1,0.5,0.3,0.6,0.5c0.1,0.2,0.2,0.6,0.2,1.2l0,1.5c0,0.4,0,0.7,0.1,1c0,0.2,0.1,0.4,0.2,0.7H9.8c0-0.1-0.1-0.2-0.1-0.4     c0-0.1,0-0.1,0-0.2c-0.2,0.2-0.5,0.4-0.7,0.5c-0.3,0.1-0.5,0.2-0.8,0.2c-0.5,0-0.9-0.1-1.2-0.4c-0.3-0.3-0.4-0.6-0.4-1     c0-0.3,0.1-0.5,0.2-0.7C6.8,68,7,67.8,7.2,67.7c0.2-0.1,0.6-0.2,1-0.3c0.6-0.1,1-0.2,1.3-0.3V67c0-0.2-0.1-0.4-0.2-0.5     c-0.1-0.1-0.4-0.2-0.7-0.2c-0.2,0-0.4,0-0.5,0.1S7.8,66.7,7.8,66.9z M9.5,68c-0.2,0.1-0.4,0.1-0.8,0.2c-0.4,0.1-0.6,0.2-0.7,0.2     c-0.2,0.1-0.3,0.3-0.3,0.5c0,0.2,0.1,0.3,0.2,0.5c0.1,0.1,0.3,0.2,0.5,0.2c0.2,0,0.5-0.1,0.7-0.2c0.2-0.1,0.3-0.3,0.3-0.4     c0-0.1,0.1-0.3,0.1-0.6V68z"/>
			<path class="st4" d="M16.5,70.3h-1.3v-2.5c0-0.5,0-0.9-0.1-1c-0.1-0.2-0.1-0.3-0.3-0.4s-0.3-0.1-0.4-0.1c-0.2,0-0.4,0.1-0.6,0.2     c-0.2,0.1-0.3,0.3-0.4,0.5c-0.1,0.2-0.1,0.6-0.1,1.1v2.2H12v-4.9h1.2v0.7c0.4-0.6,1-0.8,1.6-0.8c0.3,0,0.5,0.1,0.8,0.2     c0.2,0.1,0.4,0.2,0.5,0.4c0.1,0.2,0.2,0.3,0.3,0.5s0.1,0.5,0.1,0.9V70.3z"/>
			<path class="st4" d="M17.8,64.8v-1.2h1.3v1.2H17.8z M17.8,70.3v-4.9h1.3v4.9H17.8z"/>
			<path class="st4" d="M21.3,70.3l-1.5-4.9h1.3l0.9,3.2l0.8-3.2h1.2l0.8,3.2l0.9-3.2h1.3l-1.6,4.9h-1.2l-0.8-3.1l-0.8,3.1H21.3z"/>
			<path class="st4" d="M28.7,66.9l-1.2-0.2c0.1-0.5,0.4-0.8,0.7-1c0.3-0.2,0.8-0.3,1.4-0.3c0.6,0,1,0.1,1.3,0.2     c0.3,0.1,0.5,0.3,0.6,0.5c0.1,0.2,0.2,0.6,0.2,1.2l0,1.5c0,0.4,0,0.7,0.1,1c0,0.2,0.1,0.4,0.2,0.7h-1.3c0-0.1-0.1-0.2-0.1-0.4     c0-0.1,0-0.1,0-0.2c-0.2,0.2-0.5,0.4-0.7,0.5c-0.3,0.1-0.5,0.2-0.8,0.2c-0.5,0-0.9-0.1-1.2-0.4c-0.3-0.3-0.4-0.6-0.4-1     c0-0.3,0.1-0.5,0.2-0.7c0.1-0.2,0.3-0.4,0.6-0.5c0.2-0.1,0.6-0.2,1-0.3c0.6-0.1,1-0.2,1.3-0.3V67c0-0.2-0.1-0.4-0.2-0.5     c-0.1-0.1-0.4-0.2-0.7-0.2c-0.2,0-0.4,0-0.5,0.1S28.8,66.7,28.7,66.9z M30.5,68c-0.2,0.1-0.4,0.1-0.8,0.2     c-0.4,0.1-0.6,0.2-0.7,0.2c-0.2,0.1-0.3,0.3-0.3,0.5c0,0.2,0.1,0.3,0.2,0.5c0.1,0.1,0.3,0.2,0.5,0.2c0.2,0,0.5-0.1,0.7-0.2     c0.2-0.1,0.3-0.3,0.3-0.4c0-0.1,0.1-0.3,0.1-0.6V68z"/>
			<path class="st4" d="M35.7,63.6h2.7c0.5,0,0.9,0,1.2,0.1c0.3,0,0.5,0.1,0.7,0.3c0.2,0.1,0.4,0.3,0.5,0.6S41,65,41,65.3     c0,0.3-0.1,0.6-0.3,0.9c-0.2,0.3-0.4,0.5-0.7,0.6c0.4,0.1,0.7,0.3,0.9,0.6c0.2,0.3,0.3,0.6,0.3,1c0,0.3-0.1,0.6-0.2,0.9     c-0.1,0.3-0.3,0.5-0.6,0.7c-0.2,0.2-0.6,0.3-0.9,0.3c-0.2,0-0.8,0-1.6,0h-2.3V63.6z M37,64.7v1.6h0.9c0.5,0,0.9,0,1,0     c0.2,0,0.4-0.1,0.6-0.2c0.1-0.1,0.2-0.3,0.2-0.5c0-0.2-0.1-0.4-0.2-0.5c-0.1-0.1-0.3-0.2-0.5-0.2c-0.1,0-0.5,0-1.2,0H37z      M37,67.4v1.8h1.3c0.5,0,0.8,0,0.9,0c0.2,0,0.4-0.1,0.5-0.3c0.1-0.1,0.2-0.3,0.2-0.6c0-0.2,0-0.4-0.1-0.5     c-0.1-0.1-0.2-0.2-0.4-0.3c-0.2-0.1-0.6-0.1-1.2-0.1H37z"/>
			<path class="st4" d="M42.2,67.8c0-0.4,0.1-0.8,0.3-1.2c0.2-0.4,0.5-0.7,0.9-0.9s0.8-0.3,1.3-0.3c0.7,0,1.3,0.2,1.8,0.7     c0.5,0.5,0.7,1.1,0.7,1.8c0,0.7-0.2,1.4-0.7,1.8c-0.5,0.5-1.1,0.7-1.8,0.7c-0.4,0-0.9-0.1-1.3-0.3c-0.4-0.2-0.7-0.5-0.9-0.9     S42.2,68.4,42.2,67.8z M43.5,67.9c0,0.5,0.1,0.9,0.3,1.1c0.2,0.3,0.5,0.4,0.9,0.4s0.6-0.1,0.9-0.4c0.2-0.3,0.3-0.6,0.3-1.1     c0-0.5-0.1-0.8-0.3-1.1c-0.2-0.3-0.5-0.4-0.9-0.4s-0.6,0.1-0.9,0.4C43.6,67,43.5,67.4,43.5,67.9z"/>
			<path class="st4" d="M52.7,70.3h-1.3v-2.5c0-0.5,0-0.9-0.1-1c-0.1-0.2-0.1-0.3-0.3-0.4s-0.3-0.1-0.4-0.1c-0.2,0-0.4,0.1-0.6,0.2     c-0.2,0.1-0.3,0.3-0.4,0.5c-0.1,0.2-0.1,0.6-0.1,1.1v2.2h-1.3v-4.9h1.2v0.7c0.4-0.6,1-0.8,1.6-0.8c0.3,0,0.5,0.1,0.8,0.2     c0.2,0.1,0.4,0.2,0.5,0.4c0.1,0.2,0.2,0.3,0.3,0.5s0.1,0.5,0.1,0.9V70.3z"/>
			<path class="st4" d="M53.5,68.9l1.3-0.2c0.1,0.3,0.2,0.4,0.3,0.6s0.4,0.2,0.7,0.2c0.3,0,0.6-0.1,0.8-0.2c0.1-0.1,0.2-0.2,0.2-0.3     c0-0.1,0-0.2-0.1-0.2c-0.1-0.1-0.2-0.1-0.4-0.2c-1-0.2-1.7-0.4-2-0.6c-0.4-0.3-0.6-0.6-0.6-1.1c0-0.4,0.2-0.8,0.5-1.1     c0.3-0.3,0.9-0.4,1.6-0.4c0.7,0,1.2,0.1,1.5,0.3c0.3,0.2,0.5,0.5,0.7,1l-1.2,0.2c-0.1-0.2-0.2-0.3-0.3-0.4s-0.4-0.2-0.6-0.2     c-0.3,0-0.6,0-0.7,0.1c-0.1,0.1-0.1,0.2-0.1,0.3c0,0.1,0,0.2,0.1,0.2c0.1,0.1,0.5,0.2,1.2,0.4s1.2,0.3,1.4,0.6     c0.3,0.2,0.4,0.6,0.4,1c0,0.4-0.2,0.8-0.6,1.2c-0.4,0.3-0.9,0.5-1.7,0.5c-0.7,0-1.2-0.1-1.6-0.4C53.9,69.7,53.6,69.4,53.5,68.9z"/>
			<path class="st4" d="M60.2,66.9L59,66.7c0.1-0.5,0.4-0.8,0.7-1c0.3-0.2,0.8-0.3,1.4-0.3c0.6,0,1,0.1,1.3,0.2     c0.3,0.1,0.5,0.3,0.6,0.5c0.1,0.2,0.2,0.6,0.2,1.2l0,1.5c0,0.4,0,0.7,0.1,1c0,0.2,0.1,0.4,0.2,0.7h-1.3c0-0.1-0.1-0.2-0.1-0.4     c0-0.1,0-0.1,0-0.2c-0.2,0.2-0.5,0.4-0.7,0.5c-0.3,0.1-0.5,0.2-0.8,0.2c-0.5,0-0.9-0.1-1.2-0.4c-0.3-0.3-0.4-0.6-0.4-1     c0-0.3,0.1-0.5,0.2-0.7c0.1-0.2,0.3-0.4,0.6-0.5c0.2-0.1,0.6-0.2,1-0.3c0.6-0.1,1-0.2,1.3-0.3V67c0-0.2-0.1-0.4-0.2-0.5     c-0.1-0.1-0.4-0.2-0.7-0.2c-0.2,0-0.4,0-0.5,0.1S60.3,66.7,60.2,66.9z M61.9,68c-0.2,0.1-0.4,0.1-0.8,0.2     c-0.4,0.1-0.6,0.2-0.7,0.2c-0.2,0.1-0.3,0.3-0.3,0.5c0,0.2,0.1,0.3,0.2,0.5c0.1,0.1,0.3,0.2,0.5,0.2c0.2,0,0.5-0.1,0.7-0.2     c0.2-0.1,0.3-0.3,0.3-0.4c0-0.1,0.1-0.3,0.1-0.6V68z"/>
			<path class="st4" d="M64.5,64.8v-1.2h1.3v1.2H64.5z M64.5,70.3v-4.9h1.3v4.9H64.5z"/>
		</g>
		<path class="st5" d="M35.5,32.7c0,1.5-1.2,2.8-2.8,2.8c-1.5,0-2.8-1.2-2.8-2.8c0-1.5,1.2-2.8,2.8-2.8    C34.3,29.9,35.5,31.2,35.5,32.7z"/>
	</g>
	<g>
		<g>
			<path class="st4" d="M88.9,64V31.8h6.5v12.7h12.7V31.8h6.5V64h-6.5V49.9H95.4V64H88.9z"/>
			<path class="st4" d="M155.8,64h-7.1l-2.8-7.3h-12.9l-2.7,7.3h-6.9L136,31.8h6.9L155.8,64z M143.8,51.2l-4.4-12l-4.4,12H143.8z"/>
			<path class="st4" d="M164.7,64V31.8h6.3l13.2,21.5V31.8h6V64h-6.5l-13-21v21H164.7z"/>
			<path class="st4" d="M202.4,64V31.8h6.5V64H202.4z"/>
			<path class="st4" d="M225,64l-7.7-32.2h6.7l4.9,22.1l5.9-22.1h7.7l5.6,22.5l4.9-22.5h6.5L251.8,64h-6.9l-6.4-24.1L232.1,64H225z"/>
			<path class="st4" d="M297.4,64h-7.1l-2.8-7.3h-12.9L272,64h-6.9l12.5-32.2h6.9L297.4,64z M285.4,51.2l-4.4-12l-4.4,12H285.4z"/>
		</g>
	</g>
	<g>
		<g>
			<path class="st4" d="M89.7,19.4V8.7h4c0.8,0,1.5,0.1,2,0.3c0.5,0.2,0.9,0.6,1.2,1c0.3,0.5,0.4,0.9,0.4,1.4c0,0.5-0.1,0.9-0.4,1.3     c-0.2,0.4-0.6,0.7-1.1,1c0.6,0.2,1.1,0.5,1.5,1c0.3,0.5,0.5,1,0.5,1.6c0,0.5-0.1,1-0.3,1.4c-0.2,0.4-0.5,0.8-0.8,1     s-0.7,0.4-1.2,0.5c-0.5,0.1-1,0.2-1.7,0.2H89.7z M91.1,13.2h2.3c0.6,0,1.1,0,1.4-0.1c0.4-0.1,0.6-0.3,0.8-0.5     c0.2-0.2,0.3-0.6,0.3-0.9c0-0.4-0.1-0.7-0.3-0.9c-0.2-0.3-0.4-0.5-0.7-0.6C94.5,10,94,10,93.2,10h-2.1V13.2z M91.1,18.2h2.7     c0.5,0,0.8,0,1-0.1c0.3-0.1,0.6-0.2,0.8-0.3c0.2-0.1,0.4-0.3,0.5-0.6s0.2-0.6,0.2-0.9c0-0.4-0.1-0.7-0.3-1s-0.5-0.5-0.9-0.6     c-0.4-0.1-0.9-0.2-1.6-0.2h-2.5V18.2z"/>
			<path class="st4" d="M99.3,14.2c0-1.8,0.5-3.2,1.4-4.2s2.2-1.5,3.7-1.5c1,0,1.9,0.2,2.7,0.7s1.4,1.1,1.8,2     c0.4,0.8,0.6,1.8,0.6,2.9c0,1.1-0.2,2.1-0.7,2.9s-1.1,1.5-1.9,2s-1.7,0.7-2.6,0.7c-1,0-1.9-0.2-2.7-0.7s-1.4-1.2-1.8-2     S99.3,15.2,99.3,14.2z M100.7,14.2c0,1.3,0.3,2.3,1,3.1c0.7,0.7,1.6,1.1,2.6,1.1c1.1,0,2-0.4,2.6-1.1c0.7-0.8,1-1.8,1-3.2     c0-0.9-0.1-1.6-0.4-2.3c-0.3-0.7-0.7-1.2-1.3-1.5c-0.6-0.4-1.2-0.5-1.9-0.5c-1,0-1.9,0.3-2.6,1C101.1,11.5,100.7,12.6,100.7,14.2     z"/>
			<path class="st4" d="M111.4,19.4V8.7h1.5l5.6,8.4V8.7h1.4v10.7h-1.5l-5.6-8.4v8.4H111.4z"/>
			<path class="st4" d="M121.7,16l1.3-0.1c0.1,0.5,0.2,1,0.4,1.3c0.2,0.3,0.6,0.6,1.1,0.8c0.5,0.2,1,0.3,1.6,0.3     c0.5,0,1-0.1,1.4-0.2s0.7-0.4,0.9-0.7c0.2-0.3,0.3-0.6,0.3-0.9c0-0.3-0.1-0.6-0.3-0.9c-0.2-0.3-0.5-0.5-1-0.6     c-0.3-0.1-0.9-0.3-1.9-0.5c-1-0.2-1.7-0.5-2.1-0.7c-0.5-0.3-0.9-0.6-1.1-1c-0.3-0.4-0.4-0.8-0.4-1.3c0-0.5,0.2-1,0.5-1.5     c0.3-0.5,0.8-0.8,1.3-1.1s1.2-0.4,2-0.4c0.8,0,1.5,0.1,2.1,0.4c0.6,0.3,1.1,0.6,1.4,1.1s0.5,1.1,0.5,1.7l-1.4,0.1     c-0.1-0.7-0.3-1.2-0.7-1.5c-0.4-0.3-1-0.5-1.9-0.5c-0.9,0-1.5,0.2-1.9,0.5c-0.4,0.3-0.6,0.7-0.6,1.1c0,0.4,0.1,0.7,0.4,1     c0.3,0.2,1,0.5,2.1,0.8c1.2,0.3,1.9,0.5,2.4,0.7c0.6,0.3,1.1,0.7,1.4,1.1c0.3,0.4,0.4,1,0.4,1.5c0,0.6-0.2,1.1-0.5,1.6     c-0.3,0.5-0.8,0.9-1.4,1.2c-0.6,0.3-1.3,0.4-2.1,0.4c-1,0-1.8-0.1-2.4-0.4c-0.7-0.3-1.2-0.7-1.5-1.3     C121.9,17.3,121.8,16.7,121.7,16z"/>
			<path class="st4" d="M131,19.4l4.1-10.7h1.5l4.4,10.7h-1.6l-1.3-3.3h-4.5l-1.2,3.3H131z M134.1,15h3.6l-1.1-3     c-0.3-0.9-0.6-1.6-0.8-2.2c-0.1,0.7-0.3,1.4-0.6,2.1L134.1,15z"/>
			<path class="st4" d="M142.5,19.4V8.7h1.4v10.7H142.5z"/>
			<path class="st4" d="M155.5,18.5c-0.5,0.4-1,0.7-1.4,0.9c-0.5,0.2-0.9,0.3-1.5,0.3c-0.9,0-1.5-0.2-2-0.6c-0.5-0.4-0.7-1-0.7-1.6     c0-0.4,0.1-0.7,0.3-1c0.2-0.3,0.4-0.6,0.7-0.8c0.3-0.2,0.6-0.3,0.9-0.4c0.3-0.1,0.6-0.1,1.2-0.2c1.1-0.1,1.8-0.3,2.4-0.5     c0-0.2,0-0.3,0-0.3c0-0.5-0.1-0.9-0.4-1.1c-0.3-0.3-0.8-0.4-1.5-0.4c-0.6,0-1.1,0.1-1.4,0.3c-0.3,0.2-0.5,0.6-0.7,1.2l-1.3-0.2     c0.1-0.6,0.3-1,0.6-1.3s0.7-0.6,1.2-0.8c0.5-0.2,1.1-0.3,1.8-0.3c0.7,0,1.2,0.1,1.6,0.2c0.4,0.2,0.7,0.4,0.9,0.6s0.3,0.5,0.4,0.9     c0,0.2,0.1,0.6,0.1,1.2v1.8c0,1.2,0,2,0.1,2.3c0.1,0.3,0.2,0.6,0.3,0.9h-1.4C155.6,19.2,155.5,18.8,155.5,18.5z M155.4,15.5     c-0.5,0.2-1.2,0.4-2.2,0.5c-0.5,0.1-0.9,0.2-1.1,0.3s-0.4,0.2-0.5,0.4c-0.1,0.2-0.2,0.4-0.2,0.6c0,0.4,0.1,0.6,0.4,0.9     c0.3,0.2,0.7,0.4,1.2,0.4c0.5,0,1-0.1,1.4-0.3c0.4-0.2,0.7-0.5,0.9-0.9c0.1-0.3,0.2-0.7,0.2-1.3V15.5z"/>
			<path class="st4" d="M158.7,19.4v-7.8h1.2v1.1c0.6-0.9,1.4-1.3,2.5-1.3c0.5,0,0.9,0.1,1.3,0.3c0.4,0.2,0.7,0.4,0.9,0.7     s0.3,0.6,0.4,1c0,0.2,0.1,0.7,0.1,1.3v4.8h-1.3v-4.7c0-0.5-0.1-0.9-0.2-1.2c-0.1-0.3-0.3-0.5-0.5-0.6c-0.3-0.2-0.6-0.2-0.9-0.2     c-0.6,0-1,0.2-1.5,0.5c-0.4,0.4-0.6,1-0.6,2v4.2H158.7z"/>
			<path class="st4" d="M172.1,19.4v-1c-0.5,0.8-1.2,1.2-2.2,1.2c-0.6,0-1.2-0.2-1.7-0.5c-0.5-0.3-0.9-0.8-1.2-1.4     c-0.3-0.6-0.4-1.3-0.4-2.1c0-0.8,0.1-1.5,0.4-2.1c0.3-0.6,0.6-1.1,1.2-1.5s1.1-0.5,1.7-0.5c0.5,0,0.9,0.1,1.3,0.3     c0.4,0.2,0.7,0.5,0.9,0.8V8.7h1.3v10.7H172.1z M168,15.6c0,1,0.2,1.7,0.6,2.2c0.4,0.5,0.9,0.7,1.5,0.7c0.6,0,1.1-0.2,1.5-0.7     c0.4-0.5,0.6-1.2,0.6-2.2c0-1.1-0.2-1.8-0.6-2.3s-0.9-0.7-1.5-0.7c-0.6,0-1.1,0.2-1.5,0.7C168.2,13.8,168,14.5,168,15.6z"/>
			<path class="st4" d="M181.6,19.4l-2.8-10.7h1.5l1.6,7c0.2,0.7,0.3,1.5,0.5,2.2c0.3-1.1,0.4-1.8,0.5-2l2-7.3h1.7l1.5,5.4     c0.4,1.3,0.7,2.6,0.8,3.8c0.1-0.7,0.3-1.5,0.5-2.3l1.7-6.9h1.4l-2.9,10.7h-1.4l-2.3-8.2c-0.2-0.7-0.3-1.1-0.3-1.3     c-0.1,0.5-0.2,0.9-0.3,1.3l-2.3,8.2H181.6z"/>
			<path class="st4" d="M194.2,19.4V8.7h1.4v10.7H194.2z"/>
			<path class="st4" d="M198,19.4V8.7h1.4v9.5h5.3v1.3H198z"/>
			<path class="st4" d="M206.4,19.4V8.7h3.7c0.8,0,1.5,0.1,1.9,0.2c0.6,0.1,1.1,0.4,1.6,0.8c0.6,0.5,1,1.1,1.3,1.8     c0.3,0.7,0.4,1.6,0.4,2.6c0,0.8-0.1,1.5-0.3,2.2c-0.2,0.6-0.4,1.2-0.7,1.6s-0.6,0.7-1,1c-0.4,0.2-0.8,0.4-1.3,0.5     c-0.5,0.1-1.1,0.2-1.7,0.2H206.4z M207.8,18.2h2.3c0.7,0,1.3-0.1,1.7-0.2c0.4-0.1,0.7-0.3,1-0.6c0.3-0.3,0.6-0.8,0.8-1.4     c0.2-0.6,0.3-1.3,0.3-2.1c0-1.1-0.2-2-0.6-2.6c-0.4-0.6-0.8-1-1.3-1.2c-0.4-0.1-1-0.2-1.8-0.2h-2.3V18.2z"/>
			<path class="st4" d="M226.4,15.2V14l4.5,0v4c-0.7,0.6-1.4,1-2.2,1.3c-0.7,0.3-1.5,0.4-2.3,0.4c-1.1,0-2-0.2-2.9-0.7     c-0.9-0.5-1.5-1.1-2-2s-0.7-1.8-0.7-2.9c0-1,0.2-2,0.7-2.9c0.4-0.9,1.1-1.6,1.9-2s1.8-0.7,2.8-0.7c0.8,0,1.5,0.1,2.1,0.4     c0.6,0.3,1.1,0.6,1.5,1.1s0.6,1,0.8,1.8l-1.3,0.4c-0.2-0.5-0.4-1-0.6-1.3s-0.6-0.6-1-0.8c-0.4-0.2-0.9-0.3-1.5-0.3     c-0.6,0-1.2,0.1-1.7,0.3c-0.5,0.2-0.9,0.5-1.1,0.8c-0.3,0.3-0.5,0.7-0.7,1.1c-0.3,0.7-0.4,1.4-0.4,2.2c0,1,0.2,1.8,0.5,2.4     c0.3,0.6,0.8,1.1,1.4,1.4c0.6,0.3,1.3,0.5,2,0.5c0.6,0,1.2-0.1,1.8-0.4c0.6-0.2,1-0.5,1.3-0.8v-2H226.4z"/>
			<path class="st4" d="M233.1,19.4V8.7h4.8c1,0,1.7,0.1,2.2,0.3c0.5,0.2,0.9,0.5,1.2,1s0.4,1,0.4,1.6c0,0.8-0.2,1.4-0.7,1.9     s-1.3,0.9-2.3,1c0.4,0.2,0.7,0.4,0.9,0.5c0.4,0.4,0.8,0.9,1.2,1.4l1.9,2.9h-1.8l-1.4-2.2c-0.4-0.6-0.8-1.1-1-1.5     s-0.5-0.6-0.7-0.7c-0.2-0.1-0.4-0.2-0.6-0.3c-0.2,0-0.4-0.1-0.8-0.1h-1.6v4.8H233.1z M234.5,13.4h3.1c0.6,0,1.2-0.1,1.5-0.2     c0.4-0.1,0.6-0.3,0.8-0.6c0.2-0.3,0.3-0.6,0.3-1c0-0.5-0.2-0.9-0.6-1.3c-0.4-0.3-1-0.5-1.7-0.5h-3.4V13.4z"/>
			<path class="st4" d="M242.7,19.4l4.1-10.7h1.5l4.4,10.7h-1.6l-1.3-3.3h-4.5l-1.2,3.3H242.7z M245.8,15h3.6l-1.1-3     c-0.3-0.9-0.6-1.6-0.8-2.2c-0.1,0.7-0.3,1.4-0.6,2.1L245.8,15z"/>
			<path class="st4" d="M253.4,16l1.3-0.1c0.1,0.5,0.2,1,0.4,1.3c0.2,0.3,0.6,0.6,1.1,0.8c0.5,0.2,1,0.3,1.6,0.3     c0.5,0,1-0.1,1.4-0.2s0.7-0.4,0.9-0.7c0.2-0.3,0.3-0.6,0.3-0.9c0-0.3-0.1-0.6-0.3-0.9c-0.2-0.3-0.5-0.5-1-0.6     c-0.3-0.1-0.9-0.3-1.9-0.5c-1-0.2-1.7-0.5-2.1-0.7c-0.5-0.3-0.9-0.6-1.1-1c-0.3-0.4-0.4-0.8-0.4-1.3c0-0.5,0.2-1,0.5-1.5     c0.3-0.5,0.8-0.8,1.3-1.1s1.2-0.4,2-0.4c0.8,0,1.5,0.1,2.1,0.4c0.6,0.3,1.1,0.6,1.4,1.1s0.5,1.1,0.5,1.7l-1.4,0.1     c-0.1-0.7-0.3-1.2-0.7-1.5c-0.4-0.3-1-0.5-1.9-0.5c-0.9,0-1.5,0.2-1.9,0.5c-0.4,0.3-0.6,0.7-0.6,1.1c0,0.4,0.1,0.7,0.4,1     c0.3,0.2,1,0.5,2.1,0.8c1.2,0.3,1.9,0.5,2.4,0.7c0.6,0.3,1.1,0.7,1.4,1.1c0.3,0.4,0.4,1,0.4,1.5c0,0.6-0.2,1.1-0.5,1.6     c-0.3,0.5-0.8,0.9-1.4,1.2c-0.6,0.3-1.3,0.4-2.1,0.4c-1,0-1.8-0.1-2.4-0.4c-0.7-0.3-1.2-0.7-1.5-1.3     C253.7,17.3,253.5,16.7,253.4,16z"/>
			<path class="st4" d="M263.4,16l1.3-0.1c0.1,0.5,0.2,1,0.4,1.3c0.2,0.3,0.6,0.6,1.1,0.8c0.5,0.2,1,0.3,1.6,0.3     c0.5,0,1-0.1,1.4-0.2s0.7-0.4,0.9-0.7c0.2-0.3,0.3-0.6,0.3-0.9c0-0.3-0.1-0.6-0.3-0.9c-0.2-0.3-0.5-0.5-1-0.6     c-0.3-0.1-0.9-0.3-1.9-0.5c-1-0.2-1.7-0.5-2.1-0.7c-0.5-0.3-0.9-0.6-1.1-1c-0.3-0.4-0.4-0.8-0.4-1.3c0-0.5,0.2-1,0.5-1.5     c0.3-0.5,0.8-0.8,1.3-1.1s1.2-0.4,2-0.4c0.8,0,1.5,0.1,2.1,0.4c0.6,0.3,1.1,0.6,1.4,1.1s0.5,1.1,0.5,1.7l-1.4,0.1     c-0.1-0.7-0.3-1.2-0.7-1.5c-0.4-0.3-1-0.5-1.9-0.5c-0.9,0-1.5,0.2-1.9,0.5c-0.4,0.3-0.6,0.7-0.6,1.1c0,0.4,0.1,0.7,0.4,1     c0.3,0.2,1,0.5,2.1,0.8c1.2,0.3,1.9,0.5,2.4,0.7c0.6,0.3,1.1,0.7,1.4,1.1c0.3,0.4,0.4,1,0.4,1.5c0,0.6-0.2,1.1-0.5,1.6     c-0.3,0.5-0.8,0.9-1.4,1.2c-0.6,0.3-1.3,0.4-2.1,0.4c-1,0-1.8-0.1-2.4-0.4c-0.7-0.3-1.2-0.7-1.5-1.3     C263.7,17.3,263.5,16.7,263.4,16z"/>
			<path class="st4" d="M274,19.4V8.7h7.8V10h-6.3v3.3h5.9v1.3h-5.9v3.7h6.6v1.3H274z"/>
			<path class="st4" d="M283.5,16l1.3-0.1c0.1,0.5,0.2,1,0.4,1.3c0.2,0.3,0.6,0.6,1.1,0.8c0.5,0.2,1,0.3,1.6,0.3     c0.5,0,1-0.1,1.4-0.2s0.7-0.4,0.9-0.7c0.2-0.3,0.3-0.6,0.3-0.9c0-0.3-0.1-0.6-0.3-0.9c-0.2-0.3-0.5-0.5-1-0.6     c-0.3-0.1-0.9-0.3-1.9-0.5c-1-0.2-1.7-0.5-2.1-0.7c-0.5-0.3-0.9-0.6-1.1-1c-0.3-0.4-0.4-0.8-0.4-1.3c0-0.5,0.2-1,0.5-1.5     c0.3-0.5,0.8-0.8,1.3-1.1s1.2-0.4,2-0.4c0.8,0,1.5,0.1,2.1,0.4c0.6,0.3,1.1,0.6,1.4,1.1s0.5,1.1,0.5,1.7l-1.4,0.1     c-0.1-0.7-0.3-1.2-0.7-1.5c-0.4-0.3-1-0.5-1.9-0.5c-0.9,0-1.5,0.2-1.9,0.5c-0.4,0.3-0.6,0.7-0.6,1.1c0,0.4,0.1,0.7,0.4,1     c0.3,0.2,1,0.5,2.1,0.8c1.2,0.3,1.9,0.5,2.4,0.7c0.6,0.3,1.1,0.7,1.4,1.1c0.3,0.4,0.4,1,0.4,1.5c0,0.6-0.2,1.1-0.5,1.6     c-0.3,0.5-0.8,0.9-1.4,1.2c-0.6,0.3-1.3,0.4-2.1,0.4c-1,0-1.8-0.1-2.4-0.4c-0.7-0.3-1.2-0.7-1.5-1.3     C283.7,17.3,283.5,16.7,283.5,16z"/>
			<path class="st4" d="M304.1,18.2c-0.4,0.5-0.9,0.8-1.4,1.1c-0.5,0.2-1.1,0.4-1.7,0.4c-1.1,0-2-0.4-2.6-1.1     c-0.5-0.6-0.8-1.3-0.8-2c0-0.7,0.2-1.3,0.6-1.8c0.4-0.5,1.1-1,1.9-1.4c-0.5-0.6-0.8-1-1-1.4c-0.2-0.3-0.2-0.7-0.2-1     c0-0.6,0.3-1.2,0.8-1.7c0.5-0.5,1.1-0.7,1.9-0.7c0.7,0,1.3,0.2,1.8,0.7c0.5,0.4,0.7,1,0.7,1.6c0,1-0.7,1.9-2,2.6l1.9,2.5     c0.2-0.4,0.4-0.9,0.5-1.5l1.4,0.3c-0.2,0.9-0.6,1.7-1,2.3c0.5,0.7,1.1,1.2,1.7,1.6l-0.9,1C305.2,19.3,304.6,18.8,304.1,18.2z      M303.3,17.1l-2.4-3c-0.7,0.4-1.2,0.8-1.4,1.2c-0.3,0.4-0.4,0.7-0.4,1.1c0,0.4,0.2,0.9,0.5,1.4c0.3,0.5,0.8,0.7,1.5,0.7     c0.4,0,0.8-0.1,1.2-0.4C302.7,17.8,303,17.5,303.3,17.1z M301.4,12.6c0.6-0.3,0.9-0.6,1.1-0.9c0.2-0.3,0.3-0.5,0.3-0.8     c0-0.4-0.1-0.7-0.3-0.9c-0.2-0.2-0.5-0.3-0.9-0.3c-0.4,0-0.7,0.1-0.9,0.3c-0.2,0.2-0.4,0.5-0.4,0.8c0,0.2,0,0.3,0.1,0.5     c0.1,0.2,0.2,0.4,0.4,0.6L301.4,12.6z"/>
			<path class="st4" d="M312.3,19.4V8.7h4c0.7,0,1.3,0,1.6,0.1c0.5,0.1,1,0.3,1.3,0.5s0.6,0.6,0.9,1c0.2,0.4,0.3,0.9,0.3,1.5     c0,0.9-0.3,1.7-0.9,2.3s-1.6,0.9-3.1,0.9h-2.8v4.4H312.3z M313.7,13.8h2.8c0.9,0,1.6-0.2,2-0.5s0.6-0.8,0.6-1.4     c0-0.4-0.1-0.8-0.3-1.2c-0.2-0.3-0.5-0.5-0.9-0.6c-0.2-0.1-0.7-0.1-1.3-0.1h-2.7V13.8z"/>
			<path class="st4" d="M322.2,19.4V8.7h1.4v9.5h5.3v1.3H322.2z"/>
			<path class="st4" d="M329.5,19.4l4.1-10.7h1.5l4.4,10.7h-1.6l-1.3-3.3h-4.5l-1.2,3.3H329.5z M332.6,15h3.6l-1.1-3     c-0.3-0.9-0.6-1.6-0.8-2.2c-0.1,0.7-0.3,1.4-0.6,2.1L332.6,15z"/>
			<path class="st4" d="M340.6,19.4V8.7h1.5l5.6,8.4V8.7h1.4v10.7h-1.5L342,11v8.4H340.6z"/>
			<path class="st4" d="M354.2,19.4V10h-3.5V8.7h8.5V10h-3.6v9.5H354.2z"/>
		</g>
	</g>
</g>
<g>
</g>
<g>
</g>
<g>
</g>
<g>
</g>
<g>
</g>
<g>
</g>
<g>
</g>
<g>
</g>
<g>
</g>
<g>
</g>
<g>
</g>
<g>
</g>
<g>
</g>
<g>
</g>
<g>
</g>
</svg>